<?xml version="1.0" standalone="no"?>
<!DOCTYPE svg PUBLIC "-//W3C//DTD SVG 1.1//EN" "http://www.w3.org/Graphics/SVG/1.1/DTD/svg11.dtd" >
<!--
2013-9-30: Created.
-->
<svg>
<metadata>
Created by iconfont
</metadata>
<defs>

<font id="iconfont" horiz-adv-x="1024" >
  <font-face
    font-family="iconfont"
    font-weight="500"
    font-stretch="normal"
    units-per-em="1024"
    ascent="896"
    descent="-128"
  />
    <missing-glyph />
    
    <glyph glyph-name="xiazai" unicode="&#58980;" d="M2.450919-83.319246l0-127.657448 1021.548058 0 0 127.657448L1023.998977 172.120494 896.286154 172.120494l0-255.43974L130.163742-83.319246 130.163742 172.120494 2.450919 172.120494 2.450919-83.319246 2.450919-83.319246zM429.071449 749.362404l0-379.274116L193.994058 370.088288l319.255962-325.699943 319.204795 325.699943L597.476687 370.088288 597.476687 482.486194 597.476687 749.362404 429.071449 749.362404 429.071449 749.362404z"  horiz-adv-x="1024" />

    
    <glyph glyph-name="qiyebangonglou" unicode="&#58986;" d="M184.685714 675.657143l146.285714 0 0-109.714286-146.285714 0 0 109.714286ZM404.114286 675.657143l146.285714 0 0-109.714286-146.285714 0 0 109.714286ZM184.685714 492.8l146.285714 0 0-109.714286-146.285714 0 0 109.714286ZM404.114286 492.8l146.285714 0 0-109.714286-146.285714 0 0 109.714286ZM769.828571 492.8l73.142857 0 0-109.714286-73.142857 0 0 109.714286ZM769.828571 309.942857l73.142857 0 0-109.714286-73.142857 0 0 109.714286ZM184.685714 309.942857l146.285714 0 0-109.714286-146.285714 0 0 109.714286ZM404.114286 309.942857l146.285714 0 0-109.714286-146.285714 0 0 109.714286ZM989.257143-19.2l0 658.285714-292.571429 0 0 219.428571-658.285714 0 0-877.714286-36.571429 0 0-73.142857 1024 0 0 73.142857L989.257143-19.2zM111.542857-19.2l0 804.571429 512 0 0-804.571429L111.542857-19.2zM696.685714-19.2l0 585.142857 219.428571 0 0-585.142857L696.685714-19.2z"  horiz-adv-x="1026" />

    
    <glyph glyph-name="hetong" unicode="&#58938;" d="M342.3476 274.382553c-3.675716-4.643764-18.482957-21.198811-21.48329-25.360598-14.660908-20.210297-18.532075-52.054563-12.870122-71.506591 8.032954-27.384697 35.465746-30.488385 55.837726-32.511461 47.12632-4.736884 95.028307-1.563612 142.640698-1.563612 46.447868 0 92.848665 0.690732 139.251507-0.276293 27.433816-0.483001 50.513464 7.058766 61.934584 32.902364 12.19167 27.567869 5.948479 53.595662-14.760169 75.760474-7.306406 7.748475-14.902408 15.382339-22.500457 22.946618-17.368576 17.405415-17.032932 34.834366-1.64343 53.595662 14.32117 17.428951 28.983101 34.948977 41.031509 53.918004 65.029062 102.270245 42.335201 235.628532-52.209082 311.389006C562.4536 770.034213 424.167071 762.97647 338.573647 677.534496c-92.996021-92.821035-77.948303-245.998717 4.839215-349.740476C362.524129 303.904936 353.81477 288.79889 342.3476 274.382553L342.3476 274.382553zM897.2272 27.234663c-0.190335 49.916876-21.481244 73.6453-70.638827 73.737398-213.137285 0.391926-426.227498 0.276293-639.362736-0.298805-48.819892-0.092098-69.480444-21.866007-70.110801-69.874417-0.290619-22.441105-0.049119-44.881187-0.049119-69.851904l780.161483 0C897.2272-15.255057 897.325437 6.035852 897.2272 27.234663L897.2272 27.234663zM160.757822-145.208804 851.844593-145.208804l0 71.115688L160.757822-74.093117 160.757822-145.208804 160.757822-145.208804zM160.757822-145.208804"  horiz-adv-x="1024" />

    
    <glyph glyph-name="shuju4" unicode="&#58937;" d="M420.096 805.76l180.032 0 0-663.552-180.032 0 0 663.552ZM180.224 498.368l179.968 0 0-356.16-179.968 0 0 356.16ZM660.032 617.344l180.032 0 0-475.2-180.032 0 0 475.2ZM64 79.36l896 0 0-117.12-896 0 0 117.12ZM485.76 736.384l114.368 0 0-594.24-114.368 0 0 594.24ZM245.824 430.848l114.368 0 0-288.704-114.368 0 0 288.704ZM725.696 554.56l114.368 0 0-412.352-114.368 0 0 412.352ZM123.072 20.352l836.928 0 0-58.112-836.928 0 0 58.112Z"  horiz-adv-x="1024" />

    
    <glyph glyph-name="fangdajing" unicode="&#58940;" d="M880.20706-136.283528c-17.746176 0-34.969443 7.30743-46.973848 19.833721L654.211932 62.049586c-61.065797-42.275849-134.136-64.719001-208.248951-64.719001-203.03009 0-367.43651 164.407444-367.43651 367.43651 0 203.03009 164.407444 367.43651 367.43651 367.43651s367.437533-164.407444 367.437533-367.43651c0-74.113975-22.444175-147.183154-64.719001-208.248951l179.020256-179.02128c12.004405-12.003382 19.311835-29.227672 19.311835-46.972824C947.013605-106.012084 916.741138-136.283528 880.20706-136.283528zM445.962981 598.590516c-128.916115 0-233.82342-104.907305-233.82342-233.82342 0-128.915092 104.907305-233.82342 233.82342-233.82342s233.824443 104.908328 233.824443 233.82342C679.787424 493.683211 574.879096 598.590516 445.962981 598.590516z"  horiz-adv-x="1024" />

    
    <glyph glyph-name="unie63a" unicode="&#59067;" d="M273.952 160.416l-158.688 0c-14.624 0-26.464-11.808-26.464-26.464l0-158.688c0-14.624 11.808-26.464 26.464-26.464l158.688 0c14.624 0 26.464 11.808 26.464 26.464l0 158.688c0 14.624-11.84 26.464-26.464 26.464zM247.488 28.16c0-14.624-11.808-26.464-26.464-26.464l-52.896 0c-14.624 0-26.464 11.808-26.464 26.464l0 52.896c0 14.624 11.84 26.464 26.464 26.464l52.896 0c14.624 0 26.464-11.808 26.464-26.464l0-52.896zM908.736 107.488l-476.096 0c-14.624 0-26.464-11.808-26.464-26.464l0-52.896c0-14.624 11.808-26.464 26.464-26.464l476.096 0c14.624 0 26.464 11.808 26.464 26.464l0 52.896c0 14.624-11.808 26.464-26.464 26.464zM908.736 424.896l-476.096 0c-14.624 0-26.464-11.808-26.464-26.464l0-52.896c0-14.624 11.808-26.464 26.464-26.464l476.096 0c14.624 0 26.464 11.808 26.464 26.464l0 52.896c0 14.624-11.808 26.464-26.464 26.464zM273.952 795.2l-158.688 0c-14.624 0-26.464-11.808-26.464-26.464l0-158.688c0-14.624 11.808-26.464 26.464-26.464l158.688 0c14.624 0 26.464 38.272 26.464 52.896l0 132.256c0 14.624-11.84 26.464-26.464 26.464zM247.488 662.944c0-14.624-11.808-26.464-26.464-26.464l-52.896 0c-14.624 0-26.464 11.84-26.464 26.464l0 52.896c0 14.624 11.84 26.464 26.464 26.464l52.896 0c14.624 0 26.464-11.808 26.464-26.464l0-52.896zM273.952 477.792l-158.688 0c-14.624 0-26.464-11.84-26.464-26.464l0-158.688c0-14.624 11.808-26.464 26.464-26.464l158.688 0c14.624 0 26.464 11.808 26.464 26.464l0 158.688c0 14.624-11.84 26.464-26.464 26.464zM247.488 345.536c0-14.624-11.808-26.464-26.464-26.464l-52.896 0c-14.624 0-26.464 11.808-26.464 26.464l0 52.896c0 14.624 11.84 26.464 26.464 26.464l52.896 0c14.624 0 26.464-11.84 26.464-26.464l0-52.896zM908.736 742.304l-476.096 0c-14.624 0-26.464-11.84-26.464-26.464l0-52.896c0-14.624 11.808-26.464 26.464-26.464l476.096 0c14.624 0 26.464 11.808 26.464 26.464l0 52.896c0 14.624-11.808 26.464-26.464 26.464z"  horiz-adv-x="1024" />

    
    <glyph glyph-name="qingdan" unicode="&#58957;" d="M790.694885 682.690936l-560.567135 0c-28.141944 0-50.960649-22.817682-50.960649-50.960649l0-662.490479c0-28.141944 22.817682-50.960649 50.960649-50.960649l560.567135 0c28.141944 0 50.960649 22.818705 50.960649 50.960649L841.655534 631.730287C841.655534 659.872231 818.836829 682.690936 790.694885 682.690936zM790.694885 7.460294c0-21.113877-17.119913-38.22151-38.22151-38.22151L268.349259-30.761216c-21.126156 0-38.22151 17.107633-38.22151 38.22151L230.127749 593.508777c0 21.101597 17.095353 38.22151 38.22151 38.22151l484.125139 0c21.100574 0 38.22151-17.119913 38.22151-38.22151L790.695908 7.460294zM459.451692 504.327642l-152.881946 0 0-50.960649 152.881946 0L459.451692 504.327642zM561.371966 351.445696 306.569746 351.445696l0-50.960649 254.80222 0L561.371966 351.445696zM306.569746 147.602078l356.722494 0 0 50.960649L306.569746 198.562726 306.569746 147.602078z"  horiz-adv-x="1024" />

    
    <glyph glyph-name="icon1" unicode="&#58942;" d="M64.095295 831.974801l0-703.540408 895.472741 0L959.568037 831.974801 64.095295 831.974801zM895.442554 192.363402 127.833969 192.363402 127.833969 610.758514l383.985418-291.056935 0.014326 0.014326 0.014326-0.014326 383.594515 290.669102L895.442554 192.363402zM511.831666 409.300222 127.819642 700.384787l0.013303 67.781756 767.608585 0 0-68.181869L511.831666 409.300222z"  horiz-adv-x="1024" />

    
    <glyph glyph-name="tuding" unicode="&#58935;" d="M974.72-84.928l-301.952 380.864 161.6 151.936c0 0 17.28 63.424-30.72 67.328l-163.584-3.904-259.648 225.088-5.696 98.048c0 0-15.488 76.928-82.752 21.184l-276.928-275.072c0 0-9.6-74.944 59.584-69.248l75.008 0L367.104 255.55200000000002 376.63999999 97.856c0 0 19.19999999-57.728 69.24800001-36.608l146.176 148.16L974.72-84.928 974.72-84.928z"  horiz-adv-x="1024" />

    
    <glyph glyph-name="daohangtubiao" unicode="&#58963;" d="M910.222222 896 113.777778 896C50.944 896 0 845.056 0 782.222222l0-796.444444c0-62.833778 50.944-113.777778 113.777778-113.777778l796.444444 0c62.833778 0 113.777778 50.944 113.777778 113.777778L1024 782.222222C1024 845.056 973.056 896 910.222222 896zM535.239111-42.666667 483.555556 327.111111 85.333333 407.239111 881.777778 753.777778 535.239111-42.666667z"  horiz-adv-x="1024" />

    
    <glyph glyph-name="zhuce" unicode="&#59376;" d="M716.141912 602.038922c0-112.731504-91.39864-204.114794-204.114794-204.114794-112.747877 0-204.14754 91.38329-204.14754 204.114794S399.280264 806.186462 512.027118 806.186462C624.743272 806.186462 716.141912 714.770426 716.141912 602.038922zM234.660996-38.186462l554.666752 0c86.647429 0 190.585663 66.620303 166.960593 145.842623C913.526421 250.976334 696.872033 299.711292 512.027118 299.711292c-184.877661 0-401.596518-48.7851-444.326714-192.120622C44.108079 28.367327 148.046313-38.186462 234.660996-38.186462z"  horiz-adv-x="1024" />

    
    <glyph glyph-name="shuju8" unicode="&#59346;" d="M1002.602667-85.269333l-30.250667 0L972.352 513.109333c0 11.797333-9.536 21.354667-21.354667 21.354667l-206.634667 0c-11.818667 0-21.333333-9.557333-21.333333-21.354667l0-598.378667-60.544 0L662.485333 771.349333c0 11.797333-9.578667 21.376-21.376 21.376l-206.613333 0c-11.776 0-21.354667-9.578667-21.354667-21.376l0-856.618667-60.565333 0L352.576 384c0 11.776-9.557333 21.354667-21.354667 21.354667L124.650667 405.354667c-11.797333 0-21.376-9.557333-21.376-21.354667l0-469.269333L42.709333-85.269333 42.709333 874.645333C42.709333 886.442667 33.152 896 21.354667 896S0 886.442667 0 874.645333l0-981.269333C0-118.442667 9.557333-128 21.354667-128l103.296 0 206.592 0 103.274667 0 206.613333 0 103.253333 0 206.634667 0 51.626667 0c11.84 0 21.376 9.557333 21.354667 21.376C1023.978667-94.826667 1014.421333-85.269333 1002.602667-85.269333zM309.888-85.269333 146.026667-85.269333 146.026667 362.624l163.861333 0L309.888-85.269333zM619.754667-85.269333 455.893333-85.269333 455.893333 749.973333l163.861333 0L619.754667-85.269333zM929.642667-85.269333l-163.861333 0L765.781333 491.754667l163.861333 0L929.642667-85.269333z"  horiz-adv-x="1025" />

    
    <glyph glyph-name="dongtaiquan" unicode="&#58896;" d="M503.890298 453.585845c0.044002 0.064468 0.109494 0.13303 0.150426 0.197498-0.166799 0.808412-0.303922 1.515516-0.36532 2.02103C503.750105 455.070662 503.824807 454.326718 503.890298 453.585845L503.890298 453.585845 503.890298 453.585845zM661.20009 281.816736l0.007163 0.013303c0 0-0.092098 0.007163-0.102331 0.027629 0.020466-0.020466 0.071631-0.020466 0.071631-0.020466L661.20009 281.816736 661.20009 281.816736zM665.231917 281.311223c-0.976234 0.160659-3.167133-0.125867-4.030803 0.505513C660.671041 279.970692 661.470243 279.280983 665.231917 281.311223L665.231917 281.311223 665.231917 281.311223zM512.00307 793.603889c-226.216161 0-409.586492-183.370331-409.586492-409.579329S285.786908-25.561933 512.00307-25.561933c226.205928 0 409.579329 183.377494 409.579329 409.586492S738.208998 793.603889 512.00307 793.603889L512.00307 793.603889 512.00307 793.603889zM773.617439 633.603825c-14.110369-0.426719-23.937179-0.454348-35.275411-8.276501-4.567016-3.1569-7.66968-7.338129-13.464663-8.963139-5.201465-1.467421-10.813277-0.181125-15.969717-1.935072-18.608823-6.310729-15.659655-46.170552-40.177048-40.149419-11.519358 2.822278-19.639293 16.434298-25.435299 25.322735-5.109368 7.820106-14.410198 14.291494-8.123005 24.073278-2.867304-0.733711-5.921873 0.105401-8.741082-0.429789 3.925403 8.625448 17.10354 7.871271 19.291368 12.277628 5.457292 11.051707-15.031345 12.201903-20.827351 13.734816 6.990205 7.450692 10.529821-2.505054 17.435091-0.815575 6.632047 1.63115-3.501754 10.369162-7.478322 11.348466-1.430582 0.352017-24.789593-6.450922-11.270694 5.64558-16.687054 10.635221-33.366945 21.274536-50.058093 31.91692-2.808976-11.833513 22.212908-18.560728 30.384008-22.734794-1.269923-4.88424-8.871041-12.000312-14.690584-9.914814-5.487991 1.962701-3.263323 11.045567-11.539824 10.136871-5.91164-13.741979 12.498662-9.727549 14.208607-18.148335 1.942235-9.594519-6.962575-5.528923-10.379395-5.365194-0.819668 0.044002-7.202029 6.64842-7.54279 1.648546-0.419556-5.942339 10.174734-3.624551 10.921747-9.618055-12.334933-0.50142-18.632359 3.952009-28.678156 10.629081-11.724019 7.77508-17.73799 7.072069-32.101115 7.072069 4.293793 1.768273 10.212596 3.079128 13.885242 5.91471 2.006703 1.553379 9.877975 9.201569 10.399861 10.911514 2.221598 7.372921-0.122797 6.809079-7.17133 11.646248-6.27389 4.290723-13.875009 11.987009-21.468964 13.499455-27.526937 5.495154-8.488325-24.847921-29.381168-29.02915 0.358157-0.020466 0.740874-0.040932 1.050935-0.040932l-1.198292 0c0.058328 0.00307 0.095167 0.030699 0.146333 0.040932-4.833075 0.170892-13.891382 1.351787-17.007349-1.204431-2.198062-1.794879-2.379187-9.007141-4.840238-11.611455-4.372587-4.669346-10.891048-5.597485-16.109909-8.963139-5.091972-3.279696-16.321734-11.703553-19.314904-17.423835-11.028171-21.062711 24.844851-27.598568 38.442544-33.756825 6.139837-2.785439 24.090675-6.594185 27.438932-11.243065 4.485151-6.243191-3.867074-12.096503 5.498224-16.482393 2.990101-1.399883 9.16166-1.686409 11.734252 1.214664 4.188392 4.713348-1.699712 5.77861-2.699482 11.229762-1.949398 10.491958 1.255597 6.325056 6.529717 10.218736 10.758018 7.938809 8.331759 8.423857 4.464685 21.076014-1.794879 5.888104-8.574283 22.329565-2.614547 26.674523 7.77508 5.669116 24.352641-3.071965 30.316469-3.805676 6.939039-0.850367 10.870582-10.458189 14.652721-14.389732 2.512217-2.611477 7.000438-8.150634 11.390421-7.553023 6.965645 0.955768 4.048199 7.04444 8.092305 9.847276 10.829649 7.516184 13.68365-2.689249 18.000979-12.901845 4.061502-9.584286 7.90197-13.141298 15.133675-19.294438 3.358491-2.863211 18.072611-13.078877 16.687054-19.380396-0.945535-4.242627-17.752316-10.673084-22.25077-12.099572-16.431228-5.201465-47.249117 8.519024-50.559513-17.537422 6.376221 2.375094 24.50716 17.188474 29.943986 10.1645 2.478448-3.181459-1.962701-7.823176-0.921999-10.987239 3.102664-9.485025 10.420327-6.1777 18.090007-4.64581-0.525979-0.327458-1.061169-0.610914-1.62808-0.86674 10.485819 5.385661 9.389858 4.266164 14.205537 13.001105 1.563612 2.857071 3.904936 9.761318 6.116301 11.802814 7.614421 7.010671 8.789177 2.184759 13.505595-3.222391 1.239224-1.423419 12.904914-18.226107 8.751315-17.386996-13.571087 2.719948-26.598798 2.354628-37.859259-5.065366-6.484691-4.28356-12.618389-10.0591-20.36277-12.909008-1.860371-0.672312-15.60542-1.980097-13.977339 0.36225 2.372024 3.419889 10.536984 5.683443 13.755282 9.372461-8.925277 3.675716-16.376992-4.444219-23.390733-9.188266-7.447623-3.52222-9.174963-10.089799-15.516392-15.84385-2.768043-2.505054-8.003278-2.934842-10.714016-6.239098-2.635013-3.204995-2.969635-8.239662-5.464455-11.283997-1.750877-2.133593-6.243191-0.843204-8.071839-4.055362-2.38635-4.191462 2.180666-8.086166 1.177825-11.106965-1.829671-5.487991-12.273535-10.151197-16.287965-14.103206 0.539282 0.515746 1.068332 1.047866 1.597381 1.587148-4.027733-4.222161-9.123798-7.327896-12.263301-12.216229 1.443885-6.898107 5.990434-23.349801 4.727675-27.13501-4.188392-12.447497-12.3247 6.77224-15.615653 11.741415-11.328 17.065677-33.967626 5.64558-49.440016 4.232394-19.779486-1.809205-39.155788-27.486004-26.953885-48.323589 5.860475-9.993608 15.71082-13.860682 27.012214-11.546987 10.06217 2.054799 13.078877 16.127306 22.554692 16.390295 17.403369 0.460488 0.382717-17.062608-1.12666-23.493064-1.39272-5.952572 2.170432-6.509251 8.30106-7.983835 4.532223-1.081635 10.942213 1.942235 14.867616-0.644683 2.468215-1.63115 2.354628-10.570753 5.755074-7.754614-6.699586-5.54939-5.133927-18.703991 1.727341-23.459295 7.614421-5.27719 16.57449-0.39295 24.548092-2.420119 15.041578-3.839445 7.860015 1.147126 21.069875 9.123798 8.915044 5.369288 10.379395-1.017166 16.47216-1.040702 4.1536-0.013303 6.785543 5.965875 13.71435 4.225231 5.65172-1.423419 7.887644-5.785773 14.639418-6.792707 2.764973-0.409322 5.625114 1.040702 8.260128 0.751107 12.488429-1.385557 22.038946-9.362228 31.879058-16.57449 8.103562-5.935176 13.474896-4.733814 22.943548-7.440459 6.918573-1.976004 19.684318-11.983939 19.032472-20.773116-0.119727-1.569752-6.167466-9.471722-7.197936-13.034874 1.771343-1.224898 14.07967 1.52268 17.680684 1.784646-1.180895-1.379417-9.56689-7.27366-9.56689-4.14746 0-1.597381 5.935176-4.891404 7.372921-5.91471 4.378727 14.198374 11.56029 5.061272 20.206204 1.543146 7.352455-2.990101 16.397459-3.1569 24.233937-5.01727 6.658653-1.587148 21.328771-6.078439 26.261107-11.516288 5.935176-6.54609 1.832741-17.182334-2.560312-23.694655-5.747911-8.53642-14.410198-11.82328-17.990746-21.861914-2.832512-7.959276-0.710175-16.001439-2.328022-24.830525-2.184759-11.938913-3.938706-7.757684-11.636015-15.041578-6.468318-6.139837-0.109494-5.075599-8.915044-8.983605-8.857738-3.938706-16.649192-2.76088-22.779819-12.478196 0.245593 0.607844 0.447185 1.224898 0.618077 1.860371-2.586918-3.614317-3.880377-11.028171-5.106298-13.458523-3.092431-6.208399-7.352455-10.123568-12.239765-15.291265-1.870604-1.976004-19.089777-25.502837-20.086477-23.612791-1.276063 2.457981-14.854313-2.464121-15.502066 1.040702 0.542352-2.946099-0.12689-1.962701 3.242857-3.65525-3.120061-19.332301-11.2973-22.217001-30.281677-22.411429 1.62808-9.293667-6.880711-7.440459-10.836813-12.437264-2.313695-2.915399-3.416819-11.117199-5.02034-14.895245-0.99977-2.375094-8.410554-11.881608-8.410554-13.765515-0.007163-1.737574 2.491751-4.276397 4.833075-6.713912-13.382798-2.648316-27.02961-4.495384-40.890292-5.621021 2.594081 3.269463 3.218298 6.14393-5.047969 6.535857 2.215458 6.006807 7.40976 9.43079 9.607822 15.260565 1.044796 2.747577 0.181125 3.833305 1.065262 6.54609 3.0208 9.400091 1.713015 5.847172 0.007163 13.154601-3.992941 17.096377 1.420349 21.775956 6.082532 37.425378 4.78498 16.089443 4.341888 36.951587 7.40362 54.276161 1.457188 8.293897 3.836375 25.550932 0.958838 33.394574-3.245927 8.822946-17.520025 15.775288-24.059975 21.717627-9.256828 8.43409-14.174837 17.547655-21.049409 27.967982-3.491521 5.300726-7.468089 10.488889-10.188037 16.247033-5.822612 12.311397 0.00307 4.979408 0.986467 12.246929 0.935302 7.017834-0.840134 13.294794 1.945305 20.663622 3.085268 8.143471 10.778484 13.223163 13.311167 21.428032 2.273786 7.317663 0.542352 16.505929-6.969739 18.946514-4.188392 1.36509-8.809643-1.784646-13.011338-1.095961-5.863545 0.952698-12.502755 5.328355-17.10354 8.826016-6.427386 4.901637-8.833179 12.853749-15.677051 17.492396-5.727445 3.867074-9.79918 1.553379-15.925714 3.365654-6.392594 1.880837-10.338463 9.765411-15.492856 12.232602-7.734148 3.700275-12.093433-1.617847-20.260439-0.539282-6.946202 0.911766-17.537422 8.600889-24.022113 11.516288-13.195533 5.901407-21.230534 12.420891-26.503631 25.806759-4.51892 11.488659-11.106965 16.84055-18.86465 26.4013-7.853875 9.69685-10.314926 17.952884-22.431895 20.530592-1.416256 0.314155 2.962471-10.1645 3.419889-11.010775 4.324492-8.010441 10.82658-15.335267 16.055674-22.797215 7.693216-10.990309 4.41352-13.052271-3.409656-2.423189-8.952906 12.157901-19.335371 24.24724-27.097148 37.125549-2.931772 4.863774-2.364861 8.014534-7.205099 12.628622-4.676509 4.470825-10.79895 6.64535-15.509229 10.887978-16.939811 15.236006-20.022009 35.582403-18.090007 57.296961 0.63138 7.079232 3.187599 12.745279 2.057869 19.547195-0.928139 5.64865-4.266164 10.32516-8.43102 14.488992-1.344624 2.136663-4.720511 7.40669-4.91187 7.741311-3.846608 6.392594-6.839779 12.676717-12.94994 17.919115-3.501754 3.0208-12.577456 10.072403-21.113877 15.984043 38.364773 47.855938 88.575338 85.783759 146.176221 109.327988 0.454348-2.89391 1.696642-5.788843 3.560082-8.553817 4.736884-7.020904 9.249665-6.468318 18.492166-8.40646-0.99363-10.734482-13.530155-10.816347-22.018479-9.655917-10.133801 1.39579-20.793582 4.758374-29.568433-4.119831 4.846378-2.914376 18.151405-14.266935 16.383132-2.405793 9.704013 0.485047 19.086707 0.771573 28.585035-0.388856 3.805676-0.464581 16.554024-4.744048 20.007683-2.791579 1.454118 0.822738 2.997264 7.969509 4.529153 10.177803-2.706645-0.020466-5.607718 1.351787-8.3072 1.091868 6.290263 8.051373 12.55392 1.730411 20.557198-1.969864-8.80555-5.354961-3.580548-18.185174 5.034666-7.764847 7.072069 8.574283-1.730411 14.792914-10.717086 19.789719 9.058306 11.332093 14.649652 12.355399 23.171746-0.433882 1.406023 7.884574 7.767917 4.727675 14.420431 4.14746l0 1.972934c-2.924609-0.074701-6.04774 1.614777-8.952906 1.310855 6.77838 10.809183 2.453888 13.284561 12.140505 16.812921 7.720845 2.808976 29.735232 0.191358 32.44597 7.444553-15.406898-2.990101-34.015721-3.710508-47.917336-10.714016-5.996574-3.01773-13.134135-12.55699-19.120476-6.361895-6.136767 6.361895 4.38589 16.584724 9.768481 19.700691l-1.283226 0c24.3772 5.188162 49.624211 7.966439 75.524091 7.966439 16.738219 0 33.18275-1.239224 49.327452-3.440355-5.584182-2.934842-1.451048-4.91494-5.519714-7.915273-7.767917-5.714142-21.568225-10.485819-30.817889-14.096043 11.754718 0.030699 40.21798-11.025101 45.688575 5.467525-3.792373 0.580215-7.580652 1.163499-11.369955 1.747807 7.082302 4.696975 14.984273 8.498558 23.281239 11.287067 74.857918-14.830777 141.442406-52.801577 192.104249-106.08206C774.327614 633.603825 773.968433 633.618151 773.617439 633.603825L773.617439 633.603825 773.617439 633.603825zM839.905168 489.799628c0.679475 1.443885 2.249227 1.914606 2.901073 3.102664 1.36816 2.498914 1.064238 4.198625 2.747577 6.335289 1.798972 2.313695 4.239558 2.883677 6.253424 4.689812 0.809435 0.730641 1.26276 1.406023 1.63115 2.098801 6.04467-16.864086 10.857279-34.296107 14.359033-52.197826-0.102331-0.125867-0.166799-0.321318-0.300852-0.426719-0.873903-0.699941-6.617721-1.549286-7.795547-1.590218-4.157693-0.160659-7.242961 2.597151-10.225899 5.195326-3.044336 2.635013-6.607488 6.167466-8.768711 9.584286-2.310625 3.641947-0.884137 7.389294-0.716314 11.55722C840.123133 481.652064 838.420351 486.645798 839.905168 489.799628L839.905168 489.799628 839.905168 489.799628zM844.594981 302.009637c-7.0383 6.109138-15.338337 14.304797-20.339234 22.220071-5.341658 8.444323-2.047636 17.127076-1.658779 26.797319 0.324388 8.127098-3.645017 19.700691-0.191358 27.022447 1.587148 3.341095 5.218862 4.447289 6.716982 7.187703 3.181459 5.796006 2.478448 9.714246 6.379291 14.700817 4.187369 5.354961 9.819646 6.67298 14.485923 10.867512 4.88731 4.406356 4.748141 7.877411 7.846712 13.515828 2.25946 4.126994 7.587815 11.007705 12.621459 14.601556 2.730181-17.901719 4.1536-36.248575 4.1536-54.897308 0-32.278147-4.290723-63.563688-12.242835-93.371574C855.581196 292.404885 850.004177 297.295266 844.594981 302.009637L844.594981 302.009637 844.594981 302.009637zM844.594981 302.009637"  horiz-adv-x="1024" />

    
    <glyph glyph-name="068zhanghuanquan" unicode="&#58949;" d="M910.448316 755.384425l0-455.302697c0-27.316136-6.67298-54.452169-19.920702-81.486896-13.265118-27.01426-30.673603-53.205782-52.220339-78.612429-21.487384-25.406646-46.109154-49.406247-73.707722-72.079642-27.637454-22.673395-55.616692-42.87346-84.039022-60.603263-28.440749-17.749246-56.08025-32.521694-82.893942-44.221154-26.794249-11.738345-50.290383-19.798928-70.511937-24.159236l-9.547447-1.629103-8.804527 1.629103c-20.702508 4.361331-44.762483 12.421914-72.119551 24.159236-27.376511 11.69946-55.797817 26.471908-85.304851 44.221154-29.467125 17.72878-58.411341 37.928844-86.833671 60.603263-28.421306 22.672372-53.788044 46.671972-76.119655 72.079642-22.331611 25.406646-40.401152 51.598168-54.17076 78.612429-13.749142 27.034726-20.702508 54.17076-20.702508 81.486896L113.551684 755.384425l32.682353 4.925173L512.843716 830.709995l373.764636-70.40142L910.448316 755.384425 910.448316 755.384425 910.448316 755.384425zM512.904091 764.840798l-4.420683 0.904603-314.611397-54.963823 0-287.304472 319.03208 0L512.904091 764.840798 512.904091 764.840798 512.904091 764.840798zM830.146409 423.477107 512.904091 423.477107l0-408.900877c20.422122 4.804423 42.632983 12.201903 66.592674 22.050202 23.940249 9.889231 47.617507 21.588691 70.954005 35.074843 23.336498 13.547551 45.889143 28.54308 67.475787 45.045939 21.60711 16.522302 40.74396 34.251082 57.426921 53.16485s29.92966 38.572504 39.898709 58.993602c9.909697 20.422122 14.894222 41.12463 14.894222 62.170968L830.146409 423.477107 830.146409 423.477107 830.146409 423.477107zM830.146409 423.477107"  horiz-adv-x="1024" />

    
    <glyph glyph-name="mima1" unicode="&#59028;" d="M820.113-61.036h-615.358c-14.145 0-25.611 11.466-25.611 25.611l0 478.577c0 14.145 11.467 25.611 25.611 25.611h615.357c14.145 0 25.611-11.467 25.611-25.611v-478.577c0.001-14.145-11.465-25.611-25.61-25.611zM230.367-9.813h564.133l-0 427.354h-564.133v-427.354zM545.456 60.748h-66.074c-14.145 0-25.611 11.466-25.611 25.611v91.517c-22.774 17.824-36.411 45.075-36.411 74.246 0 52.275 42.65 94.803 95.074 94.803 52.411 0 95.049-42.529 95.049-94.803 0-29.157-13.639-56.407-36.414-74.241v-91.522c-0.001-14.145-11.467-25.611-25.612-25.611zM504.994 111.971h14.851v79.622c0 9.377 5.124 18.004 13.357 22.49 14.222 7.749 23.057 22.324 23.057 38.039 0 24.029-19.66 43.58-43.825 43.58-24.179 0-43.851-19.549-43.851-43.58 0-15.724 8.829-30.297 23.042-38.033 8.24-4.484 13.368-13.114 13.368-22.495l0-79.623zM778.866 417.528c-14.145 0-25.611 11.467-25.611 25.611 0 37.637-0.007 94.438-0.026 97.483 0 0.019-0.001 0.039-0.001 0.058-1.402 130.899-109.422 237.395-240.794 237.395-131.73 0-239.749-106.744-240.849-237.963v-96.973c0-14.145-11.467-25.611-25.611-25.611s-25.611 11.467-25.611 25.611l0 97.064c0 0.068 0 0.134 0 0.202 0.61 77.312 31.27 149.896 86.333 204.383 55.075 54.497 128.141 84.51 205.739 84.51 77.434 0 150.387-29.915 205.421-84.234 55.015-54.301 85.767-126.69 86.594-203.834h-0.003c0.014-2.079 0.032-14.243 0.032-98.089 0-14.145-11.466-25.612-25.611-25.612z"  horiz-adv-x="1024" />

    
    <glyph glyph-name="weibiaoti35" unicode="&#58941;" d="M962.4 584 736 357.6c-16-16-40.8-16-56.8 0L453.6 584c-16 16-16 40.8 0 56.8L680 866.4c16 16 40.8 16 56.8 0L962.4 640C978.4 624.8 978.4 599.2 962.4 584zM380-76l-320 0c-22.4 0-40 17.6-40 40l0 320c0 22.4 17.6 40 40 40l320 0c22.4 0 40-17.6 40-40l0-320C420-58.4 402.4-76 380-76zM380 404l-320 0c-22.4 0-40 17.6-40 40l0 320c0 22.4 17.6 40 40 40l320 0c22.4 0 40-17.6 40-40l0-320C420 421.6 402.4 404 380 404zM540 324l320 0c22.4 0 40-17.6 40-40l0-320c0-22.4-17.6-40-40-40l-320 0c-22.4 0-40 17.6-40 40l0 320C500 306.4 517.6 324 540 324z"  horiz-adv-x="1024" />

    
    <glyph glyph-name="xianxiaquan" unicode="&#58959;" d="M1010.964306 368.492363l-509.396061 509.46006c-8.895792 11.167738-21.503496 18.047577-35.83916 18.047577l-421.398123 0c-24.511426 0-44.318961-19.807536-44.318961-44.350961l0-421.398123c0-14.367663 6.911838-27.007367 17.50359-35.103177 0.223995-0.223995 510.036046-510.164043 510.036046-510.164043 17.279595-17.311594 45.374937-17.311594 62.686531 0l420.758138 420.758138c17.279595 17.343594 17.279595 45.438935-0.031999 62.71853zM177.383843 674.213198c-36.735139 0-66.526441 29.791302-66.526441 66.526441 0.031999 36.767138 29.791302 66.526441 66.526441 66.526441s66.55844-29.791302 66.55844-66.526441c0-36.70314-29.791302-66.526441-66.55844-66.526441z"  horiz-adv-x="1024" />

    
    <glyph glyph-name="fangzi" unicode="&#58897;" d="M423.23842 6.763286l0 266.284739 177.523159 0 0-266.284739 221.903949 0L822.665529 361.809605l133.142369 0L512 761.237737 68.191078 361.809605l133.142369 0 0-355.047342L423.23842 6.762263z"  horiz-adv-x="1024" />

    
    <glyph glyph-name="xiaoshou2" unicode="&#58908;" d="M429.32965 495.23236c-15.135722-8.840342-20.306488-28.479635-11.550057-43.802622 8.715499-15.344476 28.063149-20.59813 43.198871-11.738345 15.135722 8.860808 20.326954 28.459169 11.592013 43.803645C463.854978 498.859981 444.466396 504.092146 429.32965 495.23236zM819.658544 568.118368 542.141996 718.977237c-9.402137 5.086855-19.72218 7.67275-30.042223 7.67275-10.340509 0-20.660552-2.584871-30.063713-7.67275L204.476533 568.034457c-20.911262-11.341303-33.982976-33.607422-33.982976-57.875129l0-292.628734c0-24.246217 13.071713-46.512337 34.004465-57.895595l277.538037-150.838404c9.402137-5.107321 19.72218-7.671727 30.042223-7.671727 10.340509 0 20.640086 2.564405 30.063713 7.671727L819.680033 159.697421c20.912285 11.404748 33.983999 33.649378 33.983999 57.896618L853.664032 510.243239C853.664032 534.467967 840.591295 556.73511 819.658544 568.118368zM650.22155 280.972509 503.63396 196.265268c-18.033725-10.444886-28.770254 8.193613-28.770254 8.193613l-105.953124 183.737698c0 0-12.467963 17.637706-2.210341 46.867424 0 0 25.810852 73.261561 31.752168 85.270059 5.275143 10.674107 14.323217 15.531741 25.059745 14.092973 6.151094-0.833995 89.754187-14.614859 89.754187-14.614859s26.311249-3.898797 38.862099-25.706475l106.119923-184.007851C668.839583 291.750993 650.388349 280.702356 650.22155 280.972509z"  horiz-adv-x="1024" />

    
    <glyph glyph-name="xiazai6" unicode="&#58929;" d="M324.211517 384.194369 787.889594 822.917417c16.19422 16.630365 16.19422 43.974704 0 60.605068-16.19422 16.630365-42.495607 16.630365-58.613976 0L235.750113 416.639698c-8.647031-8.969398-12.344775-20.934917-11.719003-32.445329-0.644735-11.90863 3.071972-23.874149 11.719003-32.824585l493.506542-466.882788c16.118369-16.649327 42.438718-16.649327 58.613976 0 16.19422 17.085471 16.19422 43.974704 0 60.605068L324.211517 384.194369"  horiz-adv-x="1024" />

    
    <glyph glyph-name="ai-safe" unicode="&#58981;" d="M944.103 815.287l-432.2 80.713-423.917-80.713-37.781-5.653v-521.812c0-31.293 7.971-62.415 24.005-93.353 15.946-31.032 36.816-60.992 62.621-90.11 25.801-29.070 55.156-56.625 88.007-82.578 32.899-26.002 66.348-49.153 100.451-69.455 34.094-20.342 66.948-37.26 98.603-50.704 31.654-13.446 59.439-22.66 83.401-27.69l10.133-1.874 11.063 1.874c23.358 5.031 50.544 14.244 81.554 27.69 31.013 13.444 62.941 30.361 95.84 50.704 32.858 20.301 65.247 43.454 97.227 69.455 31.927 25.948 60.359 53.508 85.24 82.578 24.882 29.117 44.975 59.077 60.363 90.11 15.342 30.938 23.040 62.060 23.040 93.353v521.813l-27.649 5.652zM878.857 277.541c0-24.081-5.713-47.855-17.232-71.231-11.476-23.417-26.819-45.94-46.076-67.581-19.305-21.682-41.378-42.024-66.395-60.944-25.024-18.921-51.008-36.105-78.058-51.6-26.998-15.49-54.367-28.893-82.064-40.247-27.737-11.348-53.401-19.763-76.998-25.285v468.612l-368.94-0v329.214l363.831 62.997 5.113-1.019v-391.189h366.818l0.002-151.727z"  horiz-adv-x="1024" />

    
    <glyph glyph-name="fenlei" unicode="&#58968;" d="M372.374696 802.84581q25.491887 0 43.61527-17.653053t18.123383-43.113585l0-244.979227q0-25.491887-18.123383-43.61527t-43.61527-18.123383l-244.979227 0q-25.491887 0-43.113585 18.123383t-17.653053 43.61527l0 244.979227q0 25.491887 17.653053 43.113585t43.113585 17.653053l244.979227 0zM372.374696 312.918711q25.491887 0 43.61527-17.653053t18.123383-43.113585l0-245.951242q0-25.491887-18.123383-43.113585t-43.61527-17.653053l-244.979227 0q-25.491887 0-43.113585 17.653053t-17.653053 43.113585l0 245.951242q0 25.491887 17.653053 43.113585t43.113585 17.653053l244.979227 0zM863.27381 312.918711q25.491887 0 43.113585-17.653053t17.653053-43.113585l0-245.951242q0-25.491887-17.653053-43.113585t-43.113585-17.653053l-244.979227 0q-25.491887 0-43.61527 17.653053t-18.123383 43.113585l0 245.951242q0 25.491887 18.123383 43.113585t43.61527 17.653053l244.979227 0zM999.481383 695.077526q19.597084-19.597084 19.597084-46.060986t-19.597084-45.088971l-182.268558-182.268558q-19.597084-19.597084-45.559301-19.597084t-45.559301 19.597084l-182.268558 182.268558q-18.625069 18.625069-18.625069 45.088971t18.625069 46.060986l182.268558 182.268558q19.597084 18.625069 45.559301 18.625069t45.559301-18.625069z"  horiz-adv-x="1024" />

    
    <glyph glyph-name="zhongxin" unicode="&#58911;" d="M212 324 32 324C32 555.96 220.04 744 452 744L692 744 692 864 992 654 692 444 692 564 452 564C319.64 564 212 456.36 212 324L212 324ZM572 204 332 204 332 324 32 114 332-96 332 24 572 24C803.96 24 992 212.04 992 444L812 444C812 311.7 704.3 204 572 204L572 204Z"  horiz-adv-x="1024" />

    
    <glyph glyph-name="triangle-up" unicode="&#59004;" d="M27.273 142.387l485.222 484.233 484.233-485.222z"  horiz-adv-x="1024" />

    
    <glyph glyph-name="yewuyingyong" unicode="&#59124;" d="M948.271 701.153v-188.272h-878.603v188.272h878.603zM948.271 450.123v-188.272h-878.603v188.272h878.603zM948.271 199.097v-188.272h-878.603v188.272h878.603zM132.427 575.639h502.058v62.756h-502.058v-62.756zM132.427 324.609h502.058v62.756h-502.058v-62.756zM132.427 73.581h502.058v62.757h-502.058v-62.757zM887.472 573.677c9.147 9.147 13.728 20.261 13.728 33.341 0 13.070-4.581 24.187-13.728 33.341-9.154 9.147-20.272 13.728-33.341 13.728-13.075 0-24.193-4.581-33.341-13.728-9.154-9.154-13.726-20.272-13.726-33.341 0-13.076 4.571-24.194 13.726-33.341 9.147-9.154 20.265-13.728 33.341-13.728 13.070 0 24.187 4.572 33.341 13.728zM887.472 322.65c9.147 9.147 13.728 20.261 13.728 33.341 0 13.070-4.581 24.187-13.728 33.341-9.154 9.147-20.272 13.728-33.341 13.728-13.075 0-24.193-4.581-33.341-13.728-9.154-9.154-13.726-20.272-13.726-33.341 0-13.075 4.571-24.193 13.726-33.341 9.147-9.154 20.265-13.728 33.341-13.728 13.070 0 24.187 4.572 33.341 13.728zM887.472 71.619c9.147 9.147 13.728 20.261 13.728 33.341 0 13.070-4.581 24.182-13.728 33.339-9.154 9.147-20.272 13.728-33.341 13.728-13.075 0-24.193-4.581-33.341-13.728-9.154-9.154-13.726-20.27-13.726-33.339 0-13.076 4.571-24.194 13.726-33.341 9.147-9.154 20.265-13.728 33.341-13.728 13.070-0.001 24.187 4.572 33.341 13.728z"  horiz-adv-x="1024" />

    
    <glyph glyph-name="ruiqiye2" unicode="&#58945;" d="M807.821 532.9449999999999h66.198v-66.331h-66.198v66.331zM807.821 333.822h66.198v-66.331h-66.198v66.331zM807.821 135.89h66.198v-66.331h-66.198v66.331zM1006.415 3.3619999999999663v661.98h-264.791v198.594h-529.584v-860.574h-66.198v-66.198h926.771v66.198h-66.198zM278.237 3.3619999999999663v794.375h397.188v-794.375h-397.188zM741.622 3.3619999999999663v595.781h198.594v-595.781h-198.594zM543.029 532.681h66.198v-66.331h-66.198v66.331zM543.029 731.473h66.198v-66.265h-66.198v66.265zM344.435 731.539h132.396v-66.265h-132.396v66.265zM344.435 532.681h132.396v-66.331h-132.396v66.331zM344.435 333.822h132.396v-66.331h-132.396v66.331zM344.435 135.82399999999996h132.396v-66.265h-132.396v66.265zM543.029 333.822h66.198v-66.331h-66.198v66.331zM543.029 135.89h66.198v-66.265h-66.198v66.265z"  horiz-adv-x="1141" />

    
    <glyph glyph-name="shujuku" unicode="&#58912;" d="M870.4 838.4C780.8 876.8 652.8 896 512 896 371.2 896 243.2 876.8 153.6 838.4 51.2 793.6 0 742.4 0 684.8l0-595.2c0-57.6 51.2-115.2 153.6-153.6C243.2-108.8 371.2-128 512-128c140.8 0 268.8 19.2 358.4 57.6 96 38.4 153.6 96 153.6 153.6L1024 684.8C1024 742.4 972.8 793.6 870.4 838.4L870.4 838.4zM812.8 576C729.6 544 614.4 531.2 512 531.2 403.2 531.2 294.4 544 211.2 576 115.2 601.6 70.4 640 70.4 684.8c0 38.4 51.2 76.8 140.8 108.8C294.4 819.2 403.2 832 512 832c102.4 0 217.6-19.2 300.8-44.8 89.6-32 140.8-70.4 140.8-108.8C953.6 640 908.8 601.6 812.8 576L812.8 576zM819.2 390.4C736 364.8 620.8 345.6 512 345.6c-108.8 0-217.6 19.2-307.2 44.8C115.2 422.4 64 460.8 64 499.2L64 569.6C128 544 172.8 512 243.2 499.2 326.4 480 416 467.2 512 467.2c96 0 185.6 12.8 268.8 32C851.2 512 896 544 960 569.6l0-76.8C960 460.8 908.8 422.4 819.2 390.4L819.2 390.4zM819.2 185.6c-83.2-25.6-198.4-44.8-307.2-44.8-108.8 0-217.6 19.2-307.2 44.8C115.2 211.2 64 249.6 64 294.4L64 390.4c64-32 108.8-57.6 179.2-76.8C326.4 294.4 416 281.6 512 281.6c96 0 185.6 12.8 268.8 32C851.2 332.8 896 358.4 960 390.4l0-96C960 249.6 908.8 211.2 819.2 185.6L819.2 185.6zM512-64c-108.8 0-217.6 19.2-307.2 44.8C115.2 6.4 64 44.8 64 83.2l0 96c64-32 108.8-57.6 179.2-76.8 76.8-19.2 172.8-32 262.4-32 96 0 185.6 12.8 268.8 32 76.8 19.2 121.6 44.8 185.6 76.8l0-96c0-38.4-51.2-76.8-140.8-108.8C736-51.2 614.4-64 512-64L512-64zM512-64"  horiz-adv-x="1024" />

    
    <glyph glyph-name="nan" unicode="&#58982;" d="M434.537424 553.404617c-138.75727 0-251.523134-111.435595-251.523134-248.555611 0-137.017688 112.868192-248.453283 251.523134-248.453283 138.654942 0 251.625462 111.537923 251.625462 248.453283C686.060558 441.969022 573.192365 553.404617 434.537424 553.404617L434.537424 553.404617zM957.230738 490.370341 838.120516 490.370341 838.120516 623.806535l-104.579594-103.351654c44.819826-60.476067 71.629859-134.868792 71.629859-215.503548 0-201.893874-166.181273-366.130908-370.633357-366.130908-204.349755 0-370.633357 164.237034-370.633357 366.130908 0 201.893874 166.283601 366.233237 370.633357 366.233237 79.918457 0 153.697212-25.377436 214.275607-67.946038l112.663536 111.333267L609.825922 714.5718l0 117.677626 347.404817 0L957.230738 490.370341 957.230738 490.370341 957.230738 490.370341z"  horiz-adv-x="1024" />

    
    <glyph glyph-name="zhankai1" unicode="&#58970;" d="M139.007 560.7180000000001c-15.13 0-27.39500001 12.267-27.395 27.397L111.612 766.168c0 15.13 12.265 27.395 27.395 27.395L317.062 793.563c15.12500001 0 27.395-12.265 27.395-27.395l0-178.052c0-15.13-12.27-27.397-27.39500001-27.397L139.007 560.719zM317.987 267.602l-178.055 0c-15.13 0-27.39 12.26-27.39 27.39L112.542 473.04399999c0 15.13 12.26 27.395 27.39 27.39500001L317.987 500.439c15.13 0 27.39-12.265 27.39-27.395l0-178.052C345.377 279.86199999999997 333.117 267.597 317.987 267.602L317.987 267.602zM139.947-25.96799999999996c-15.13 0-27.395 12.265-27.39500001 27.4L112.552 179.47699999999998c0 15.12500001 12.26500001 27.4 27.395 27.40000001L317.997 206.87700000999996c15.13 0 27.395-12.275 27.395-27.40000001l0-178.044c0-15.135-12.26500001-27.4-27.395-27.4L139.947-25.966999999999985zM608.854 559.77599999l-178.047 0c-15.135 0-27.4 12.27-27.4 27.397L403.407 765.225c0 15.13 12.265 27.395 27.4 27.395L608.854 792.62c15.127 0 27.395-12.265 27.395-27.395l0-178.052C636.249 572.046 623.98099999 559.7760000000001 608.854 559.77599999L608.854 559.77599999zM723.463 266.65700001000005c-15.127 0-27.392 12.26-27.392 27.38999999L696.071 472.101c0 15.13 12.265 27.395 27.392 27.395L901.51799999 499.496c15.127 0 27.392-12.265 27.39200001-27.39500001l0-178.05499999c0-15.13-12.265-27.39-27.392-27.39L723.463 266.65599999999995zM431.747-26.91300000000001c-15.135 0-27.4 12.27-27.4 27.395L404.347 178.53700000000003c0 15.12500001 12.265 27.39 27.4 27.38999999L609.794 205.92699999c15.127 0 27.395-12.265 27.395-27.38999999l0-178.055c0-15.12500001-12.267-27.39500001-27.395-27.395L431.747-26.91300000000001zM432.17200001 266.197c-15.13 0-27.395 12.265-27.39500001 27.395l0 178.05c0 15.13 12.265 27.395 27.395 27.395L610.219 499.037c15.13 0 27.395-12.265 27.395-27.395l0-178.05c0-15.13-12.265-27.395-27.39499999-27.395L432.17200001 266.197z"  horiz-adv-x="1024" />

    
    <glyph glyph-name="fenlei11" unicode="&#58985;" d="M889.183 695.041 144.095 695.041c-8.095 0-14.655-6.56-14.655-14.655l0-67.777c0-8.095 6.56-14.655 14.655-14.655l745.053 0c8.1 0 14.66 6.56 14.66 14.655l0 67.777C903.838 688.481 897.278 695.041 889.183 695.041zM889.183 420.416 144.095 420.416c-8.095 0-14.655-6.56-14.655-14.655l0-67.775c0-8.095 6.56-14.655 14.655-14.655l745.053 0c8.1 0 14.66 6.56 14.66 14.655l0 67.775C903.838 413.856 897.278 420.416 889.183 420.416zM889.183 175.172 144.095 175.172c-8.095 0-14.655-6.56-14.655-14.66l0-67.775c0-8.095 6.56-14.655 14.655-14.655l745.053 0c8.1 0 14.66 6.56 14.66 14.655l0 67.775C903.838 168.612 897.278 175.172 889.183 175.172z"  horiz-adv-x="1024" />

    
    <glyph glyph-name="beian" unicode="&#58953;" d="M763.456009 823.749466l128.519072-160.251797 0-192.778608c-14.813381-97.851609-43.11189-176.911222-84.886319-237.204423-41.785685-60.293201-85.022419-106.838284-129.709177-139.625014-44.699038-32.786731-101.681844-60.292178-170.96172-82.506109-85.158519 29.092595-152.591327 69.142753-202.298426 120.188336-49.719378 51.033303-87.402629 101.409644-113.048729 151.127999-25.659403 49.707099-45.889143 111.325481-60.689221 184.844915L130.381489 688.883849 265.247106 823.749466 763.456009 823.749466zM720.616318 469.925998c3.694135 5.813403 7.79657 12.023848 12.296047 18.643616 4.487198 6.606465 9.122775 13.610996 13.883195 21.022803-35.43914 1.587148-68.499094 5.02034-99.165534 10.31288-30.679743 5.28026-58.979276 12.420891-84.886319 21.419845 24.319895 12.69309 46.136783 26.576285 65.449641 41.649586 19.300578 15.0733 36.096103 31.336706 50.376341 48.789193l0 30.939663L426.292989 662.703583c3.694135 5.813403 7.40055 11.502985 11.106965 17.056468 3.694135 5.553483 7.40055 11.230786 11.106965 17.056468l-34.905998 15.0733c-14.813381-26.452465-32.79901-51.838645-53.945633-76.159564-21.159926-24.333198-45.753043-47.599088-73.779354-69.813019 4.227278-3.706415 8.590656-7.67275 13.090133-11.900028 4.487198-4.239558 8.850575-8.726755 13.090133-13.486152 14.280238 12.159948 28.02631 24.593118 41.252543 37.286208 13.213953 12.69309 25.647123 25.647123 37.286208 38.873356 10.573823-14.280238 23.00597-27.76639 37.286208-40.45948s30.667463-24.333198 49.186236-34.905998c-28.559453-11.106965-59.636239-20.762883-93.216032-28.956495-33.592073-8.205892-69.689199-15.2094-108.289332-21.022803 3.694135-5.825682 7.139607-11.502985 10.31288-17.056468 3.173273-5.553483 6.074346-10.982122 8.726755-16.263405 43.893696 7.40055 84.489276 16.263405 121.775484 26.576285 37.286208 10.31288 71.263044 22.076808 101.942787 35.303041 27.493168-11.639085 58.036811-21.555945 91.628884-29.749558C643.527592 481.949846 680.416757 475.206258 720.616318 469.925998L720.616318 469.925998zM678.56969 247.001813l0 217.370703L346.960153 464.372515l0-217.370703 33.319873 0 0 20.626783 264.970814 0 0-20.626783L678.56969 247.001813zM380.280026 436.606125l0-57.119929 115.825982 0 0 57.119929L380.280026 436.606125zM380.280026 295.393963l115.825982 0 0 57.119929L380.280026 352.513892 380.280026 295.393963zM419.946444 632.558006l209.438033 0c-15.3455-14.280238-32.129768-27.64257-50.376341-40.062438-18.246573-12.43317-38.476313-23.676236-60.689221-33.715893-20.10592 9.519818-38.476313 20.35356-55.135738 32.526811C446.52273 603.46541 432.106392 617.211483 419.946444 632.558006L419.946444 632.558006zM529.424858 436.606125l0-57.119929 115.825982 0 0 57.119929L529.424858 436.606125zM529.424858 295.393963l115.825982 0 0 57.119929L529.424858 352.513892 529.424858 295.393963z"  horiz-adv-x="1024" />

    
    <glyph glyph-name="dizhi1" unicode="&#58923;" d="M1093.871347 695.435055c0.233314-2.166339 0.668219-4.331655 0.671289-6.497994 0.135076-125.785821 0.246617-251.572666 0.294712-377.35951 0.002047-5.060249-0.629333-10.121522-0.966001-15.182794C1093.871347 429.408189 1093.871347 562.421622 1093.871347 695.435055zM529.6111 818.241009c17.880229-3.312442 36.235272-5.027503 53.561893-10.1952 118.913297-35.4637 188.506305-116.743888 214.019375-236.338706 13.666254-64.065108-3.25923-124.099413-32.137954-181.288926-36.738739-72.748884-85.638449-136.942929-140.245138-196.917882-26.834158-29.472242-54.92903-57.801451-82.737376-86.37216-5.625114-5.777587-12.247952-10.717086-18.914792-15.311731-9.484002-6.534833-19.532869-6.241145-29.297256-0.277316-3.578502 2.185782-7.15291 4.541433-10.214642 7.372921-64.437591 59.552328-126.810151 121.083729-176.057785 194.297195-19.23918 28.599362-36.874839 58.322313-54.17997 88.149643-5.317099 9.166777-8.549723 20.160155-10.140964 30.706349-1.76418 11.707646 6.589069 22.148439 17.968234 26.572192 11.886725 4.621251 24.370037 1.967818 32.250518-7.340175 3.050476-3.604084 5.739724-7.692193 7.78736-11.945053 41.851177-86.921675 101.893668-160.238494 169.951717-227.575112 9.581216-9.482979 19.315928-18.814508 28.718065-28.467355 5.287423-5.431709 9.689686-6.149047 15.445784-0.320295 74.196863 75.135234 143.373385 154.154939 194.476273 247.471254 18.626219 34.011628 30.247908 69.888743 32.061207 108.750843 2.668783 57.237609-17.986653 106.600877-51.907207 151.163815-50.759057 66.679655-119.550817 92.046393-201.565738 87.858-90.582041-4.625344-195.616236-75.451436-211.80801-206.090798-1.655709-13.357216-2.479471-26.853601-4.880147-40.069601-2.647293-14.586207-13.009292-22.12695-27.610848-21.794375-14.781658 0.339738-25.232684 8.879228-27.870768 23.168676-3.860934 20.919449 0.169869 41.49302 4.058432 61.825091 23.049972 120.565936 112.023376 211.498972 231.579309 237.056044 11.740392 2.509147 23.704888 3.965312 35.563984 5.910617C501.528508 818.241009 515.570315 818.241009 529.6111 818.241009zM98.242512 34.697499c20.463054 36.404118 40.971134 72.78163 61.376882 109.218494 16.171308 28.876678 32.048927 57.918108 48.423873 86.678128 4.553713 7.992021 9.765411 15.816221 15.8285 22.702048 9.479909 10.766205 22.935362 12.481266 35.132148 5.757121 12.092409-6.668886 17.662265-19.123546 13.517875-32.980135-2.136663-7.140631-5.808286-13.939477-9.523911-20.470217-27.048029-47.535643-54.286394-94.963839-81.433684-142.439106-0.649799-1.13587-0.952698-2.469238-1.636267-4.288676 218.812541 0 436.889325 0 656.412041 0-2.238994 5.222955-3.726881 9.993608-6.17156 14.202467-25.923416 44.626383-52.219315 89.041966-77.842903 133.842311-4.611018 8.064676-8.108678 17.389042-9.481955 26.530236-1.682315 11.197016 6.303566 22.020526 17.21201 26.383904 11.227716 4.493338 22.629393 4.427846 31.181163-4.903683 6.925736-7.55814 12.718673-16.394389 17.830087-25.338085 34.218336-59.922764 68.133773-120.014374 102.102423-180.079378 2.735297-4.838192 5.130857-9.870812 7.68503-14.815427 0-4.493338 0-8.985652 0-13.477966-5.855358-12.412704-14.258749-21.428032-29.070082-22.13923-1.562589-0.072655-3.087315-0.951675-4.630461-1.452071-19.660782 0-39.317471 0-58.977229 0-5.54018 0.464581-11.082406 1.333368-16.622586 1.337461-200.669322 0.068562-401.336598 0.071631-602.004897 0.00307-5.54325-0.00307-11.087523-0.874927-16.629749-1.340531-17.412578 0-34.824133 0-52.235688 0-2.664689 0.61603-5.305843 1.373277-7.996115 1.830695-14.087856 2.39556-26.328645 7.497765-32.444946 21.760606C98.242512 25.711847 98.242512 30.205185 98.242512 34.697499zM390.945947 526.277424c0.532119 65.13037 53.335742 116.874871 118.825292 116.439966 64.869427-0.429789 116.578112-53.146431 115.999944-118.256334-0.585331-65.993017-52.715619-116.303866-119.933533-115.752304C442.230983 409.234731 390.42406 462.248132 390.945947 526.277424zM508.685511 467.564207c31.803333 0.039909 58.041928 26.552749 58.100256 58.704007 0.059352 32.6844-24.982998 57.83829-57.407478 57.660234-34.126238-0.187265-59.608609-24.840758-59.586097-57.646931C449.817776 493.707634 476.081952 467.524299 508.685511 467.564207z"  horiz-adv-x="1095" />

    
    <glyph glyph-name="chenggong" unicode="&#58880;" d="M512.042-62.708c-0.377 0-0.794 0-1.171 0-246.271 0.627-446.165 201.525-445.579 447.838 0.293 119.309 47.047 231.383 131.645 315.564 84.306 83.847 196.13 130.014 315.021 130.014 0.377 0 0.794 0 1.171 0 119.309-0.293 231.383-47.005 315.564-131.603 84.139-84.6 130.307-196.883 130.014-316.233-0.293-119.309-47.005-231.383-131.603-315.522-84.306-83.89-196.171-130.057-315.062-130.057zM511.958 766.475c-101.787 0-197.552-39.519-269.731-111.321-72.43-72.054-112.451-168.028-112.702-270.191-0.501-210.892 170.662-382.893 381.513-383.436 0.335 0 0.669 0 1.004 0 101.787 0 197.552 39.519 269.731 111.363 72.43 72.054 112.451 167.986 112.702 270.149v0c0.251 102.163-39.267 198.346-111.321 270.735-72.054 72.43-168.028 112.451-270.191 112.702-0.336-0.001-0.67-0.001-1.005-0.001zM459.224 205.685c-7.653 0-15.348 2.718-21.495 8.239-13.173 11.876-14.26 32.158-2.383 45.373l263.333 292.773c11.918 13.131 32.2 14.219 45.373 2.383 13.173-11.876 14.26-32.158 2.383-45.373l-263.333-292.773c-6.357-7.025-15.097-10.622-23.879-10.622zM456.632 205.308c-8.531 0-17.062 3.387-23.376 10.079l-155.19 164.766c-12.169 12.922-11.542 33.246 1.338 45.415 12.964 12.169 33.288 11.542 45.415-1.338l155.19-164.766c12.169-12.922 11.542-33.246-1.338-45.415-6.232-5.854-14.136-8.74-22.039-8.74z"  horiz-adv-x="1024" />

    
    <glyph glyph-name="jilu" unicode="&#58910;" d="M809.938539 848.000288c0 26.499873-22.216467 47.999712-49.654804 47.999712-27.43936 0-49.655827-21.498817-49.655827-47.999712l0-96.000447c0-26.499873 22.216467-48.000735 49.655827-48.000735 27.438338 0 49.654804 21.500862 49.654804 48.000735L809.938539 848.000288zM561.656338 848.000288c0 26.499873-22.250202 47.999712-49.654804 47.999712-27.407669 0-49.656849-21.499839-49.656849-47.999712l0-96.000447c0-26.499873 22.250202-48.000735 49.656849-48.000735 27.406647 0 49.654804 21.500862 49.654804 48.000735L561.656338 848.000288zM313.374137 848.000288c0 26.499873-22.218511 47.999712-49.656849 47.999712-27.437316 0-49.655827-21.499839-49.655827-47.999712l0-96.000447c0-26.499873 22.218511-48.000735 49.655827-48.000735 27.438338 0 49.656849 21.500862 49.656849 48.000735L313.374137 848.000288zM942.347943 800.001597l-82.752555 0 0-48.000735c0-53.031437-44.469736-96.000447-99.311654-96.000447-54.843963 0-99.312676 42.970032-99.312676 96.000447L660.971058 800.001597l-49.655827 0 0-48.000735c0-53.031437-44.467691-96.000447-99.311654-96.000447s-99.312676 42.970032-99.312676 96.000447L412.690902 800.001597 363.033031 800.001597l0-48.000735c0-53.031437-44.437022-96.000447-99.311654-96.000447-54.841918 0-99.312676 42.970032-99.312676 96.000447L164.408701 800.001597 81.656146 800.001597c-27.438338 0-49.656849-21.500862-49.656849-48.000735l0-832.00115c0-26.500896 22.218511-47.999712 49.656849-47.999712l860.691797 0c27.435271 0 49.651738 21.498817 49.651738 47.999712L991.999681 751.99984C992.000703 778.499713 969.783214 800.001597 942.347943 800.001597zM305.281668 25.414454c0-22.490441-18.557681-40.700542-41.393657-40.700542-22.898336 0-41.425348 18.210101-41.425348 40.700542L222.462663 133.90323c0 22.457728 18.527012 40.667829 41.425348 40.667829 22.835976 0 41.393657-18.210101 41.393657-40.667829L305.281668 25.414454zM470.918654 25.414454c0-22.490441-18.528034-40.700542-41.394679-40.700542-22.898336 0-41.424325 18.210101-41.424325 40.700542l0 216.971418c0 22.45875 18.52599 40.670896 41.424325 40.670896 22.866645 0 41.394679-18.212146 41.394679-40.670896L470.918654 25.414454zM636.55564 25.414454c0-22.490441-18.495321-40.700542-41.393657-40.700542-22.866645 0-41.393657 18.210101-41.393657 40.700542L553.768327 350.873625c0 22.490441 18.527012 40.701564 41.393657 40.701564 22.898336 0 41.393657-18.211123 41.393657-40.701564L636.55564 25.414454zM802.224317 25.414454c0-22.490441-18.52599-40.700542-41.424325-40.700542-22.838021 0-41.393657 18.210101-41.393657 40.700542L719.406335 459.38898c0 22.457728 18.555636 40.669873 41.393657 40.669873 22.897313 0 41.424325-18.212146 41.424325-40.669873L802.224317 25.414454z"  horiz-adv-x="1024" />

    
    <glyph glyph-name="liuchengmoxing" unicode="&#59345;" d="M613.68389 561.462784l149.575644 0 0-299.500235 49.858548 0L813.118082 561.462784l0 49.918923L613.68389 611.381707 613.68389 832.360588 65.240887 832.360588l0-470.566332 548.44198 0L613.682867 561.462784zM563.825342 411.708062 115.099435 411.708062 115.099435 782.447804 563.825342 782.447804 563.825342 411.708062zM613.68389 261.959479l0-149.751652L464.108247 112.207827 464.108247 261.959479 65.240887 261.959479l0-324.465836 398.86736 0L464.108247 62.290951l149.575644 0 0-124.798331 349.008812 0L962.692702 261.959479 613.68389 261.959479zM414.249699 112.207827l0-49.915853 0-74.879408L115.099435-12.587434 115.099435 212.040557l299.150264 0L414.249699 112.207827zM912.834154-12.587434 663.542438-12.587434 663.542438 212.040557 912.834154 212.040557 912.834154-12.587434z"  horiz-adv-x="1024" />

    
    <glyph glyph-name="qianzhengbanli" unicode="&#58947;" d="M764.866644 578.248786C764.866644 718.180058 651.429935 831.616766 511.498663 831.616766 371.567391 831.616766 258.130682 718.180058 258.130682 578.248786 258.130682 484.07781 371.627762 373.001075 371.627762 373.001075 379.431934 364.845269 377.87542 353.573471 368.466342 347.355813 368.466342 347.355813 325.695477 325.823176 325.695477 291.098407 325.695477 253.85933 356.017547 223.533612 393.421717 223.533612L629.575609 223.533612C666.89174 223.533612 697.301849 253.783401 697.301849 291.098407 697.301849 325.757564 654.521717 347.347341 654.521717 347.347341 644.977278 353.360055 643.634556 364.773845 651.37056 373.001692 651.37056 373.001692 764.866644 484.078272 764.866644 578.248786ZM795.101669 37.730426C806.38958 37.730426 815.54024 46.885717 815.54024 58.161966L815.54024 105.295221C815.54024 142.610227 785.281358 172.860015 747.976748 172.860015L275.020578 172.860015C237.706292 172.860015 207.457086 142.618431 207.457086 105.295221L207.457086 58.161966C207.457086 46.877938 216.614714 37.730426 227.895657 37.730426L795.101669 37.730426ZM761.310752-63.616766C772.603368-63.616766 781.757843-54.469546 781.757843-43.184688L781.757843-29.834369C781.757843-11.176866 766.630454 3.948029 747.971556 3.948029L275.02577 3.948029C256.366119 3.948029 241.239483-11.172764 241.239483-29.834369L241.239483-43.184688C241.239483-54.469014 250.394398-63.616766 261.686575-63.616766L761.310752-63.616766Z"  horiz-adv-x="1024" />

    
    <glyph glyph-name="gongsi00" unicode="&#59126;" d="M489.1136-53.341866669999945L489.1136 833.28853333l443.3152 0 0-886.656L489.1136-53.36746667 489.1136-53.341866669999945zM869.0944 643.31093333L552.448 643.31093333l0-63.3344 316.672 0L869.12 643.31093333 869.0944 643.31093333zM869.0944 453.30773333L552.448 453.30773333 552.448 389.97333333l316.672 0L869.12 453.30773333 869.0944 453.30773333zM869.0944 263.30453333L552.448 263.30453333l0-63.3344 316.672 0L869.12 263.30453333 869.0944 263.30453333zM109.1328 516.64213333l316.672 0 0-569.984L109.1328-53.341866669999945 109.1328 516.64213333 109.1328 516.64213333zM172.4416 136.63573333l190.0032 0 0 63.3344L172.4416 199.97013332999995 172.4416 136.63573333 172.4416 136.63573333zM172.4416 326.63893333l190.0032 0L362.4448 389.97333333 172.4416 389.97333333 172.4416 326.63893333 172.4416 326.63893333z"  horiz-adv-x="1024" />

    
    <glyph glyph-name="kuaisukaidian" unicode="&#59114;" d="M299.406091-10.000516c-11.270694 6.021134-15.438621 20.070104-9.417487 31.340799s20.070104 15.438621 31.340799 9.417487c28.870538-15.59314 59.748802-27.789926 92.170213-35.972283 31.495318-7.874341 64.380286-12.042267 98.500385-12.042267 110.850667 0 211.20426 44.927235 283.766902 117.489878s117.489878 172.915211 117.489878 283.766902-44.927235 211.20426-117.489878 283.766902S622.850667 785.25678 512 785.25678s-211.20426-44.927235-283.766902-117.489878S110.74322 494.851691 110.74322 384c0-48.787146 8.645914-95.412047 24.548092-138.487098 16.519232-44.927235 40.603767-85.99456 70.864978-121.504308 8.336876-9.726525 7.101745-24.393573-2.62478-32.57593-9.726525-8.336876-24.239054-7.101745-32.42141 2.62478-33.965579 39.832194-61.138452 85.685521-79.355349 135.553279-17.754363 48.169069-27.480888 100.19805-27.480888 154.389276 0 123.665531 50.176796 235.597833 131.076314 316.65187 81.054037 80.899518 192.986339 131.076314 316.65187 131.076314s235.597833-50.176796 316.65187-131.076314c80.899518-81.054037 131.076314-192.986339 131.076314-316.65187s-50.176796-235.597833-131.076314-316.65187c-81.054037-80.899518-192.986339-131.076314-316.65187-131.076314-37.82549 0-74.569346 4.786003-109.770056 13.586436C365.9476-41.032276 331.519486-27.44584 299.406091-10.000516zM666.080238 426.920532 550.442544 426.920532 578.541509 658.349415 350.972537 355.59302 466.454688 355.59302 438.510242 124.009617Z"  horiz-adv-x="1024" />

    
    <glyph glyph-name="shichangdongtai" unicode="&#59118;" d="M827.909973 272.918066 538.857694 272.918066l0-83.588767L827.909973 189.329299 827.909973 272.918066zM827.909973 440.734142 538.857694 440.734142l0-84.22731L827.909973 356.506832 827.909973 440.734142zM827.909973 635.988128 197.482747 635.988128l0-83.588767L827.909973 552.399361 827.909973 635.988128zM197.482747 189.329299l236.091066 0L433.573813 440.734142 197.482747 440.734142 197.482747 189.329299zM849.604064-62.076568c-10.847046 32.54216-40.199561 55.513338-74.017784 55.513338-34.456766 0-63.170738-22.971178-74.017784-55.513338L586.713632-62.076568c-10.847046 32.54216-39.561018 55.513338-74.017784 55.513338-34.456766 0-63.170738-22.971178-74.017784-55.513338L323.8232-62.076568c-10.847046 32.54216-39.561018 55.513338-74.017784 55.513338-33.818223 0-63.170738-22.971178-74.017784-55.513338L66.037019-62.076568 66.037019 775.728776c0 30.627555 23.608697 55.513338 52.322669 55.513338l788.67232 0c28.713972 0 52.322669-24.885783 52.322669-55.513338l0-837.804321L849.604064-62.075545 849.604064-62.076568z"  horiz-adv-x="1024" />

    
    <glyph glyph-name="dangwugongkai" unicode="&#59079;" d="M512.556671 766.255974c197.421548-74.05659 317.217127-310.776893 214.592906-502.575854L476.712573 515.385265l95.599384 95.966135-59.789263 59.522044c-32.990033-32.322485-85.420485-39.213813-120.779911-24.963475l-190.347544-190.53082 107.797713-107.430362 71.853683 71.586864 250.353061-251.287427c-122.514535-67.298172-292.337595-46.089551-417.672818 84.151745l-60.690252-60.523765c18.188668-25.213905 33.423739-48.058217 52.363298-67.214229-1.65188-1.985654-6.85835-6.257757-6.958282-6.374678-3.187439 0.517649-6.958282 1.751812-10.312408 1.751812-32.289108 0-58.370825-28.116737-58.370825-60.439822 0-32.27212 26.332147-58.604066 58.621055-58.604066 32.306096 0 59.939161 26.565788 59.939161 58.870886 0 3.771443-0.850823 7.209112-1.501982 10.763702l9.328076 9.160789c144.091506-97.217886 302.016433-109.332473 471.938825-7.608841l70.168226-70.452034 96.049678 94.781538-70.61892 71.3864C1026.345921 473.434308 756.117936 773.564619 512.556671 766.255974L512.556671 766.255974 512.556671 766.255974z"  horiz-adv-x="1024" />

    
    <glyph glyph-name="icon" unicode="&#58961;" d="M512 895.978511c-282.758945 0-511.978511-229.219565-511.978511-511.978511s229.219565-511.978511 511.978511-511.978511c282.752806 0 511.978511 229.219565 511.978511 511.978511S794.752806 895.978511 512 895.978511zM650.535193 96.658689c-30.110785-10.406001-53.770648-18.430768-71.779813-24.12035-17.759479-5.683443-38.609343-8.524141-62.269205-8.524141-36.280298 0-64.599274 8.057513-84.656075 23.679305-20.332071 16.089443-30.366611 35.953863-30.366611 60.573587 0 9.465582 0.76748 18.936281 2.297322 28.869514 1.567705 9.93221 4.121877 21.304212 7.225565 33.617655l37.547151 118.810966c3.353374 11.340279 1.453095 21.74628 3.78828 32.177863 2.316765 9.93221 3.333932 19.397792 3.333932 27.429723 0 15.647375 1.433652 26.053376-5.528923 31.742958-7.219425 6.15007-20.312628 4.383844-40.139186 4.383844-9.804297 0-19.832697-1.408069-29.854958-3.776-10.290367-2.847861-19.032472-0.607844-26.251897-3.455705l10.060123 36.926004c24.427342 8.997931 48.087205 16.562211 70.499657 22.719444 22.39301 6.617721 43.722804 9.458419 63.549362 9.458419 36.274158 0 64.09376-7.583722 83.631746-23.205515 19.551288-15.621792 41.169655-35.960003 41.169655-60.579727 0-5.215792-0.800225-14.213723-2.080382-27.461445-1.274016-12.773931-3.858888-24.613584-7.468089-35.486212L563.843762 222.119099c-2.847861-9.465582-5.65786-20.363793-7.986905-32.677237-2.585895-11.839653-3.858888-21.304212-3.858888-27.455305 0-15.621792 4.114714-26.494421 11.845793-32.184003 7.980765-5.65786 21.618367-8.498558 40.900525-8.498558 9.011234 0 19.321044 1.408069 30.878265 4.224208 11.564383 2.841721 19.800975 5.215792 24.946159 7.589862L650.535193 96.658689zM643.860167 576.644555c-17.240663-14.681374-38.315654-21.771863-62.768579-21.771863-24.434505 0-45.540196 7.090489-63.305815 21.771863-17.496489 14.213723-26.238594 31.710212-26.238594 52.547797 0 20.369933 8.742105 37.893029 26.238594 52.547797 17.765619 14.655791 38.872333 22.245653 63.305815 22.245653 24.421202 0 45.527916-7.55814 62.768579-22.245653 17.496489-14.681374 26.258037-32.209586 26.258037-52.547797C670.118204 608.355791 661.356656 590.858278 643.860167 576.644555z"  horiz-adv-x="1024" />

    
    <glyph glyph-name="gongsituandui" unicode="&#58890;" d="M247.12533333 517.80266667l0 5.46133333c0 21.84533333 16.384 38.22933333 38.22933334 38.22933333l30.03733333 0c21.84533333 0 38.22933333-16.384 38.22933333-38.22933333l0-5.46133333c0-21.84533333 5.46133333-24.576 27.30666667-24.576L648.53333333 493.22666667c19.11466667 0 21.84533333 2.73066667 21.84533334 21.84533333l0 8.192c0 21.84533333 16.384 38.22933333 38.22933333 38.22933333l30.03733333 0c21.84533333 0 38.22933333-16.384 38.22933334-38.22933333l0-8.192c0-19.11466667 5.46133333-21.84533333 24.576-21.84533333L948.90666667 493.22666667c19.11466667 0 24.576 5.46133333 24.576 24.576l0 43.69066666c0 43.69066667-35.49866667 79.18933333-76.45866667 79.18933334L126.976 640.68266667c-40.96 0-76.45866667-35.49866667-76.45866667-79.18933334L50.51733333 520.53333333c0-21.84533333 5.46133333-27.30666667 30.03733334-27.30666666l139.264 0c21.84533333 2.73066667 27.30666667 5.46133333 27.30666666 24.576z m0 0M776.87466667 414.03733333l0-8.19200001c0-21.84533333-16.384-38.22933333-38.22933334-38.22933332l-30.03733333 0c-21.84533333 0-38.22933333 16.384-38.22933333 38.22933333l0 8.192c0 16.384-5.46133333 21.84533333-21.84533334 21.84533334l-264.87466666 0c-21.84533333 0-27.30666667-5.46133333-27.30666667-24.576l0-5.46133334c0-21.84533333-16.384-38.22933333-38.22933333-38.22933333l-30.03733334 0c-21.84533333 0-38.22933333 16.384-38.22933333 38.22933332L249.856 411.30666667c0 21.84533333-5.46133333 27.30666667-27.30666667 27.30666666L77.824 438.61333333c-24.576 0-30.03733333-5.46133333-30.03733333-30.03733333l0-390.48533333c0-43.69066667 35.49866667-79.18933333 76.45866666-79.18933334l772.77866667 0c40.96 0 76.45866667 35.49866667 76.45866667 79.18933334L973.48266667 414.03733333c0 16.384-8.192 24.576-24.576 24.576l-147.456 0c-19.11466667-2.73066667-24.576-5.46133333-24.576-24.576z m0 0M329.04533333 438.61333333c0-21.84533333-13.65333333-38.22933333-30.03733333-38.22933333-16.384 0-27.30666667 16.384-27.30666667 38.22933333l0 46.42133334c0 21.84533333 13.65333333 38.22933333 27.30666667 38.22933333 16.384 0 30.03733333-16.384 30.03733333-38.22933334L329.04533333 438.61333333z m0 0M752.29866667 438.61333333c0-21.84533333-13.65333333-38.22933333-27.30666667-38.22933333-16.384 0-30.03733333 16.384-30.03733333 38.22933333l0 46.42133333c0 21.84533333 13.65333333 38.22933333 30.03733333 38.22933334 16.384 0 27.30666667-16.384 27.30666667-38.22933333L752.29866667 438.61333333z m0 0M350.89066667 684.37333333A172.032 172.032 0 0 0 512 796.33066668c73.72800001 0 136.53333333-46.42133333 161.10933333-114.68800001 0 0 5.46133333-21.84533333 35.49866667-21.84533334s30.03733333 21.84533333 30.03733333 21.84533334c-27.30666667 103.76533333-117.41866667 177.49333333-226.64533333 177.49333333-109.22666667 0-202.06933333-76.45866667-226.64533333-177.49333333 0 0-2.73066667-19.11466667 30.03733333-19.11466667 30.03733333 2.73066667 35.49866667 21.84533333 35.49866667 21.84533333z m0 0"  horiz-adv-x="1024" />

    
    <glyph glyph-name="xiangmu" unicode="&#58903;" d="M760.32 371.2h-307.2c-25.6 0-46.08 20.48-46.08 46.08s20.48 46.08 46.08 46.08h307.2c25.6 0 46.08-20.48 46.08-46.08s-20.48-46.08-46.08-46.08zM235.52 235.52c0-28.16 20.48-48.64 48.64-48.64s48.64 23.04 48.64 48.64c0 25.6-20.48 48.64-48.64 48.64s-48.64-20.48-48.64-48.64z m0 181.76c0-28.16 20.48-48.64 48.64-48.64s48.64 23.04 48.64 48.64c0 25.6-20.48 48.64-48.64 48.64s-48.64-23.04-48.64-48.64z m524.8-227.84h-307.2c-25.6 0-46.08 20.48-46.08 46.08s20.48 46.08 46.08 46.08h307.2c25.6 0 46.08-20.48 46.08-46.08s-20.48-46.08-46.08-46.08z m209.92-148.48V616.96c0 69.12-64 64-64 64H545.28C524.8 680.96 512 691.2 512 691.2s-15.36 25.6-43.52 66.56c-25.6 46.08-58.88 38.4-58.88 38.4H130.56C51.2 796.16 51.2 721.92 51.2 721.92v-675.84c0-84.48 64-74.24 64-74.24h798.72c66.56 0 56.32 69.12 56.32 69.12z"  horiz-adv-x="1024" />

    
    <glyph glyph-name="dizhi" unicode="&#58916;" d="M502.4 835.2C348.8 835.2 224 710.4 224 554.4c0-153.6 151.2-348 280.8-506.4 127.2 160.8 280.8 350.4 280.8 506.4-2.4 156-127.2 280.8-283.2 280.8z m0-465.6c-103.2 0-184.8 84-184.8 184.8 0 103.2 84 184.8 184.8 184.8 103.2 0 184.8-84 184.8-184.8 2.4-103.2-81.6-184.8-184.8-184.8z m0 0M396.8 554.4c0-28.8 12-55.2 31.2-74.4 19.2-19.2 48-31.2 74.4-31.2 28.8 0 55.2 12 74.4 31.2 19.2 19.2 31.2 48 31.2 74.4 0 28.8-12 55.2-31.2 74.4-19.2 19.2-48 31.2-74.4 31.2-28.8 0-55.2-12-74.4-31.2-19.2-19.2-31.2-45.6-31.2-74.4z m0 0M504.8-74.39999999999998c-180 0-362.4 57.6-362.4 165.6 0 60 60 110.4 165.6 141.6 19.2 4.8 38.4-4.8 43.2-24 4.8-19.2-4.8-38.4-24-43.2-79.2-21.6-115.2-52.8-115.2-74.4 0-38.4 115.2-96 295.2-96 180 0 295.2 57.6 295.2 96 0 21.6-43.2 55.2-122.4 76.8-19.2 4.8-28.8 24-24 43.2 4.8 19.2 24 28.8 43.2 24 110.4-28.8 175.2-81.6 175.2-144-7.2-108-189.6-165.6-369.6-165.6z m0 0"  horiz-adv-x="1024" />

    
    <glyph glyph-name="boshimao" unicode="&#58939;" d="M945.08544 529.3568l-425.97376 183.1936a20.5312 20.5312 0 0 1-8.12544 1.6896c-2.7648 0-5.52448-0.5632-8.14592-1.6896L76.87168 529.3568c-8.98048-3.84512-14.92992-13.65504-14.92992-24.59136 0-10.9568 5.94944-20.74112 14.92992-24.60672L502.8352 296.96a20.29056 20.29056 0 0 1 16.27136 0l331.1872 142.43328v-145.7152c-17.75104-9.40032-30.08512-29.8496-30.08512-53.62688 0-23.7824 12.33408-44.22656 30.08512-53.62688v-50.83136h43.6224v50.82112c17.76128 9.40032 30.1056 29.8496 30.1056 53.63712s-12.34432 44.2368-30.1056 53.63712V458.15296l51.16416 22.00576c8.97536 3.8656 14.9248 13.65504 14.9248 24.60672 0 10.93632-5.94944 20.74624-14.9248 24.59136z m-434.0992-269.16352a47.96928 47.96928 0 0 0-19.03104 3.95776L226.4064 378.368v-157.70112c0-129.16224 193.65888-167.936 254.208-167.936h60.69248c45.35808 0 254.22848 38.77376 254.22848 167.936v157.696l-265.55904-114.21184a47.76448 47.76448 0 0 0-18.9952-3.95776z"  horiz-adv-x="1024" />

    
    <glyph glyph-name="shuju5" unicode="&#58943;" d="M939.084071 765.701377c-18.878398 27.189275-49.935911 43.42912-83.072936 43.42912-20.654839 0-40.57248-6.246724-57.604813-18.071576-45.75334-31.796759-57.126658-94.911098-25.344233-140.691058a100.913114 100.913114 0 0 1 11.963076-14.211529l-51.156382-114.476522a101.137345 101.137345 0 0 1-34.747597 6.164813c-20.669173 0-40.58579-6.247748-57.604812-18.071576-27.221015-18.912186-42.269058-48.897691-43.308301-79.726878l-146.038812-30.880382a100.818916 100.818916 0 0 1-12.339866 24.117619c-18.891708 27.175964-49.950246 43.402499-83.086246 43.402499-20.654839 0-40.57248-6.246724-57.605836-18.071576-45.75334-31.810069-57.113347-94.911098-25.330923-140.691058a101.149631 101.149631 0 0 1 7.952517-10.012575l-85.542547-138.171277a101.118915 101.118915 0 0 1-31.852049 5.154239c-20.669173 0-40.58579-6.246724-57.604812-18.071576-22.173261-15.392068-37.031884-38.508327-41.816501-65.096581-4.784616-26.574944 1.065865-53.40893 16.472267-75.567857 18.878398-27.189275 49.936935-43.42912 83.072936-43.42912 20.654839 0 40.57248 6.246724 57.604813 18.071576 22.173261 15.406402 37.018574 38.521638 41.80319 65.096582 4.784616 26.57392-1.065865 53.422241-16.472267 75.581166a101.287856 101.287856 0 0 1-4.982226 6.568225l86.86643 140.309149a101.187515 101.187515 0 0 1 27.585519-3.835474c20.654839 0 40.57248 6.247748 57.604812 18.071576 21.335722 14.829955 35.190939 36.463628 40.685107 59.969987l156.764011 33.148288a102.026077 102.026077 0 0 1 4.224551-6.615324c18.891708-27.175964 49.950246-43.402499 83.071912-43.402498 20.669173 0 40.58579 6.247748 57.605836 18.071576 45.76665 31.796759 57.126658 94.896764 25.344233 140.677748a102.03222 102.03222 0 0 1-2.24538 3.089062l54.431791 121.806517a101.089222 101.089222 0 0 1 21.754492-2.371318c20.669173 0 40.58579 6.247748 57.604812 18.071576 22.173261 15.392068 37.031884 38.508327 41.816501 65.096581 4.784616 26.574944-1.065865 53.40893-16.472267 75.567856zM208.792743 55.819156c-2.132753-11.851473-8.762411-22.158926-18.645975-29.03534-19.821396-13.792759-49.089158-8.352856-62.744717 11.319052-6.876414 9.883565-9.487321 21.857904-7.354568 33.696067 2.132753 11.851473 8.762411 22.158926 18.659286 29.03534 7.58699 5.277105 16.458957 8.065145 25.658566 8.065144a45.161534 45.161534 0 0 0 24.270178-7.090406 28.255139 28.255139 0 0 1 3.205785-2.315004c0.140272-0.08703 0.285664-0.159726 0.427984-0.244709a44.917849 44.917849 0 0 0 9.168893-9.720767c6.876414-9.882541 9.487321-21.85688 7.354568-33.709377z m173.759483 272.756907c-19.834707-13.807094-49.102469-8.338522-62.759051 11.291408-14.175692 20.423441-9.104388 48.569024 11.291408 62.759051 7.600301 5.277105 16.472267 8.065145 25.658566 8.065145 14.804358 0 28.680052-7.245013 37.100485-19.370887a44.794983 44.794983 0 0 0 8.03238-24.748332c-0.012287-0.475083-0.012287-0.952213 0-1.430368-0.162798-14.097877-6.891772-27.921353-19.323788-36.566017z m342.350393 61.173053c-19.793751-13.765114-49.089158-8.379477-62.744717 11.291407-14.175692 20.423441-9.104388 48.569024 11.304718 62.744717 7.58699 5.277105 16.458957 8.065145 25.658566 8.065145 14.791047 0 28.665717-7.231702 37.086151-19.356552 14.175692-20.422417 9.104388-48.568-11.304718-62.744717z m175.550258 310.308925c-2.132753-11.851473-8.762411-22.158926-18.659286-29.03534-19.793751-13.779449-49.102469-8.366167-62.744716 11.291408-14.175692 20.423441-9.104388 48.569024 11.304717 62.759051 7.600301 5.276081 16.472267 8.065145 25.658567 8.065145 14.804358 0 28.665717-7.245013 37.08615-19.384197 6.87539-9.882541 9.486298-21.857904 7.354568-33.696067z"  horiz-adv-x="1024" />

    
    <glyph glyph-name="jiantou" unicode="&#58883;" d="M801.548285 385.728968L301.254151-114.360574c-18.242732-18.242732-47.73799-18.106338-65.844327 0.306887a47.226511 47.226511 0 0 0 0.272788 66.389904l433.358652 433.154061L235.784908 815.643665A47.192413 47.192413 0 0 0 235.307528 882.033569 46.30585 46.30585 0 0 0 301.151856 882.545048l500.396429-496.81608z"  horiz-adv-x="1024" />

    
    <glyph glyph-name="huiyuanfazhanqushi" unicode="&#58900;" d="M898.2 680.7v1.4h-1.4l0.4-0.4c0.4-0.3 0.7-0.6 1-1zM106.1 423.1l250.2 181 205.1-196.5 334.3 298.4c0.5 0.5 1 1.1 1.5 1.7l0.6-69.2c0.1-13.7 11.3-24.8 25-24.8h0.2c13.8 0.1 24.9 11.4 24.8 25.2l-1.2 153-163.9-0.2c-13.8 0-25-11.2-25-25s11.2-25 25-25l78 0.1-0.1-0.1-299.7-264.5-198.1 191.8-286-205.4c-11.2-8.1-13.7-23.7-5.6-34.9s23.7-13.7 34.9-5.6zM896.9 741.7v-1.4c-0.3 0.4-0.6 0.7-1 1l-0.4 0.4h1.4zM936.5 191.8h-152.7v329.1c0 13.8-11.2 25-25 25s-25-11.2-25-25v-329.1h-148.4v146.6c0 13.8-11.2 25-25 25s-25-11.2-25-25v-146.6h-139c0 0.5 0.1 1 0.1 1.5v302.1c0 13.8-11.2 25-25 25s-25-11.2-25-25v-302.1c0-0.5 0-1 0.1-1.5h-140.2v211.2c0 13.8-11.2 25-25 25s-25-11.2-25-25v-211.2h-70.5c-11 0-19.9-11.2-19.9-25s8.9-25 19.9-25h850.6c11 0 19.9 11.2 19.9 25-0.1 13.8-9 25-19.9 25z"  horiz-adv-x="1024" />

    
    <glyph glyph-name="search" unicode="&#58930;" d="M448 755.2A307.2 307.2 0 1 0 140.8 448 307.84 307.84 0 0 0 448 755.2M448 832a384 384 0 1 1 384-384 384 384 0 0 1-384 384zM741.76 247.04l-90.24-90.24L832-24.32A64 64 0 0 1 922.88 64l-181.12 181.12z"  horiz-adv-x="1024" />

    
    <glyph glyph-name="yuyueqiatan" unicode="&#58914;" d="M308.806452 432.193909c-100.389678-47.602914-165.461985-121.875019-204.55291-219.819076-28.413277-71.191056-28.449402-108.696842-27.733054-130.555349s20.229658-141.000716 147.387508-141.000716c92.397518-0.228667 89.103335-0.08128 181.501214-0.079835 118.938107 0.001445 143.169263 0.213134 262.106286-0.147749 25.554032-0.077667 143.757007 22.017815 143.04355 150.620641-12.273261 75.13873-12.026893 112.406095-54.776856 181.193434-42.749963 68.78734-99.021647 123.744095-175.282762 159.683167 54.090493 52.17301 82.695952 113.322209 83.564744 186.952023 1.500607 127.153515-92.275779 236.998752-206.927004 241.405927-123.53638 4.748551-222.874477-90.13288-231.608632-221.808446-5.327264-80.315355 22.084284-148.323491 83.277916-206.444021zM808.326559 454.33238c52.87563 80.76402 59.456049 169.295505-3.91191 255.766817-33.76944 46.081716-80.557749 70.951552-143.918122 68.65404 29.164664-58.24552 45.75768-114.664591 44.638185-175.938058-1.133222-62.02377-21.910887-116.376165-60.378304-166.321384 146.965214-82.3441 201.212487-214.696638 206.067605-375.489545 26.139247 0 15.261832-1.329378 38.495233 0.409289 19.53607 1.461954 71.526291 34.133213 69.358827 93.377211-10.114829 128.602826-28.177024 142.330094-46.181419 178.674119-28.979346 42.96671-67.798254 79.297008-104.170095 120.867511z"  horiz-adv-x="1024" />

    
    <glyph glyph-name="77" unicode="&#59044;" d="M491.52 819.2h37.888v-111.616l53.76-66.56 74.24-91.648h-296.96l130.56 161.28v108.544h0.512zM289.792 9.728h59.392v503.808h323.072v-504.32h57.856v400.384h140.288v-399.872h93.184v-71.168h-880.128v603.648l206.336-118.272v-414.208zM521.728 153.088v-55.808h44.544v55.808h-44.544zM112.128 238.080v-33.792h27.136v33.792h-27.136zM242.176 178.688v-33.792h27.136v33.792h-27.136zM242.176 298.496v-33.792h27.136v33.792h-27.136zM242.176 357.888v-33.792h27.136v33.792h-27.136zM199.168 238.080v-33.792h27.136v33.792h-27.136zM199.168 357.888v-33.792h27.136v33.792h-27.136zM154.624 238.080v-33.792h27.136v33.792h-27.136zM154.624 178.688v-33.792h27.136v33.792h-27.136zM154.624 298.496v-33.792h27.136v33.792h-27.136zM112.128 357.888v-33.792h27.136v33.792h-27.136zM754.176 227.84v-41.984h33.792v41.984h-33.792zM754.176 154.624v-41.984h33.792v41.984h-33.792zM754.176 376.832v-41.984h33.792v41.984h-33.792zM806.912 303.616v-41.984h33.28v41.984h-33.28zM806.912 376.832v-41.984h33.28v41.984h-33.28zM385.536 153.088v-55.808h44.544v55.808h-44.544zM385.536 351.744v-55.808h44.544v55.808h-44.544zM588.8 351.744v-55.808h44.544v55.808h-44.544zM521.728 351.744v-55.808h44.544v55.808h-44.544zM454.656 351.744v-55.808h44.544v55.808h-44.544zM385.536 449.536v-55.808h44.544v55.808h-44.544zM588.8 449.536v-55.808h44.544v55.808h-44.544zM521.728 449.536v-55.808h44.544v55.808h-44.544zM385.536 250.88v-55.808h44.544v55.808h-44.544zM588.8 250.88v-55.808h44.544v55.808h-44.544z"  horiz-adv-x="1024" />

    
    <glyph glyph-name="icon-test" unicode="&#58884;" d="M699.6 646.4h75V759H137V684h562.6zM587 609v-201.8L362 519.6v-112.6L137 519.6v-510.6h750v600h-300zM324.6 196.4h-75v75h75v-75z m225 0h-75v75h75v-75z m225 0h-75v75h75v-75z m0 187.6h-75v75h75V384z"  horiz-adv-x="1024" />

    
    <glyph glyph-name="shuju6" unicode="&#58931;" d="M836.386133 102.280533H204.680533A42.5984 42.5984 0 0 0 162.133333 144.8448V622.933333a25.6 25.6 0 0 1-51.2 0v-478.088533a93.7984 93.7984 0 0 1 93.7472-93.764267h631.7056a25.6 25.6 0 0 1 0 51.2zM441.412267 560.810667a25.3952 25.3952 0 0 1-22.408534-7.099734l-144.981333-144.981333c-10.018133-10.001067-9.915733-26.112 0.085333-36.113067 10.069333-10.069333 26.1632-10.0352 36.113067-0.085333l131.191467 131.191467 131.191466-131.191467a25.480533 25.480533 0 0 1 39.099734 3.652267c2.0992 1.160533 4.061867 2.628267 5.8368 4.4032L822.613333 585.659733a25.5488 25.5488 0 0 1 0.0512 36.232534 25.565867 25.565867 0 0 1-36.2496-0.034134L591.0528 426.496l-127.232 127.214933a25.3952 25.3952 0 0 1-22.408533 7.082667z"  horiz-adv-x="1024" />

    
    <glyph glyph-name="-fanweineiqianzhi" unicode="&#58917;" d="M926.15111147 816.3555552H885.19111147a22.7555552 22.7555552 0 1 1 0-45.5111104h18.20444373v-9.10222293a22.7555552 22.7555552 0 1 1 45.51111147 0V793.6a22.7555552 22.7555552 0 0 1-22.7555552 22.7555552zM926.15111147 365.79555519999997a22.7555552 22.7555552 0 0 1-22.75555627-22.7555552v-72.81777813a22.7555552 22.7555552 0 1 1 45.51111147 0v72.81777813a22.7555552 22.7555552 0 0 1-22.7555552 22.7555552zM926.15111147 201.95555520000005a22.7555552 22.7555552 0 0 1-22.75555627-22.7555552v-72.81777813a22.7555552 22.7555552 0 1 1 45.51111147 0v72.81777813a22.7555552 22.7555552 0 0 1-22.7555552 22.7555552zM926.15111147 693.4755552a22.7555552 22.7555552 0 0 1-22.75555627-22.7555552v-72.81777813a22.7555552 22.7555552 0 1 1 45.51111147 0v72.81777813a22.7555552 22.7555552 0 0 1-22.7555552 22.7555552zM926.15111147 529.6355552a22.7555552 22.7555552 0 0 1-22.75555627-22.7555552v-72.81777813a22.7555552 22.7555552 0 1 1 45.51111147 0v72.81777813a22.7555552 22.7555552 0 0 1-22.7555552 22.7555552zM926.15111147 29.013333330000023a22.7555552 22.7555552 0 0 1-22.75555627-22.7555552v-9.10222293h-18.20444373a22.7555552 22.7555552 0 1 1 0-45.5111104h40.96a22.7555552 22.7555552 0 0 1 22.7555552 22.7555552v31.85777813a22.7555552 22.7555552 0 0 1-22.7555552 22.7555552zM630.32888853-2.8444448000000193h-72.81777706a22.7555552 22.7555552 0 1 1 0-45.5111104h72.81777706a22.7555552 22.7555552 0 1 1 0 45.5111104zM302.64888853-2.8444448000000193h-72.81777706a22.7555552 22.7555552 0 1 1 0-45.5111104h72.81777706a22.7555552 22.7555552 0 1 1 0 45.5111104zM794.16888853-2.8444448000000193h-72.81777706a22.7555552 22.7555552 0 1 1 0-45.5111104h72.81777706a22.7555552 22.7555552 0 1 1 0 45.5111104zM466.48888853-2.8444448000000193h-72.81777706a22.7555552 22.7555552 0 1 1 0-45.5111104h72.81777706a22.7555552 22.7555552 0 1 1 0 45.5111104zM138.80888853-2.8444448000000193h-18.20444373v9.10222293a22.7555552 22.7555552 0 1 1-45.51111147 0v-31.85777813a22.7555552 22.7555552 0 0 1 22.7555552-22.7555552H138.80888853a22.7555552 22.7555552 0 1 1 0 45.5111104zM97.84888853 238.3644448a22.7555552 22.7555552 0 0 1 22.75555627 22.7555552v72.81777813a22.7555552 22.7555552 0 1 1-45.51111147 0v-72.81777813a22.7555552 22.7555552 0 0 1 22.7555552-22.7555552zM97.84888853 74.52444479999997a22.7555552 22.7555552 0 0 1 22.75555627 22.7555552v72.81777813a22.7555552 22.7555552 0 1 1-45.51111147 0v-72.81777813a22.7555552 22.7555552 0 0 1 22.7555552-22.7555552zM97.84888853 566.0444448000001a22.7555552 22.7555552 0 0 1 22.75555627 22.7555552v72.81777813a22.7555552 22.7555552 0 1 1-45.51111147 0v-72.81777813a22.7555552 22.7555552 0 0 1 22.7555552-22.7555552zM97.84888853 402.2044448a22.7555552 22.7555552 0 0 1 22.75555627 22.7555552v72.81777813a22.7555552 22.7555552 0 1 1-45.51111147 0v-72.81777813a22.7555552 22.7555552 0 0 1 22.7555552-22.7555552zM138.80888853 816.3555552h-40.96A22.7555552 22.7555552 0 0 1 75.09333333 793.6v-31.85777813a22.7555552 22.7555552 0 1 1 45.51111147 0v9.10222293h18.20444373a22.7555552 22.7555552 0 1 1 0 45.5111104zM229.83111147 770.8444448h72.81777706a22.7555552 22.7555552 0 1 1 0 45.5111104h-72.81777706a22.7555552 22.7555552 0 1 1 0-45.5111104zM393.67111147 770.8444448h72.81777706a22.7555552 22.7555552 0 1 1 0 45.5111104h-72.81777706a22.7555552 22.7555552 0 1 1 0-45.5111104zM630.32888853 816.3555552h-72.81777706a22.7555552 22.7555552 0 1 1 0-45.5111104h72.81777706a22.7555552 22.7555552 0 1 1 0 45.5111104zM794.16888853 816.3555552h-72.81777706a22.7555552 22.7555552 0 1 1 0-45.5111104h72.81777706a22.7555552 22.7555552 0 1 1 0 45.5111104zM548.40888853 83.62666666999996V684.37333333a22.7555552 22.7555552 0 0 1-22.7555552 22.7555552h-318.57777813A22.7555552 22.7555552 0 0 1 184.32 684.37333333v-600.74666666a22.7555552 22.7555552 0 0 1 22.7555552-22.7555552h318.57777813A22.7555552 22.7555552 0 0 1 548.40888853 83.62666666999996z"  horiz-adv-x="1024" />

    
    <glyph glyph-name="qiyeyuanquwuye-xianxing" unicode="&#59540;" d="M832 0V683.2c0 8.8-7.2 16-16 16H640V816c0 8.8-7.2 16-16 16H208c-8.8 0-16-7.2-16-16v-816h-64v-64h768v64h-64z m-64 635.2V32H640V128h64v64h-64v64h64v64h-64v64h64v64h-64v64h64v64h-64v59.2h128zM256 768h320v-736H256V768z m64-64h64v-64h-64v64z m128 0h64v-64h-64v64zM320 576h64v-64h-64v64z m128 0h64v-64h-64v64zM320 448h64v-64h-64v64z m128 0h64v-64h-64v64zM320 320h64v-64h-64v64z m128 0h64v-64h-64v64zM320 192h64v-64h-64v64z m128 0h64v-64h-64v64z"  horiz-adv-x="1024" />

    
    <glyph glyph-name="zhinanzhidao" unicode="&#59653;" d="M512 832C264.8 832 64 631.2 64 384s200.8-448 448-448 448 200.8 448 448S759.2 832 512 832z m256-192c-7.2-7.2-155.2-356-155.2-356S264 136 256.8 128.8c-4 0 156 356 156 356S775.2 647.2 768 640zM386.4 257.6c13.6 29.6 56 137.6 70.4 170.4L552 333.6c-26.4-12-160-73.6-165.6-76z"  horiz-adv-x="1024" />

    
    <glyph glyph-name="pieChart" unicode="&#58954;" d="M447.04 805.76v-286.18666667L243.73333333 715.73333333c58.66666667 47.57333333 128.74666667 78.61333333 203.30666667 90.02666667m42.66666667 47.04c-120.21333333-5.65333333-228.58666667-56.53333333-308.58666667-136l308.58666667-297.81333333V852.8zM173.12 625.28l248.74666667-231.78666667L172.16 144c-19.73333333 27.94666667-35.94666667 58.02666667-48.32 90.02666667C105.38666667 281.81333333 96 332.26666666999995 96 384s9.38666667 102.18666667 27.84 149.97333333c12.58666667 32.53333333 29.01333333 63.04 49.28 91.30666667m-4.69333333 62.61333333C96.85333333 607.04 53.33333333 500.58666667 53.33333333 384c0-116.58666667 43.52-223.04 115.2-304l314.77333334 314.56-314.88 293.33333333z m387.62666666 99.09333334c39.57333333-4.26666667 77.97333333-14.18666667 114.66666667-29.86666667 48.10666667-20.48 91.30666667-49.70666667 128.42666667-86.93333333 37.12-37.22666667 66.24-80.53333333 86.61333333-128.74666667C906.66666667 491.62666667 917.33333333 438.61333333 917.33333333 384c0-54.72-10.66666667-107.84-31.78666666-157.76-20.37333333-48.21333333-49.6-91.62666667-86.93333334-128.85333333-37.22666667-37.22666667-80.64-66.45333333-128.85333333-86.93333334C619.84-10.66666667000004 566.72-21.33333332999996 512-21.33333332999996c-54.72 0-107.84 10.66666667-157.76 31.78666666-35.09333333 14.82666667-67.62666667 34.34666667-97.06666667 58.24l285.12 284.90666667 12.48 12.48 0.10666667 17.6 1.17333333 403.30666667M513.49333333 832l-1.38666666-448.10666667L195.2 67.20000000000005c81.06666667-81.06666667 193.06666667-131.2 316.8-131.2 247.46666667 0 448 200.53333333 448 448 0 246.93333333-199.78666667 447.14666667-446.50666667 448z"  horiz-adv-x="1024" />

    
    <glyph glyph-name="home" unicode="&#58891;" d="M966.656 393.142857a34.157714 34.157714 0 1 1 46.445714 50.029714L535.259429 886.857143a34.157714 34.157714 0 0 1-46.518858 0L10.971429 443.245714a34.157714 34.157714 0 0 1 46.445714-50.029714L512 815.250286l454.656-422.107429zM580.242286 213.357714V-25.6c0-18.870857 15.36-34.157714 34.157714-34.157714h238.957714a34.157714 34.157714 0 0 1 34.084572 34.157714V384a34.157714 34.157714 0 0 1-68.242286 0v-375.442286H648.557714V247.442286A34.157714 34.157714 0 0 1 614.4 281.6H406.747429a34.157714 34.157714 0 0 1-34.084572-34.157714v-238.884572H204.8V384a34.157714 34.157714 0 0 1-68.242286 0v-409.6c0-18.870857 15.286857-34.157714 34.084572-34.157714h236.105143a34.157714 34.157714 0 0 1 34.157714 34.157714V213.357714h139.337143z m273.115428 546.084572v-102.4a34.157714 34.157714 0 0 1 68.242286 0V793.6a34.157714 34.157714 0 0 1-34.157714 34.157714H716.8a34.157714 34.157714 0 0 1 0-68.315428h136.557714z"  horiz-adv-x="1024" />

    
    <glyph glyph-name="shijianx" unicode="&#58958;" d="M1023.2832 383.7952C1023.2832 66.7648 783.4624-128 512.1024-128 242.3808-128 1.024 84.992 1.024 383.7952A511.488 511.488 0 0 0 512 895.5904a511.488 511.488 0 0 0 511.1808-511.7952zM512.1024 822.4768A438.272 438.272 0 0 1 74.0352 383.7952a438.272 438.272 0 0 1 438.0672-438.5792A438.272 438.272 0 0 1 950.272 383.7952 438.272 438.272 0 0 1 512 822.4768zM767.6928 347.2384H512.1024a36.4544 36.4544 0 0 0-36.4544 36.5568V676.2496a36.4544 36.4544 0 1 0 73.0112 0v-255.8976h219.136a36.5568 36.5568 0 0 0 0-73.1136z"  horiz-adv-x="1024" />

    
    <glyph glyph-name="map" unicode="&#59363;" d="M946.96485925 2.8879328299999543V731.97188741h-138.77450272c-39.35396347 35.21144098-89.06423309 57.99531457-147.05954764 57.99531456-55.92405333 0-107.70558419-22.78387358-147.05954765-57.99531456H81.1776632v-729.08395458H946.96485925z m-824.36197135 41.4252247V690.54666272h356.25693235c-8.28504494-12.42756741-14.49882864-26.92639605-20.71261235-41.42522469h-14.49882865l-144.98828642-144.98828642c-18.64135111-18.64135111-47.63900839-18.64135111-66.2803595 0l-70.42288197 70.42288197v-28.99765728l55.92405333-55.92405333c12.42756741-12.42756741 31.06891852-20.71261235 47.6390084-20.71261236s35.21144098 6.2137837 47.63900839 20.71261236l138.77450271 138.77450272c-4.14252247-16.57008987-6.2137837-35.21144098-6.21378369-53.85279211 0-49.71026963 16.57008987-95.2780168 45.56774715-132.56071901l-64.20909826-64.20909827c-26.92639605-26.92639605-26.92639605-68.35162075 0-95.2780168l196.76981728-196.76981728h28.99765728L441.57711803 297.00702815c-18.64135111 18.64135111-18.64135111 47.63900839 0 66.2803595l64.20909827 64.20909827 8.28504494-8.28504494 149.13080889-149.13080888 149.13080889 149.13080888c41.42522469 39.35396347 68.35162075 95.2780168 68.35162073 155.3445926 0 43.49648592-12.42756741 82.85044939-35.21144099 115.99062914h62.13783705v-646.23350519H122.6028879z m714.58512593 530.24287605c0-45.56774717-18.64135111-89.06423309-47.6390084-120.13315161l-8.28504493-8.28504494c-2.07126124-2.07126124-6.2137837-4.14252247-8.28504495-8.28504493l-111.84810666-111.84810667-111.84810667 111.84810667c-2.07126124 2.07126124-6.2137837 4.14252247-8.28504494 8.28504493l-8.28504493 8.28504494c-28.99765728 31.06891852-47.63900839 72.4941432-47.6390084 120.13315161 0 95.2780168 78.70792691 173.9859437 173.9859437 173.9859437s178.12846617-78.70792691 178.12846618-173.9859437zM313.15892148 166.51757037000004l80.77918815-80.77918815h28.99765728l-95.27801678 95.2780168c-24.85513482 24.85513482-70.42288197 24.85513482-95.2780168 0L164.02811259 114.73603949999995v-28.99765728l80.77918816 80.77918815c18.64135111 18.64135111 49.71026963 18.64135111 68.35162073 0zM661.13080889 479.2780168c51.78153086 0 95.2780168 43.49648592 95.2780168 95.27801678s-43.49648592 95.2780168-95.2780168 95.27801679-95.2780168-43.49648592-95.27801679-95.27801679 43.49648592-95.2780168 95.27801679-95.27801678z m-74.56540444 95.27801678c0 41.42522469 33.14017975 74.56540445 74.56540444 74.56540445s74.56540445-33.14017975 74.56540444-74.56540445-33.14017975-74.56540445-74.56540444-74.56540444-74.56540445 33.14017975-74.56540444 74.56540444z"  horiz-adv-x="1024" />

    
    <glyph glyph-name="qiyexinxi" unicode="&#58933;" d="M352 608h-64a32 32 0 0 1 0-64h64a32 32 0 0 1 0 64zM352 480h-64a32 32 0 0 1 0-64h64a32 32 0 0 1 0 64zM352 352h-64a32 32 0 0 1 0-64h64a32 32 0 0 1 0 64zM352 224h-64a32 32 0 0 1 0-64h64a32 32 0 0 1 0 64zM544 608h-64a32 32 0 0 1 0-64h64a32 32 0 0 1 0 64zM544 480h-64a32 32 0 0 1 0-64h64a32 32 0 0 1 0 64zM544 352h-64a32 32 0 0 1 0-64h64a32 32 0 0 1 0 64zM544 224h-64a32 32 0 0 1 0-64h64a32 32 0 0 1 0 64zM960 32h-64v576a64 64 0 0 1-64 64h-128v64a64 64 0 0 1-64 64H192a64 64 0 0 1-64-64v-704H64a32 32 0 0 1 0-64h896a32 32 0 0 1 0 64z m-768 0v704h448v-704H192z m512 0v576h128v-576h-128z"  horiz-adv-x="1024" />

    
    <glyph glyph-name="fenxiang" unicode="&#59268;" d="M832 320a32 32 0 0 1-32-32l0.256-192L224 95.744 223.744 672H416a32 32 0 0 1 0 64H223.744A63.84 63.84 0 0 1 160 672.256v-576.512C160 60.608 188.608 32 223.744 32h576.512A63.84 63.84 0 0 1 864 95.744V288a32 32 0 0 1-32 32M800.544 736H640a32 32 0 0 1 0-64l114.944 0.192-265.6-265.568a32 32 0 0 1 45.28-45.248l265.664 265.632v-115.264a32 32 0 1 1 64 0V672.256A63.84 63.84 0 0 1 800.544 736"  horiz-adv-x="1024" />

    
    <glyph glyph-name="fenlei1" unicode="&#58902;" d="M906.19904 779.61216H115.92704c-34.31424 0-62.14656-27.83744-62.14656-62.17216v-0.29696c0-34.33984 27.83232-62.17216 62.14656-62.17216h790.272c34.30912 0 62.15168 27.83744 62.15168 62.17216v0.29696c0 34.33472-27.84256 62.17216-62.15168 62.17216z m-0.31744-331.05408H116.2496c-34.5088 0-62.46912-27.98592-62.46912-62.47424v-0.49152c0-34.48832 27.9552-62.46912 62.46912-62.46912H905.8816c34.5088 0 62.46912 27.9808 62.46912 62.46912v0.49152c0 34.48832-27.96032 62.47424-62.46912 62.47424z m0.31744-331.84768H115.92704c-34.31424 0-62.14656-27.84256-62.14656-62.17728v-0.29696c0-34.33984 27.83232-62.17728 62.14656-62.17728h790.272c34.30912 0 62.15168 27.83744 62.15168 62.17728v0.29696c0 34.33472-27.84256 62.17728-62.15168 62.17728z"  horiz-adv-x="1024" />

    
    <glyph glyph-name="map1" unicode="&#58895;" d="M456.8-98.4c27.2-30.4 72.8-30.4 100 0.8 2.4 2.4 7.2 8 14.4 16 12 12.8 24.8 28 38.4 44.8 40 47.2 80 98.4 117.6 150.4s70.4 103.2 96.8 151.2c49.6 88.8 76.8 165.6 76.8 228.8 0.8 222.4-176 402.4-394.4 402.4s-394.4-180-394.4-402.4c0-63.2 27.2-140.8 76.8-229.6 27.2-48 60-99.2 96.8-151.2 37.6-52 77.6-103.2 117.6-150.4 14.4-16.8 27.2-32 38.4-44.8 8-8 12.8-13.6 15.2-16zM492-65.6c-2.4 2.4-7.2 8-14.4 16-11.2 12.8-24 28-37.6 44-39.2 46.4-78.4 96.8-115.2 147.2-36.8 51.2-68.8 100-94.4 146.4-45.6 82.4-70.4 152.8-70.4 205.6 0 195.2 155.2 353.6 346.4 353.6s347.2-158.4 347.2-353.6c0-52.8-24.8-123.2-70.4-204.8-25.6-46.4-57.6-96-94.4-146.4-36.8-51.2-76-100.8-115.2-147.2-13.6-16-26.4-31.2-37.6-44-7.2-8-12-12.8-14.4-16-8.8-9.6-20.8-10.4-29.6-0.8zM506.4 317.6c-108 0-196 88-196 196s88 196 196 196 196-88 196-196-88-196-196-196zM506.4 661.6c-81.6 0-148-66.4-148-148s66.4-148 148-148 148 66.4 148 148-66.4 148-148 148z"  horiz-adv-x="1024" />

    
    <glyph glyph-name="huanbao" unicode="&#58946;" d="M1024-62.045298c0-18.855253-15.27808-34.133333-34.133333-34.133333H34.133333c-18.855253 0-34.133333 15.27808-34.133333 34.133333s15.27808 34.133333 34.133333 34.133334h267.760071v76.795448H187.71968a34.142436 34.142436 0 0 0-33.191253 42.10688L333.983289 838.018844a34.137884 34.137884 0 0 0 66.382507 0l83.453724-347.413617c-56.984462-51.413902-92.874524-125.792711-92.874524-208.40448a278.846578 278.846578 0 0 1 34.624853-134.913138c1.752178-2.325618 3.231289-4.869689 4.346311-7.604907a282.974436 282.974436 0 0 1 85.856711-90.799218H432.451129v-76.795448h172.701013v108.389262c-84.659769 27.984782-145.94048 107.80672-145.94048 201.728 0 117.1456 95.304818 212.454969 212.454969 212.454969s212.450418-95.304818 212.450418-212.454969c0-93.916729-61.280711-173.743218-145.935929-201.728v-108.389262H989.866667a34.133333 34.133333 0 0 0 34.133333-34.133334z"  horiz-adv-x="1024" />

    
    <glyph glyph-name="shuangyuanquan" unicode="&#58964;" d="M510.691 831.432c-246.548 0-447.125-200.578-447.125-447.125 0-246.543 200.578-447.125 447.125-447.125 246.543 0 447.125 200.582 447.125 447.125 0 246.548-200.582 447.125-447.125 447.125zM510.691 32.511c-193.982 0-351.796 157.814-351.796 351.796s157.814 351.796 351.796 351.796 351.796-157.814 351.796-351.796-157.814-351.796-351.796-351.796zM296.2 384.307c0-118.46 96.031-214.491 214.491-214.491s214.491 96.031 214.491 214.491c0 118.46-96.031 214.491-214.491 214.491-118.46 0-214.491-96.031-214.491-214.491 0-0 0-0 0-0z"  horiz-adv-x="1024" />

    
    <glyph glyph-name="ditumoshi" unicode="&#58885;" d="M512 283.4L333.4 462l35.8 35.8 143-143 143 143 35.8-35.8-179-178.6z m178.6 178.6l-35.8 35.8c79 79 79 206.8 0 285.8-78.8 78.8-206.8 78.8-285.6-0.2-79-79-79-206.8 0-285.8L333.4 462c-98.6 98.6-98.6 258.6 0 357.2 98.6 98.6 258.6 98.6 357.2 0 98.6-98.6 98.6-258.6 0-357.2zM512 590c-18 0-34.8 9.6-43.8 25.2s-9 34.8 0 50.6c9 15.6 25.8 25.2 43.8 25.2 28 0 50.6-22.6 50.6-50.6 0-27.8-22.6-50.4-50.6-50.4z m-158.8-432.4c-6.8 6.4-9.4 15.8-7.2 24.6 2.2 9 9.2 16 18.2 18.2 9 2.2 18.4-0.4 24.8-7.2l131-131 401.4 401.4h-106.2v50.6h126.2c20 0 39.4-7.8 53.6-22 14.2-14.2 22.2-33.4 22.4-53.6v-455.2c-0.2-41.8-34-75.6-75.8-75.6H82.6c-20 0-39.4 7.8-53.6 22-14.2 14.2-22.2 33.4-22.2 53.4V438.8c0 20.2 8 39.4 22.2 53.6 14.2 14.2 33.6 22 53.6 22h126.2v-50.6h-126c-6.8 0.2-13.2-2.4-18-7.2-4.8-4.8-7.4-11.2-7.4-17.8v-357.8l236.8 236.8c4.8 4.8 11.2 7.4 17.8 7.4 6.6 0 13-2.8 17.8-7.4 9.8-9.8 9.8-26 0.2-35.6L60.2 12.4c-1-1-1.8-1.8-3-2.6v-26.2c0-13.8 11.2-25 25.4-25H552l-198.8 199z m588.2-199c14 0 25.2 11.2 25.4 25V438c-0.8-1-1.6-1.8-2.4-2.6L555.6 26.4l64.2-64.2c1.2-1.2 2.2-2.4 3.2-3.8h318.4v0.2z"  horiz-adv-x="1024" />

    
    <glyph glyph-name="dituzhaofang" unicode="&#58886;" d="M482.4 55.8c7.4-8.4 18-13.4 29.4-13.4 11.2 0 21.8 4.8 29.4 13.4 9.4 10.8 19.6 22.4 30.2 34.4 117 132.2 280 305 280 468.6C851.4 744.8 700.2 896 514.2 896 328 896 176.8 744.6 176.8 558.6c0-160.2 154.8-330.6 269.4-461.4 13-14.4 25.2-28.4 36.2-41.4z m31.8 791.2c155.4 0 281.6-126.2 281.4-281.6 0-192.8-199.4-351.6-281.2-458.2-82.4 101.8-281.8 266.4-281.8 458.4 0 155.2 126.2 281.4 281.6 281.4zM1021.8-90.4L892 206.6c-4.2 9.4-13.4 15.4-23.6 15.4h-96c-14.2 0-25.8-11.6-25.8-25.8s11.6-25.8 25.8-25.8H852l107-245.4H67.4l118.2 245.4h67.2c14.2 0 25.8 11.6 25.8 25.8s-11.6 25.8-25.8 25.8H169.4c-10 0-18.8-5.6-23.4-14.6L2.8-89.6c-4-8-3.6-17.4 1.2-25 4.6-7.4 13-12 21.8-12h972.6c8.8 0 16.8 4.2 21.4 11.4 4.8 7.4 5.6 16.6 2 24.8zM644 573.6c0 71.6-58.2 129.8-129.8 129.8s-129.8-58.2-129.8-129.8c0-71.6 58.2-129.8 129.8-129.8S644 502 644 573.6z m-129.8-78.2c-43 0-78.2 35-78.2 78.2s35 78.4 78.2 78.4 78.4-35.2 78.4-78.4c-0.2-43.2-35.2-78.2-78.4-78.2z"  horiz-adv-x="1024" />

    
    <glyph glyph-name="quxiao1" unicode="&#58925;" d="M512 832a448 448 0 1 1 0-896A448 448 0 0 1 512 832z m180.992-583.744a32.32 32.32 0 0 0 0-45.248 32.32 32.32 0 0 0-45.248 0L512 338.752l-135.744-135.744a32.32 32.32 0 0 0-45.248 0 32.32 32.32 0 0 0 0 45.248L466.752 384 331.008 519.744a32.32 32.32 0 0 0 0 45.248 32.32 32.32 0 0 0 45.248 0L512 429.248l135.744 135.744a32.32 32.32 0 0 0 45.248 0 32.32 32.32 0 0 0 0-45.248L557.248 384l135.744-135.744z"  horiz-adv-x="1024" />

    
    <glyph glyph-name="icon_zhengqiutarenyijian" unicode="&#59541;" d="M921.6 844.8H102.4A102.4 102.4 0 0 1 0 742.4v-563.2a102.4 102.4 0 0 1 102.4-102.4h51.2v-153.6l192 153.6h576a102.4 102.4 0 0 1 102.4 102.4V742.4A102.4 102.4 0 0 1 921.6 844.8zM542.912 176.512a63.232 63.232 0 0 0-63.808 62.464c0 34.496 28.544 62.464 63.808 62.464 35.136 0 63.808-28.032 63.808-62.464a63.168 63.168 0 0 0-63.808-62.464z m171.264 353.536c-12.544-19.648-39.04-46.4-79.744-80.256-21.056-17.472-34.176-31.616-39.232-42.304-5.056-10.624-7.424-29.696-6.976-57.216H497.408l-0.384 23.872c0 29.376 4.864 53.568 14.592 72.512 9.728 19.008 29.184 40.32 58.304 64 29.12 23.744 46.592 39.232 52.288 46.592a62.528 62.528 0 0 1 13.184 38.336c0 19.392-7.872 35.968-23.36 49.856-15.488 13.824-36.544 20.736-62.912 20.736-25.408 0-46.72-7.232-63.808-21.696-17.024-14.336-31.744-46.144-35.2-65.792-3.264-18.624-92.8-26.432-91.712 11.2 1.088 37.632 20.672 78.464 54.272 108.096 33.6 29.632 77.696 44.416 132.224 44.416 57.408 0 103.04-14.976 137.024-44.992 33.984-30.016 50.88-64.896 50.88-104.704 0.064-22.08-6.208-42.944-18.624-62.656z"  horiz-adv-x="1024" />

    
    <glyph glyph-name="hetongbeian" unicode="&#58936;" d="M601.569 831.845H243.293c-49.263 0-89.121-40.306-89.121-89.569l-0.448-716.552c0-49.263 39.858-89.569 89.121-89.569h537.862c49.263 0 89.569 40.306 89.569 89.569V563.138L601.569 831.845z m89.569-716.552H332.862v89.569h358.276v-89.569z m0 179.138H332.862V384h358.276v-89.569zM556.784 518.353V764.668l246.315-246.315H556.784z"  horiz-adv-x="1024" />

    
    <glyph glyph-name="beian1" unicode="&#59785;" d="M352 224h320c17.7 0 32 14.3 32 32s-14.3 32-32 32H352c-17.7 0-32-14.3-32-32s14.3-32 32-32zM736 128H288c-17.7 0-32-14.3-32-32s14.3-32 32-32h448c17.7 0 32 14.3 32 32s-14.3 32-32 32zM832 896H192c-35.3 0-64-28.7-64-64v-896c0-35.3 28.7-64 64-64h640c35.3 0 64 28.7 64 64V832c0 35.3-28.7 64-64 64z m0-960H192V832h640v-896zM393.3 370.8L512 433.2l118.7-62.4L608 502.9l96 93.6-132.7 19.3L512 736l-59.3-120.2L320 596.5l96-93.6z"  horiz-adv-x="1024" />

    
    <glyph glyph-name="shujubiao" unicode="&#59134;" d="M398.222222 440.888889h56.888889v-398.222222H398.222222zM568.888889 327.111111h56.888889v-284.444444h-56.888889zM739.555556 497.777778h56.888888v-455.111111h-56.888888zM56.888889 839.111111h910.222222v-910.222222H56.888889V839.111111z m56.888889-56.888889v-796.444444h796.444444V782.222222H113.777778zM227.555556 270.222222h56.888888v-227.555555H227.555556zM193.422222 361.244444l-45.511111 45.511112 244.622222 238.933333 170.666667-113.777778 210.488889 216.177778 45.511111-45.511111-244.622222-238.933334-170.666667 113.777778z"  horiz-adv-x="1024" />

    
    <glyph glyph-name="qizi" unicode="&#59179;" d="M853.333333 213.333333l-113.777777 284.444445 113.777777 284.444444H227.555556V839.111111H170.666667v-853.333333H113.777778v-56.888889h170.666666v56.888889H227.555556v227.555555h625.777777z m-85.333333 512l-91.022222-227.555555 91.022222-227.555556H227.555556V725.333333h540.444444z"  horiz-adv-x="1024" />

    
    <glyph glyph-name="shuju7" unicode="&#58932;" d="M1024 429.2H557.4V896c121.9-7.3 236.3-58.4 322.3-144.4 85.9-85.9 137-200.3 144.3-322.4zM120.7 42.299999999999955C42.9 132.20000000000005 0 246.29999999999995 0 364.4 0 496 51.2 619.6 144.3 712.6c83.5 83.5 194.6 134 312.9 142.5v-477.2L120.7 42.299999999999955z m372-170.3c131.5 0 255 51.2 347.9 144.1 83.7 83.7 134.2 194.8 142.6 313.1l-475 1.5-337.9-338c90-77.9 204.1-120.7 322.1-120.7h0.3z"  horiz-adv-x="1024" />

    
    <glyph glyph-name="beian2" unicode="&#58915;" d="M601.569 831.845H243.293c-49.263 0-89.121-40.306-89.121-89.569l-0.448-716.552c0-49.263 39.858-89.569 89.121-89.569h537.862c49.263 0 89.569 40.306 89.569 89.569V563.138L601.569 831.845z m89.569-716.552H332.862v89.569h358.276v-89.569z m0 179.138H332.862V384h358.276v-89.569zM556.784 518.353V764.668l246.315-246.315H556.784z"  horiz-adv-x="1024" />

    
    <glyph glyph-name="shuju" unicode="&#59402;" d="M242.5 392c10.3 0 18.7 8.4 18.7 18.6V806.5c0 10.3-8.4 18.7-18.7 18.7-10.3 0-18.6-8.4-18.6-18.7v-395.8c0-10.3 8.3-18.7 18.6-18.7zM382 552.9c10.3 0 18.7 8.4 18.7 18.7V806.5c0 10.3-8.4 18.7-18.7 18.7-10.3 0-18.7-8.4-18.7-18.7v-234.9c0.1-10.3 8.4-18.7 18.7-18.7zM521.6 473.7c10.3 0 18.7 8.4 18.7 18.7V806.5c0 10.3-8.4 18.7-18.7 18.7-10.3 0-18.7-8.4-18.7-18.7v-314.1c0-10.3 8.3-18.7 18.7-18.7zM661.1 643.3c10.3 0 18.6 8.4 18.6 18.7V806.5c0 10.3-8.3 18.7-18.6 18.7s-18.7-8.4-18.7-18.7v-144.6c0-10.3 8.4-18.6 18.7-18.6zM940.1 567.1c-10.3 0-18.6-8.4-18.6-18.7v-551H819.2V423c0 10.3-8.3 18.6-18.6 18.6s-18.7-8.3-18.7-18.6v-425.6H679.7V225.5c0 10.3-8.3 18.7-18.6 18.7s-18.7-8.4-18.7-18.7v-228.1H540.2V134.7c0 10.3-8.4 18.7-18.7 18.7-10.3 0-18.7-8.4-18.7-18.7v-137.3H400.7V166.9c0 10.3-8.4 18.7-18.7 18.7-10.3 0-18.7-8.4-18.7-18.7v-169.5H261.2v18c0 10.3-8.4 18.6-18.7 18.6-10.3 0-18.6-8.3-18.6-18.6v-18h-79.5L393 361.5l144.5-90.2c12.6-7.9 29.2-4.5 37.8 7.7l311.8 446.1 12.6-65.7c2.6-13.4 14.3-22.7 27.5-22.7 1.7 0 3.5 0.2 5.3 0.5 15.2 2.9 25.1 17.5 22.2 32.7L930 798.5c-1.4 7.3-5.6 13.7-11.8 17.9-6.1 4.2-13.7 5.7-21 4.3L768.6 796.2c-15.2-2.9-25.1-17.6-22.2-32.7 2.9-15.2 17.5-25.2 32.7-22.2l58.8 11.3-293.3-419.8-144.7 90.3c-12.7 8-29.5 4.4-37.9-7.9L119.3 60V794.6c0 15.5-12.5 28-28 28s-28-12.5-28-28v-825.2c0-0.4 0.1-0.7 0.1-1 0.1-1.5 0.2-2.9 0.4-4.4 0.2-0.8 0.5-1.6 0.7-2.4 0.3-0.9 0.5-1.9 0.9-2.8 0.3-0.8 0.8-1.6 1.2-2.3 0.4-0.8 0.8-1.7 1.3-2.5 0.5-0.7 1.1-1.4 1.7-2.1 0.6-0.7 1.1-1.5 1.8-2.1 0.9-0.9 1.9-1.7 2.9-2.5 0.4-0.3 0.7-0.7 1.2-1h0.1c0.1-0.1 0.3-0.2 0.5-0.3 1.3-0.8 2.5-1.5 3.9-2.1 0.5-0.2 0.9-0.4 1.4-0.5 1.1-0.4 2.3-0.8 3.5-1.1 0.5-0.1 1-0.2 1.4-0.3 1.7-0.3 3.3-0.5 5-0.5h837.1c10.5 0 19.5 5.8 24.3 14.3 3.7 3.4 6.1 8.2 6.1 13.7v579c-0.1 10.2-8.4 18.6-18.7 18.6z"  horiz-adv-x="1024" />

    
    <glyph glyph-name="sure" unicode="&#58956;" d="M723.5046 511.565351c-7.766894 7.767917-17.84953 11.570523-28.0171 11.975752-11.277858 0.466628-22.682605-3.332908-31.326473-11.975752l-194.121186-194.10072L359.856369 427.646056c-8.641821 8.642844-20.064988 12.44238-31.348985 11.975752-10.165524-0.405229-20.22974-4.207835-27.993564-11.975752-7.765871-7.743358-11.546987-17.825994-11.973706-27.991518-0.445138-11.283997 3.334955-22.709211 11.973706-31.327496l139.865491-139.864468c8.193613-8.192589 18.928095-12.300141 29.661553-12.300141 10.733459 0 21.467941 4.107551 29.68202 12.300141l223.783763 223.783763c8.618285 8.617261 12.421914 20.043499 11.954263 31.327496C735.051587 493.738333 731.250004 503.820969 723.5046 511.565351zM512.000512 831.568549c-247.165286 0-447.568549-200.404286-447.568549-447.568549 0-247.159146 200.404286-447.567525 447.568549-447.567525 247.162216 0 447.566502 200.408379 447.566502 447.567525C959.567014 631.164263 759.162728 831.568549 512.000512 831.568549zM512.000512 20.351769999999988c-200.508663 0-363.650277 163.143661-363.650277 363.64823 0 200.506617 163.140591 363.649254 363.650277 363.649254 200.505593 0 363.647207-163.142637 363.647207-363.649254C875.647719 183.49440700000002 712.506105 20.351769999999988 512.000512 20.351769999999988z"  horiz-adv-x="1024" />

    
    </font>
</defs>
</svg>
