<svg width="375" height="491" viewBox="0 0 375 491" fill="none" xmlns="http://www.w3.org/2000/svg">
<path d="M239.888 166.575L239.175 167.4L238.388 167.887L237.675 167.625L237.113 167.962L235.725 169.425L234.225 170.7L233.213 171.637L232.013 172.05L231.263 172.65L230.738 173.587L228.9 174.9L227.625 176.775L226.988 178.162L226.238 179.55L226.65 180.3L227.438 181.012L226.575 183.937L221.588 186L219.488 185.325L218.588 183.525L217.2 182.325L216.188 181.612L215.438 180.75L214.65 181.5L214.05 182.475L213.75 183.637L213.338 184.875L211.613 184.725L209.775 184.087L208.838 183.45L207.825 184.125L206.85 185.437L205.65 185.512L204.713 184.912L204 186.112L203.25 187.725L202.838 189.262L204 190.725L204.863 192.375L200.625 191.737L198.375 190.725L197.1 192.675L195 193.65L193.163 194.887L193.013 195.787L193.05 196.462L192.713 197.212L191.4 199.012L190.538 199.95L189.675 200.1L188.775 200.512L189.45 202.2L191.775 202.612L194.663 206.85L193.613 207.9L193.013 209.587L192.788 213.6L192.413 215.362L192.788 216.637L193.463 217.8L192.6 219.487L191.288 220.65L191.625 224.137L194.025 223.575L195.45 224.062L197.138 225.45L198.3 226.012L201.338 225.262L202.65 226.275L203.325 230.1L202.088 230.025L200.663 229.762L199.2 231L199.538 232.987L199.575 233.962L199.425 235.2L198.863 235.875L198.413 236.7L197.888 238.575L196.988 240.375L195.488 240.9L194.063 241.575L193.313 242.4L192.525 243.075L191.663 242.625L190.8 241.8L188.625 242.775L186.713 243.937L185.738 243.675L185.213 243L182.55 242.1L181.65 241.05L180.638 240.45L180.263 240.975L179.775 241.087L179.213 240.562L178.725 239.962L177.375 237.862L176.138 235.725L175.65 233.175L175.725 230.662L175.125 228.45L173.288 227.325L171.525 226.762L169.613 227.175L169.463 225.075L169.575 223.05L170.288 220.2L171.6 217.762L172.163 216.525L172.763 215.437L173.738 214.687L173.963 213.412L173.213 213.15L172.388 212.775L171.375 213.525L170.588 214.575L169.988 212.625L169.875 211.312L169.163 210.9L169.238 210.075L168.413 209.887L167.738 210.862L165.825 211.312L164.025 210.787L164.25 209.512L163.913 208.687L163.388 208.425L162.975 207.975L162.75 207.412L162.9 206.85L163.163 206.137L163.275 205.35L163.163 204.6L162.975 204.15L163.088 203.587L163.388 202.875L163.425 202.087L158.925 201.787L154.538 202.687L154.8 200.4L155.55 198.262L155.438 197.025L156.6 194.512L158.25 192.112L159.488 189.937L160.013 189.412L160.575 189.487L161.1 189.337L161.4 188.775L161.513 188.137L161.663 187.312L161.963 186.562L162.113 185.7L162 184.875L161.588 184.125L161.1 183.675L161.175 182.137L160.388 181.612L159.375 179.55L158.588 179.062L157.875 178.35L157.388 177.225L160.05 176.475L162.6 175.237L164.55 174.562L165.113 172.387L166.05 171.337L167.588 170.7L168.3 169.762L168.788 168.525L169.725 167.55L170.888 167.775L171.225 168.225L172.688 167.175L175.538 161.887L176.175 160.687L177.113 159.975L177.6 159.262L178.013 158.475L184.275 156.75L190.575 155.887L190.05 159.487L191.888 159.037L193.688 159.187L194.7 159.75L195.15 159.337L195.563 158.85L196.763 158.025L196.425 154.387L197.55 153L200.588 151.987L202.838 154.387V156L203.588 157.012L205.538 156.562L207.488 155.437L208.688 154.537L210.113 154.837L211.275 154.2L212.663 153.15L215.963 154.312L219.338 154.875L220.425 155.175L219.75 156.75L218.025 157.987L217.013 159.562L217.65 160.275L218.475 160.762H219.038L219.563 160.5L221.363 159.9L224.175 159.6L224.775 160.237L224.663 161.287L225.863 162.525L226.275 163.5L227.363 163.425L228.638 163.2L230.063 162.75L231.488 162.712L232.875 163.8L234.45 164.812L235.988 165.112L237.525 165.3L238.725 165.825L239.888 166.575Z" fill="#0F2659" stroke="#2A82B6" stroke-linecap="round" stroke-linejoin="round"/>
<path d="M116.85 130.762L117.225 131.662L116.925 131.812L116.4 132.187L116.213 132.45L115.163 132.675L114.713 132.6L112.688 133.5L111.938 134.175L111.525 134.925L108.938 136.875L108.375 136.762H107.588L107.325 135.825L106.875 135.525L106.65 135.787L106.35 135.075L105.975 135L105.375 135.637L104.925 135.412L104.288 135.262L104.663 134.887L104.55 134.475L103.913 133.875L103.725 133.462L103.95 132.9L104.325 132.825L104.813 133.05L107.513 131.175L109.425 130.95L110.738 130.987L111.938 130.35L112.35 128.662L113.175 128.362L113.888 129.075L114.9 129.525L115.575 129.6L116.063 129.862L116.513 130.462L116.85 130.762ZM125.363 140.137L125.213 139.612L122.1 139.237L120.638 141.075L119.138 139.95L119.738 138.562L120.525 137.4L120.038 136.537L118.013 135.45L118.125 134.1L117.938 133.012L118.538 132L120.225 131.512L120.75 131.25L120.863 130.612L120.075 130.387L119.85 131.062L118.613 131.175L118.313 130.425L118.163 129.075L118.463 127.237L124.2 127.05L127.725 130.425L127.688 132.187L128.325 133.65L129.3 134.287L129.863 135.187L129.3 137.062L128.475 138.675L127.238 139.575L125.363 140.137Z" fill="#0F2659" stroke="#2A82B6" stroke-linecap="round" stroke-linejoin="round"/>
<path d="M285.75 196.688L285.15 196.65L283.163 196.2L281.25 197.062L277.163 195.525L277.8 193.763L277.613 192.112L277.088 190.275L276.938 188.212L277.725 186.225L278.363 184.388L277.913 183.825L277.388 183.337L277.65 181.65L273.3 181.312L272.025 180.6L270.638 180L270.075 178.65L269.663 177.075L267.713 176.138L266.475 174.3L266.213 171.862L266.625 170.025L267.638 169.275L268.763 168.862L270.488 169.538L271.913 168.487L271.313 166.763L269.475 165.638L267.45 165.188L265.838 166.013L264.263 166.425L262.088 165.413L259.763 165.038L258.975 165.337L258.338 165.263L257.813 164.587L257.1 164.288L255.413 165.6L253.65 166.312L253.5 165L253.65 163.725L252.6 163.2L251.475 162.938L250.65 161.475L249 161.325L247.388 162.112L246.338 163.425L246.713 165.263L246.525 166.95L246.188 168.525L244.65 168.413L242.888 168L241.425 167.4L239.888 166.575L238.725 165.825L237.525 165.3L235.988 165.112L234.45 164.812L232.875 163.8L231.488 162.712L230.063 162.75L228.638 163.2L227.363 163.425L226.275 163.5L225.863 162.525L224.663 161.288L224.775 160.237L224.175 159.6L221.363 159.9L219.563 160.5L219.038 160.763H218.475L217.65 160.275L217.013 159.562L218.025 157.987L219.75 156.75L220.425 155.175L219.338 154.875L215.963 154.312L212.663 153.15L211.275 154.2L210.113 154.837L208.688 154.538L207.488 155.438L205.538 156.562L203.588 157.013L202.838 156V154.388L200.588 151.987L197.55 153L196.425 154.388L196.763 158.025L195.563 158.85L195.15 159.337L194.7 159.75L193.688 159.188L191.888 159.038L190.05 159.487L190.575 155.888L184.275 156.75L178.013 158.475L181.2 152.513L183.863 145.987L187.5 138.188L187.95 136.5L187.613 134.812L188.4 133.462L189.488 132.113L190.688 131.625L191.288 130.312L190.613 129.15L189.75 128.4L188.325 128.25L186.863 127.688L184.875 127.425L181.538 125.587L180.038 124.95L178.538 123.975L176.925 123.712L175.313 124.238L174 123.113L174.113 121.875L174.75 120.6L174.975 119.137L175.013 117.6L173.438 118.125L172.725 117.225L174.45 115.163L174.15 113.812L173.7 112.462L174.038 111.45L174 110.212L173.888 109.05L176.925 106.837L178.125 106.425L178.8 105.375L179.1 102.337L177.713 100.163L176.55 99.9375L175.463 99.45L174.638 97.2L173.325 97.1625L171.9 97.2375L170.4 96.1125L169.65 94.125L169.35 90.5625L168.788 88.8L168.375 88.425L167.925 88.5375L167.588 88.8375L167.213 88.875L166.2 88.1625L163.725 89.025L161.438 88.5L160.538 87.9375L159.6 87.075L159.563 85.65L160.013 84.3L160.613 83.325L160.2 82.9875L159.713 82.875L159.225 82.95L158.813 83.2875L158.025 84.3L157.125 85.2L155.775 85.425L154.613 84.6375L154.388 83.8875L154.275 83.1375L153.863 82.875L153.413 83.3625L153.263 84.1125L153.225 86.5875L152.475 87.825L150.3 86.775L148.313 84.975L147.6 84.225L146.85 84.3375L146.213 83.3625L145.8 82.125L145.238 81.4875L144.6 80.9625L144.113 79.7625L141.15 77.8875L139.95 77.2875L140.325 76.875L143.55 74.175L147.338 71.8125L151.313 70.1625L155.138 69.75L157.05 69.975L164.363 69.3375L169.988 71.025L171.788 70.875L175.275 69.825L186.713 68.8125L187.2 69.15L187.95 70.2375L188.663 70.9875L189.488 71.175L193.425 70.35L199.65 70.725L203.7 70.3875L207.75 68.9625L211.538 66.4875L214.688 63.1875L216.075 61.2L217.238 59.1L217.988 56.7375L218.25 54.075L217.763 51.45L217.613 50.1375L217.988 49.1625L219.6 47.8875L222.975 46.125L227.513 55.125L228.075 57.525L229.463 61.1625L234.713 71.55L238.8 82.4625L239.475 83.625L241.575 86.2875L242.4 88.5L252.3 102.675L256.125 108.262L260.738 113.363L261.375 113.887L264.45 117.525L264.638 119.062V120.9L265.013 122.475L267.113 123.637L267.713 124.913L269.438 130.575L270.225 131.85L271.163 132.413L271.913 133.238L274.613 138.562L276.263 140.587L276.825 141.712L277.013 142.913L277.425 144.075L280.313 147.225L281.213 149.812L282.038 155.475L283.125 158.55L286.2 162.825L286.425 163.688L286.05 164.55L285.525 165.375L285.15 166.2V166.913L285.563 169.237L286.088 175.875L286.65 178.95L288.6 185.175L288.788 188.25L288.15 191.062L286.838 193.65L285.75 196.688Z" fill="#0F2659" stroke="#2A82B6" stroke-linecap="round" stroke-linejoin="round"/>
<path d="M149.4 125.025L148.837 127.163L150.487 127.125L151.875 126.638L153.075 126.6L153.525 127.688L153.375 128.813L152.55 129.225L151.65 129.825V131.175L152.138 131.738L151.125 133.125L150.562 134.1L149.025 135L147.337 135.413L145.575 136.275L144.9 134.738L143.438 135.075L141.938 135.525L140.925 136.125L139.837 136.313L137.288 136.2L135.525 133.913L133.8 133.388L132.638 132.638L132.337 130.463L131.138 128.813L129.75 127.088L130.612 125.175L132.3 125.25L134.175 126.413L135.6 125.963L136.875 125.175L136.95 123.9L137.288 122.7L139.95 122.438L141.337 120.713L142.163 118.913L143.362 117.675L145.2 117.225L147.337 117.375L148.35 119.138L148.763 121.538L149.362 123.188L149.4 125.025Z" fill="#0F2659" stroke="#2A82B6" stroke-linecap="round" stroke-linejoin="round"/>
<path d="M178.013 158.475L177.6 159.263L177.113 159.975L176.175 160.688L175.538 161.888L172.688 167.175L171.225 168.225L170.888 167.775L169.725 167.55L168.788 168.525L168.3 169.763L167.588 170.7L166.05 171.338L165.113 172.388L164.55 174.563L162.6 175.238L160.05 176.475L157.388 177.225L154.613 176.85L152.325 174.938L149.738 173.775L144.825 175.875H142.5L139.688 175.313L140.475 174.713L141.375 174.3L142.013 173.588L142.388 171.788L142.275 171.45L141.638 170.7L141.938 170.4H142.575L143.4 169.913L143.925 169.838L144.3 169.575L144.488 168.713L140.925 169.725L140.4 170.475L140.588 172.763L140.138 173.288L138.75 173.738L136.8 173.475L134.475 172.125L132.375 170.025L131.55 168.038L135.113 167.663V167.213L134.325 166.65L134.963 166.575L135.6 166.613L136.2 166.8L136.688 167.213L136.463 165.788L135.638 164.513L135.038 163.088L135.488 161.1L134.813 160.8L134.288 161.475L133.988 162.675L133.875 163.875L133.575 165.188L133.013 165.488L132.45 164.925L131.325 165.15L130.2 165.45L127.463 164.625V163.763L127.2 163.05L127.425 162.038L127.313 160.763L127.988 159.488L128.813 158.363L129.75 157.913L130.763 157.538L132.263 157.5L133.875 157.05L134.213 156.563L134.325 155.175L133.95 154.913L133.125 155.363L131.888 156.45L131.1 156.263L130.538 155.925L130.238 155.363V154.463L128.85 155.175L127.688 156L125.588 158.288L125.025 158.738L124.35 158.963H123.713L123.338 158.55V157.875L123.713 157.2L124.575 155.963L122.85 156.375L122.325 156.188L122.1 155.175L122.438 154.425L123.15 154.013L123.975 153.713L124.575 153.375L125.288 152.4L125.1 152.138L123.525 152.363L123 152.025L122.588 151.238L122.175 150.225L121.725 149.288L121.988 149.213L122.513 148.763L122.963 149.1L123.6 149.063L124.763 148.763L125.7 149.025L126.488 149.513L127.275 149.738L128.175 149.288L128.1 150.15L128.175 150.938L128.475 151.575L129.038 151.838L129.675 151.613L129.938 150.9L130.238 149.288L131.25 147.788L132.075 147.938L133.013 148.5L134.325 148.275L134.025 147.675L133.65 147.225L133.2 146.925L132.638 146.775H131.813L131.438 146.213L130.575 146.063L129.863 146.288L129.15 146.25L128.025 146.025L126.15 145.425L123.563 143.475L123.45 142.613L124.575 140.925L125.363 140.138L127.238 139.575L128.475 138.675L129.3 137.063L129.863 135.188L129.3 134.288L128.325 133.65L127.688 132.188L127.725 130.425L124.2 127.05L118.463 127.238L117.713 125.475L116.588 123.563L115.913 122.888L115.875 121.875L115.65 120.375L115.013 118.013L114.15 111.825L114.375 110.813L115.163 110.663L118.425 111.863L119.475 111.638L120.338 111.225L121.125 111.075L121.913 111.6L122.213 112.5L122.325 113.85L122.25 115.275L121.913 116.25L121.875 118.013L123.713 119.55L126.038 120.525L127.463 120.6L126.338 119.438L122.925 116.963L123.9 114.3L124.2 112.725L123.975 111.6L123.413 110.438L123.3 108.9L123.563 107.4L124.163 106.2L123.713 105.638L123.15 105.713L122.25 106.35L121.838 99.8626L122.138 98.1001L122.85 97.5751L123.975 97.4251L125.475 96.8626L127.838 94.9501L132.938 87.1876L133.95 86.1376L136.238 84.3751L137.213 83.2126L139.238 78.2251L139.95 77.2876L141.15 77.8876L144.113 79.7626L144.6 80.9626L145.238 81.4876L145.8 82.1251L146.213 83.3626L146.85 84.3376L147.6 84.2251L148.313 84.9751L150.3 86.7751L152.475 87.8251L153.225 86.5876L153.263 84.1126L153.413 83.3626L153.863 82.8751L154.275 83.1376L154.388 83.8876L154.613 84.6376L155.775 85.4251L157.125 85.2001L158.025 84.3001L158.813 83.2876L159.225 82.9501L159.713 82.8751L160.2 82.9876L160.613 83.3251L160.013 84.3001L159.563 85.6501L159.6 87.0751L160.538 87.9376L161.438 88.5001L163.725 89.0251L166.2 88.1626L167.213 88.8751L167.588 88.8376L167.925 88.5376L168.375 88.4251L168.788 88.8001L169.35 90.5626L169.65 94.1251L170.4 96.1126L171.9 97.2376L173.325 97.1626L174.638 97.2001L175.463 99.4501L176.55 99.9376L177.713 100.163L179.1 102.338L178.8 105.375L178.125 106.425L176.925 106.838L173.888 109.05L174 110.213L174.038 111.45L173.7 112.463L174.15 113.813L174.45 115.163L172.725 117.225L173.438 118.125L175.013 117.6L174.975 119.138L174.75 120.6L174.113 121.875L174 123.113L175.313 124.238L176.925 123.713L178.538 123.975L180.038 124.95L181.538 125.588L184.875 127.425L186.863 127.688L188.325 128.25L189.75 128.4L190.613 129.15L191.288 130.313L190.688 131.625L189.488 132.113L188.4 133.463L187.613 134.813L187.95 136.5L187.5 138.188L183.863 145.988L181.2 152.513L178.013 158.475ZM149.4 125.025L149.363 123.188L148.763 121.538L148.35 119.138L147.338 117.375L145.2 117.225L143.363 117.675L142.163 118.913L141.338 120.713L139.95 122.438L137.288 122.7L136.95 123.9L136.875 125.175L135.6 125.963L134.175 126.413L132.3 125.25L130.613 125.175L129.75 127.088L131.138 128.813L132.338 130.463L132.638 132.638L133.8 133.388L135.525 133.913L137.288 136.2L139.838 136.313L140.925 136.125L141.938 135.525L143.438 135.075L144.9 134.738L145.575 136.275L147.338 135.413L149.025 135L150.563 134.1L151.125 133.125L152.138 131.738L151.65 131.175V129.825L152.55 129.225L153.375 128.813L153.525 127.688L153.075 126.6L151.875 126.638L150.488 127.125L148.838 127.163L149.4 125.025Z" fill="#0F2659" stroke="#2A82B6" stroke-linecap="round" stroke-linejoin="round"/>
<path d="M111 150.263L110.513 150.863L109.838 151.013L109.388 150.675L108.9 150.713L108.488 150.488L108.375 149.55L108.488 148.575L108.975 147.9L110.025 147.338L111.375 147.45L111.975 147.863L112.2 148.763L111.938 149.1L111.3 149.288L111.075 149.775L111 150.263ZM116.7 147.45L116.925 148.05L117.638 148.463L118.763 148.913L119.063 149.25L119.363 150.225L119.063 150.9L116.025 153.338L114.638 153.488L114.675 153.113L115.313 152.25L115.388 151.725L115.125 151.313L115.875 150.413L115.913 149.513L115.613 148.425L115.163 147.675L114.713 147.15L114.863 147L115.838 147.488L116.663 146.738L116.85 146.813L116.7 147.45ZM104.588 119.063L103.388 119.138L99.3753 115.988L99.9003 115.538L100.125 114.938L100.463 113.513L100.95 112.763L101.288 112.5L101.625 112.388L101.85 112.538L102.075 113.063L102.263 114.45L102.638 115.2L103.013 115.613L104.55 116.888L105.113 117.563L105.225 118.275L104.588 119.063ZM99.0378 107.588L100.163 108.263L101.325 108.225L102.413 108.413L102.975 109.013L102.563 110.363L101.513 111.263L100.238 111.375L97.7628 110.813L96.5253 111.413H95.9628L95.7378 110.588L95.8503 110.325L96.5253 108.263L97.2753 107.55L98.1003 107.325L99.0378 107.588ZM114.038 121.575L113.363 123.15L112.763 123.675L112.313 123.75L111.975 123.563L111.338 122.888L110.888 122.625L110.588 122.738L110.1 123.113L106.988 123.3L105.825 122.738L104.588 121.125L106.425 120.638L106.875 120.338L107.363 119.55L107.288 119.213L106.95 118.988L106.65 118.575L104.55 114.525L104.4 113.888L104.625 113.1L104.588 109.538L104.813 108.713L105.413 108.525L106.8 106.875L107.888 106.613L108.825 107.288L109.725 108.338L110.625 109.163L112.538 110.138L113.288 110.888L113.588 112.088L113.513 112.725L113.213 113.738L113.138 114.188L113.288 114.675L113.813 115.688L113.963 116.25L114.15 118.95L113.963 119.588L114.263 120L114.788 121.125L114.038 121.575Z" fill="#0F2659" stroke="#2A82B6" stroke-linecap="round" stroke-linejoin="round"/>
<path d="M100.875 270.225L100.987 270.638L100.763 271.2L99.675 272.138L98.9625 272.963L98.2875 273.488L97.95 273.563L97.6875 273.3L97.5 272.813L97.6125 272.363L98.25 272.025L97.875 271.725L98.325 271.35L98.55 271.05L99.1125 270.9L99.0375 270.488L99.9375 270.638L100.612 270L100.875 270.225ZM178.725 239.963L179.212 240.563L179.775 241.088L180.263 240.975L180.638 240.45L181.65 241.05L182.55 242.1L185.212 243L185.737 243.675L186.712 243.938L188.625 242.775L190.8 241.8L191.663 242.625L192.525 243.075L193.312 242.4L194.062 241.575L196.5 245.738L196.2 250.425L194.025 252.75L193.463 254.288L190.5 255.863L189.038 256.313L188.25 256.238L187.65 256.613L186.525 259.013L185.25 260.363L183.9 261.563L183.225 263.475L183.075 265.725L182.325 267.375L181.388 269.1L180.712 271.313L180.188 273.563L179.362 275.288L179.325 277.125L180.825 277.763L181.05 278.55L181.163 279.488L181.837 281.213L181.725 283.05L182.325 284.438L183.188 285L182.812 287.025L180.337 289.988L179.962 291.938L179.85 293.738L178.612 295.013L175.237 292.275L171.45 290.888L169.275 292.088L167.55 293.963L165.712 294.225H163.725L161.587 294.525L159.375 294.488L158.362 293.888L157.462 293.175L156.45 293.438H155.212L153.413 293.738L151.725 294.75L149.513 294.413L148.087 292.913L148.163 290.513L146.925 289.125L146.587 287.775L147.112 285.675L145.913 283.838L144.15 283.95L143.737 284.7L143.138 285.263L142.763 286.238L142.612 287.25L140.812 287.288L138 283.5L136.2 282L135.15 281.588L134.1 281.513L133.087 282.675L131.1 282.488L129.6 283.8V284.813L129.638 285.788L129.112 286.613L128.362 287.175L128.4 287.925L128.513 288.675L128.025 289.725L127.237 290.4L126.263 290.888L125.25 291.15L124.388 291.675L123.6 292.275L121.612 292.575L119.7 293.25L117.938 293.7L116.475 293.213L116.55 291.225L116.925 289.275L117.263 286.613L115.575 286.163L109.8 287.775L108.562 288.15L107.737 287.213L107.475 286.463L107.888 284.738L108.9 282.6L110.513 278.85L111.862 276.863L113.812 276.188L116.025 275.738L117.9 275.625L118.763 274.913L119.625 273.713L120.788 273.413L121.837 274.613L122.925 275.963L123.712 276.225L122.962 273.488L122.4 272.25L121.5 271.725L113.1 273.113L110.175 271.275L110.4 268.538L111.788 267.825L112.987 266.625L114.112 265.35L115.875 264.3L118.087 263.1L119.737 260.775L120 258.6L121.575 257.625L121.95 257.325L124.05 257.1L126.15 257.363L127.462 258.375L128.4 258.6L129.038 259.725L129.3 259.125L129.487 258.3L129.562 257.438L128.25 256.388L127.087 255.825L125.812 254.963L124.763 254.175L124.237 253.875L124.388 253.238L124.875 252.563L125.362 252.15L125.888 252.038L129.225 252.263L129.938 252.188L130.462 251.925L130.837 251.25L130.987 250.725L131.25 250.35L132.075 250.2L132.337 249.975L132.038 249.413L131.4 248.888L130.688 248.625L130.5 248.775L126.15 250.538L124.688 250.613L121.8 250.425L118.987 250.2L118.95 248.925L118.763 247.2L118.2 246.713L116.438 246.113L113.85 246.525L113.587 244.313L118.95 243.713L121.875 243.338L124.837 243.188L125.812 242.588L126.825 242.888L128.062 242.25L130.237 240.6L133.013 239.475L134.212 238.65L134.325 237.6L130.837 238.65L133.5 235.35L136.35 235.05L139.688 234.338L145.837 232.388L148.013 232.838L147.487 236.063L148.763 238.05L150.487 237.713L152.175 237.075L155.438 236.438L156.3 236.138L157.125 235.763L158.362 235.5L159.188 234.263L160.163 233.25L162.075 234.938L164.737 239.738L166.688 240.713L167.475 240.938L167.812 241.65L167.4 242.475L167.625 243.075L171.075 243.525L172.35 243.225L174.112 243.15L175.875 242.663L177.3 241.388L178.725 239.963Z" fill="#0F2659" stroke="#2A82B6" stroke-linecap="round" stroke-linejoin="round"/>
<path d="M138.075 296.588L141.113 297.75L142.313 301.088L139.988 304.2L136.313 303.6L133.088 301.65L131.475 298.088L132.75 296.888L134.888 297.45L136.425 297.075L138.075 296.588Z" fill="#0F2659" stroke="#2A82B6" stroke-linecap="round" stroke-linejoin="round"/>
<path d="M106.65 206.813L106.538 207.638L106.688 208.35L107.138 209.7L107.963 210.938L108.3 212.1L107.7 211.838L105.075 211.988L104.213 211.838L104.063 210.75L104.363 210.375L104.813 209.925L105.038 209.288L103.65 210.188L102.975 209.85L103.163 208.763L104.213 207.263L103.838 206.813L103.013 207.788L102.75 207.113L102.113 207.45L102.45 205.688L102.225 202.95L101.925 201.338L101.325 199.275L101.85 198.6L102.9 197.625L104.025 197.213L104.813 198.488L104.925 198.938L104.663 199.5L104.213 199.838L104.25 200.363L105.263 202.613L105.413 203.363L105.15 203.963L105.45 204.488L106.125 204.9L106.65 205.8H105.413V206.25L105.825 206.325L106.65 206.813ZM139.688 175.313L142.5 175.875H144.825L149.738 173.775L152.325 174.938L154.613 176.85L157.388 177.225L157.875 178.35L158.588 179.063L159.375 179.55L160.388 181.613L161.175 182.138L161.1 183.675L161.588 184.125L162 184.875L162.113 185.7L161.963 186.563L161.663 187.313L161.513 188.138L161.4 188.775L161.1 189.338L160.575 189.488L160.013 189.413L159.488 189.938L158.25 192.113L156.6 194.513L148.163 191.138L146.775 194.963L146.963 206.175L146.063 207.038L145.538 208.575L150.938 209.663L154.988 208.538L158.138 213.525L159.225 215.625L159.525 220.988L160.763 225L163.688 224.213L166.275 222.3L167.138 222L168.675 220.763L169.538 217.575L170.325 216.3L170.588 214.575L171.375 213.525L172.388 212.775L173.213 213.15L173.963 213.413L173.738 214.688L172.763 215.438L172.163 216.525L171.6 217.763L170.288 220.2L169.575 223.05L169.463 225.075L169.613 227.175L171.525 226.763L173.288 227.325L175.125 228.45L175.725 230.663L175.65 233.175L176.138 235.725L177.375 237.863L178.725 239.963L177.3 241.388L175.875 242.663L174.113 243.15L172.35 243.225L171.075 243.525L167.625 243.075L167.4 242.475L167.813 241.65L167.475 240.938L166.688 240.713L164.738 239.738L162.075 234.938L160.163 233.25L159.188 234.263L158.363 235.5L157.125 235.763L156.3 236.138L155.438 236.438L152.175 237.075L150.488 237.713L148.763 238.05L147.488 236.063L148.013 232.838L145.838 232.388L139.688 234.338L136.35 235.05L133.5 235.35L130.838 238.65L129.6 239.025L128.4 239.85L127.388 240.825L126.3 241.35L124.988 241.575L123.713 242.138L122.813 241.688L122.513 241.2L122.438 240.525L122.1 239.588L121.613 238.8L120.638 237.488L120.075 236.588L120.9 235.913L120.525 235.463L118.988 234.863L117.6 232.538L116.588 232.088L115.8 232.538H115.425L115.388 231.713L114.038 230.85L112.875 231.038L112.538 232.425L112.313 232.913L111.938 232.538L112.163 230.363L114.188 229.35L115.95 228.788L118.425 229.5L117.563 228.038L117.075 227.475L116.4 226.988L115.988 226.913L115.538 227.175L115.2 226.988L114.75 226.5L114.375 225.975L115.613 222.563L116.325 221.025L117.225 220.463L116.55 219.638L114.038 218.888L113.138 218.4L114.038 217.575L116.663 216.938L117.225 216.15L116.813 215.175L115.875 214.95L113.925 214.913L113.55 214.65L112.838 213.788L112.35 213.375V212.85H113.138L112.238 211.2L113.325 210.6L114.525 210.225L115.688 208.575L118.125 207.9L119.288 207.263H115.8L114.975 207.75L113.7 209.663L112.763 209.85L112.163 209.138L111.638 207.75L111.3 206.363L111.338 205.538L112.575 204.075L113.138 203.175L112.95 202.763L111.825 203.175L111.3 202.725L110.813 202.388L110.55 202.35L110.288 201.675L110.55 201.038L110.475 200.363L110.175 199.088L109.838 198.563L109.8 198.225L110.625 198.188L111.788 197.625L113.025 197.663L113.138 196.763L113.475 195.975L112.988 195.338L112.313 195.188L111.338 194.25L111.938 193.388L112.8 192.713L112.238 191.663L110.813 191.4L110.513 190.163L110.963 189.263L112.35 189.038L111.563 188.138L111.3 187.688L111.113 187.013L110.588 187.463L109.763 188.363L108.825 188.775L108.638 189.3L108.675 189.825L109.088 190.463L109.163 191.7L108.713 193.163L108.975 195.113L108.338 196.763L107.813 197.438L106.725 196.575L105.563 196.538L104.438 195.75L104.7 191.775L105.075 190.313L104.4 190.013L104.588 188.138L103.95 187.35L103.013 187.538L102.45 188.475L102.3 189.675L101.888 190.538L100.538 190.575L101.1 191.7L102.188 193.425L102.563 194.663L101.925 195.225L102 195.825L103.013 197.175L102.075 197.363L101.325 197.813L100.688 198.413L100.163 199.2V198.638L99.9752 197.588L99.7502 197.175L100.575 195.375L98.8502 192.488L99.3752 191.063L98.9252 189.038L97.8002 189.675L96.2627 191.663L95.1002 192.075L94.3877 192.225L93.7877 192.45L93.1877 192.488L92.4752 192.075L92.0627 191.025L91.9502 190.35L92.2502 190.05L94.6877 190.088L95.3252 189.638L95.2877 188.55L94.6502 187.388L93.7502 186.938L92.8127 186.638L92.0252 186L91.7252 186.9L91.5377 188.738L91.2002 189.6L90.5252 190.238L90.3002 189.638L90.3752 187.763L90.2627 185.963L90.4127 185.475L91.9502 183.525L92.2502 182.85L92.4752 181.913L92.6627 182.625L93.2252 183.9L93.6377 184.5L93.9377 184.2L94.3502 184.238L95.2877 184.5L94.6877 183.6L94.0502 182.475L95.7377 182.963L96.4502 182.775L96.9002 181.913L95.3627 181.8L94.4252 181.388L94.3127 180.45L95.2877 178.875L93.9752 177.75L94.0502 176.738L95.0627 175.875L96.5252 175.35L96.1502 177.188L96.3002 177.675L97.0877 177.863L98.5877 177.825L98.9627 177.563L99.3752 176.888L99.4502 175.2L99.3002 172.988L99.6002 171.15L100.988 170.7L100.8 171.75L100.838 173.325L101.1 174.975L101.85 176.925L101.475 177.6L100.913 178.238L100.538 178.875V179.55L100.913 180.638L100.988 180.938L100.65 181.313L99.3752 182.175L99.4127 182.813L99.6002 183.488L99.9377 183.9L100.35 183.713L101.363 182.775H102.113L103.8 183.938L102.563 181.275L102.15 179.625L102.788 178.875L103.725 180.113L104.325 180.488L104.588 179.663L104.85 179.438L105.45 179.175L106.65 178.875V178.425L106.163 178.35L105.038 177.863V177.413L106.463 177.075L107.288 175.688L107.513 174.038L107.063 172.8L106.538 172.613L104.963 172.575L104.213 172.275L103.65 171.563L103.463 170.888L103.725 170.663L104.588 171.263L104.963 170.1L104.55 169.425L103.65 169.163L102.563 169.238L103.013 168.675L103.575 168.263L104.213 168.15L104.813 168.488L105.375 168.9L105.863 169.013L106.088 168.788L105.825 168.225V167.663L108.038 167.625L109.088 168L109.5 168.975L109.2 169.575L108.638 170.213L108.3 171.075L108.675 172.275L109.2 171.75L109.875 171.375L110.438 171.413L110.7 172.013L110.775 172.538L111.038 173.025L111.113 173.513L110.438 174.375L110.288 174.825V178.125L110.475 179.1L110.925 179.775L111.338 180.038L111.563 179.663L111.788 177.825L112.875 174.263L113.138 172.538L113.438 172.125L114.15 172.613L115.2 173.738L115.613 174.563L115.913 175.313L116.363 175.8L117.225 175.838V175.35L116.775 174.788L116.288 173.288L115.8 172.538L112.163 168.675L111.938 168.488L112.125 167.663L112.613 167.775L113.25 168.338L114.188 169.538L114.675 169.95L115.313 170.25H116.025L116.588 169.913L116.625 169.425L116.25 168.938L115.388 168.713L114.263 168.188L113.025 167.025L112.5 165.3L112.35 164.138H113.438L114.375 164.588L115.238 165.338L117.563 166.95L118.013 167.438L118.913 168.075L119.775 168.525L120.375 169.538L120.113 170.55L119.513 171.225L119.663 171.788L120.225 172.913L120.3 173.588L120.075 174.825L120.75 174.375L121.013 173.813L121.163 173.213L120.938 171.375L121.163 170.775L122.1 169.088L123.075 168.638H124.013L125.025 168.75L126.15 169.2L127.613 169.575L128.625 170.25L129.9 171.525L129.975 173.138L129.038 176.325L129.75 175.875L130.875 174.413L131.475 174.3L131.888 174.938L132.15 176.025L132.263 178.125L132.225 178.575L131.925 179.588L131.888 180.188L132 180.788L132.525 181.688L133.013 183.975L132.863 184.65L131.888 184.95L132.075 185.588L132.3 186L132.638 186.3L133.125 186.525L133.463 184.838L134.063 183.863L134.363 182.813L133.875 180.938L135.075 181.313L136.313 181.463L134.288 179.175L133.688 177.938L134.888 177.413L135.975 177.225L138.563 176.175L139.688 175.313Z" fill="#0F2659" stroke="#2A82B6" stroke-linecap="round" stroke-linejoin="round"/>
<path d="M162.9 206.85L162.75 207.412L162.975 207.975L163.388 208.425L163.913 208.687L164.25 209.512L164.025 210.787L165.825 211.312L167.738 210.862L168.413 209.887L169.238 210.075L169.163 210.9L169.875 211.312L169.988 212.625L170.588 214.575L170.325 216.3L169.538 217.575L168.675 220.762L167.138 222L166.275 222.3L163.688 224.212L160.763 225L159.525 220.987L159.225 215.625L158.138 213.525L154.988 208.537L161.55 206.737L162.9 206.85Z" fill="#0F2659" stroke="#2A82B6" stroke-linecap="round" stroke-linejoin="round"/>
<path d="M116.175 366.713L116.513 367.013L115.725 367.425L115.163 367.313L114.638 367.388V366.713L115.2 366.9L116.175 366.713ZM110.813 362.963L110.55 363.15L110.213 362.7L110.288 362.288L110.888 362.55L110.813 362.963ZM126.9 363.9L127.988 364.95L128.1 365.4L128.438 366.225L128.213 366.413L127.65 366.263L126.638 365.738L126.413 365.813L126.338 366.225L126.075 366.375L125.55 366.15L124.65 365.925L123.525 365.55V365.1L124.05 364.65L123.938 364.125L123.413 364.013L122.775 364.163L122.025 363.938L121.313 363.488L120.9 362.963L120.75 362.175L120.675 361.275L120.713 360.375L120.975 359.475L121.425 358.763L122.063 358.463L123.45 358.275L124.125 358.5L124.763 358.95L125.475 359.775L126.038 361.163L126.188 362.288L126.375 362.85L126.713 363.263L126.9 363.9ZM154.463 356.7L151.988 357.15L151.05 357.038L150.375 356.7L148.95 355.725V355.2L149.25 354.788L149.325 354.45L149.1 354.15L148.538 353.775L149.363 353.138L150.3 352.763L152.25 352.388L154.088 352.2L155.063 352.275L155.888 352.65L156.525 353.813L156.338 355.163L155.55 356.25L154.463 356.7ZM101.363 348.488L101.775 348.788L102.038 348.713L103.388 347.85L103.425 348.488L105.188 351.338L105.3 352.35L105.113 353.438L104.813 354.525L103.65 357.038L103.163 357.788L102.563 358.2L102.488 357.975L101.475 357L100.988 356.7V357.15L100.763 358.313L95.1002 361.388L94.4252 361.65L91.9127 361.838L91.2377 361.65L91.0877 361.05L91.4252 360.525L91.8752 360.075L92.0252 359.7L91.7252 359.25L90.0002 358.2V359.7L88.7627 358.238L89.5127 355.838L91.2002 353.888L92.8502 353.775L93.3752 352.2L93.7502 351.638L94.2752 351.038L94.9127 350.663L95.4752 350.588L95.9252 350.25L96.0752 349.238L96.7877 350.1L97.7252 350.213L98.5502 349.65L98.9252 348.563L98.4752 347.663L96.9377 346.425L97.3502 345.825L98.2877 345.788L99.3002 346.313L100.125 346.988L100.763 347.325L101.363 348.488ZM189.338 345.488L188.663 345.525L187.988 345.188L185.888 343.05L185.625 342.188L186 340.875L186.263 340.538L187.388 339.675L187.575 339.263L188.025 337.425L187.125 336.45L187.238 335.888L187.875 335.588L188.625 335.475L189.263 335.775L189.413 336.45L189.113 337.238L188.4 337.913L189 338.063L189.563 338.925L189.975 339.975L190.463 341.813L190.538 342.863L190.35 343.875L189.9 344.888L189.338 345.488ZM186.038 336.338L185.438 336.825L184.95 336.563L184.5 335.888L184.875 335.438L185.325 335.963L186.038 336.338ZM101.55 332.438L101.325 332.475L100.8 331.05L101.25 330.788L101.475 330.45L101.738 330.563L102.15 330.975L101.813 331.388L101.475 331.575L101.438 331.875L101.588 332.063L101.55 332.438ZM184.8 322.538L185.288 322.8L185.85 322.725L186.188 322.913L184.875 324.45L184.238 324.563L183.788 324.413L183.225 323.85L183.15 323.55L183.488 323.063L184.125 322.575L184.8 322.538ZM178.613 295.013L178.313 296.588L179.513 298.013L180.113 299.888L180.375 303.75L181.163 305.213L182.625 306.263L183.938 307.65L184.463 309.188L185.1 310.538L188.813 314.55L189.6 316.538V317.888L189.75 318.188L189.375 318.075L186.938 318.113L186.15 317.963L185.85 317.588L185.7 317.063L185.325 316.35L184.65 315.825L184.5 316.35L184.613 317.25L184.725 317.625L184.313 318.938L184.05 319.425L183.525 320.063L181.275 321.825L180.038 322.388L179.138 321.638L178.013 319.35L177.075 318.975L176.438 319.913L176.1 321.338L176.175 322.575L176.738 323.85L177.638 325.5L178.688 326.925L179.663 327.563L180.3 328.425L180.938 328.725L181.688 328.238L183.525 326.513L184.8 326.325L185.888 326.55L186.9 326.625L187.988 326.025L187.95 327.45L187.763 328.463L187.163 330.525L186.488 334.125L186 334.95L183.9 335.663L182.25 334.838L180.938 334.538L179.85 336.938L179.475 336.713L179.025 336.938L179.475 337.875L179.85 338.888L180.263 342.113L180 342.713L179.4 342.375L178.425 341.363L177 341.175L175.95 340.613L175.238 339.525L174.975 337.913L175.313 336.375L176.1 334.875L176.663 333.45L176.4 332.25L175.913 331.575L174.975 329.513L174.713 329.363L174.038 329.288L173.738 328.988V328.613L174 327.9L173.1 326.025L172.95 325.313L172.988 324.863L173.25 324.15L173.325 323.813L173.175 323.4L172.913 323.063L172.65 322.988L172.313 323.438L171.3 326.025L170.888 326.588L168.375 327.45L167.175 327.6L164.625 327.563L163.65 327.825L164.438 328.463L165.975 329.138L167.213 329.513V329.963L164.7 330.788L163.425 331.5L163.2 332.475L163.725 332.888L164.85 332.438L165.45 332.7L165.863 333.413L165.713 333.638L165.263 333.938L166.088 336.788L167.775 338.325L169.65 339.525L170.925 341.363L170.288 341.25H169.275L168.825 341.363L171.375 342.338L171.675 343.125L171.863 344.663L170.7 345.713L169.538 345.638L168.825 345.825L166.125 344.138L165.263 343.875L164.475 344.025L163.538 344.475L162.713 345.038L162.375 345.6L163.2 347.325L164.063 347.513L164.55 347.85L166.8 347.25L168.038 348.3L165.225 350.888L164.213 352.313L163.125 351.825L161.438 353.1L161.625 354.375L162.375 355.2H160.725L158.288 351.975L157.463 350.288L155.25 347.85L154.575 348L152.213 349.238L152.438 349.988L152.625 350.288L151.65 349.95L150.713 349.763L149.925 349.35L149.363 348.3L149.288 347.25L149.663 346.613L150.975 345.825L151.425 345.45L152.625 343.875L153.338 342.3L153.788 341.775L154.65 341.363L154.575 342.563L154.275 343.725L153.413 345.825L155.175 345.713L156.6 345.188L157.5 343.988L157.463 341.85L157.125 341.025L156.675 340.538L156.3 339.975L156.263 338.888L156.563 338.325L158.288 336.413L158.888 336.75L159.3 337.2L159.413 337.763L159.075 338.438L159.45 339.375L159.975 340.05L160.65 340.275L161.55 339.938L161.925 339.413L162.75 337.688L163.2 336.938L162.375 335.7L162.075 334.425L161.663 333.825L160.538 334.688L159.225 335.25L158.175 334.35L156.713 331.988L155.85 333.3L154.65 336.413L153.825 337.425L152.963 337.763L152.25 337.725L150.75 337.425L150.075 337.65L149.4 338.25L148.35 339.675L147.863 340.088L145.688 341.363L144.525 342.263L143.775 342.713L143.025 342.9L142.575 343.125L142.5 343.725V344.513L142.388 345.338L142.013 345.938L141.45 346.575L141.188 347.363L141.638 348.3L138.375 351.525L138.45 354.488L137.925 355.013L136.313 354.225L135.825 354.825L135.563 355.538L135.6 356.325L135.938 357.15L135.15 356.925L133.5 355.725L131.213 355.05L130.688 354.75L130.238 353.363L130.463 349.725L130.238 348.3L130.575 347.4L130.5 346.275L130.125 345.3L129.45 344.813L128.813 345L128.138 345.6L127.65 346.388L127.463 347.063L127.688 348.075L128.063 348.938L128.1 349.538L126.263 350.175L126.488 351.038L127.838 352.725L125.55 354.038L124.688 354.825L125.588 355.2L125.775 355.35V356.063L125.588 356.213L125.213 356.138L124.65 355.8L124.388 355.725L123.6 355.838L123.45 356.175L123.413 356.7L123.113 357.413L122.663 357.75L120.9 358.2L120.225 358.725L120 359.213L118.575 364.05L118.425 364.763V365.588L117 365.288L114.263 366.188L113.588 366.038L113.475 365.213L114.038 363.45L113.925 362.663L113.4 362.175L112.65 362.025L111.113 362.1V361.65L111.525 360.975L111.638 359.85L112.088 359.888L112.35 359.7L113.213 358.163L113.363 357.45L113.138 356.7L112.838 356.475L112.388 356.325L111.525 356.213L110.888 356.025L110.775 355.65L111.113 355.2V354.263L111.338 353.363L111.225 352.913L110.288 353.213L110.55 351.488L111.713 350.625L113.325 350.288H114.788L114.525 349.725L114.15 349.275L113.7 348.975L113.138 348.788L114.075 348.15L114.638 347.363L114.675 346.688L113.925 346.275L113.663 346.388L113.138 347.063L112.763 347.325H112.275L111.488 346.838H111.113L110.738 347.138L110.475 347.663L110.288 348.3L109.763 348.413L108.675 348.3L107.4 348.338L106.725 348.45L105.825 348.788L105.713 347.663L105.225 346.988L103.8 346.275L103.838 346.05L103.538 345.488L103.163 345.113L102.825 345.863L102.413 346.125L101.925 346.2L101.55 346.05L100.313 344.888L100.163 344.813L99.9752 344.1L100.313 343.763L100.538 343.388L100.763 343.725H101.363L101.775 343.388L101.55 342.638L99.9752 341.85L98.7377 340.95L98.6252 338.888L99.1502 336.563L99.7502 334.95L99.8252 334.388L99.7877 333.75L99.8627 333.188L100.35 332.925L101.25 333.113L101.588 333.338L102 334.2L103.8 336.938L103.238 337.688L103.05 338.4L103.163 339.15L103.35 339.938L104.588 343.388L105.338 343.838L108.263 344.325L109.538 345.188L110.213 345.113L110.7 343.875L110.025 343.988L109.688 343.8L108.45 343.538L107.888 342.638L107.138 341.888L107.325 340.2L106.538 340.35L106.163 341.363L105.563 341.438L105.188 340.088L105 338.288L105.45 337.238L105.113 336L106.725 335.85L109.2 336.375L109.538 336.938L109.388 337.875V338.475L109.5 338.888L110.138 339.3L110.475 339.788L111.263 340.275L112.313 340.725L112.988 341.325L114.413 342.338L114.675 342.038L113.438 340.388L114.188 340.238L116.7 341.625L118.388 342.188L119.663 341.85L118.388 341.663L117.375 340.988L115.613 339.45L116.025 338.888L114.75 337.95L112.8 335.475L111.713 334.95L110.25 334.65L108.488 334.763L107.288 333.975L105.788 334.388L104.438 333.938L104.25 333.263L105.075 332.175L105.938 331.838L107.7 332.1L109.95 331.125L112.65 333.113L113.588 332.925L114.113 333.375L114.375 333.488L114.113 332.1L114.225 330.825L114.938 329.888L116.4 329.513L119.138 330.338L120.525 330.45L120.075 329.513L121.013 329.063L121.5 328.95L122.1 328.988L121.238 327.975L119.888 327.713L116.813 328.013L117.038 327.3L116.813 326.325V325.575L117.038 325.088L117.6 324.3V323.55L117.15 322.463L116.325 322.238L115.425 322.65L114.788 323.55L114.713 324.15L115.125 325.35L115.2 326.025L115.088 326.138L114.375 327.563L113.7 330L113.1 330.863L111.938 330.975V330.788L111.563 330.525L111.788 330.113L112.125 329.363L112.35 328.988L111.563 328.575L111 328.8L110.475 329.288L109.688 329.513L108.113 329.175L107.625 329.4L107.513 330.15H106.725L105.413 330.563L104.813 330.225L104.588 329.475L105.038 328.763L106.238 327.563L106.688 326.888L106.913 326.363L107.063 325.313L106.875 324.225L107.1 323.7L107.85 323.025L107.138 322.425L106.463 321.225L106.125 319.8L106.238 318.6L107.063 317.85L108.188 317.063L108.525 316.425L107.063 316.088L106.388 316.2L105.675 316.913L104.625 317.363L104.738 318.075L105 318.9L105.038 319.575L104.213 320.363L103.125 320.438L102.075 320.1L101.363 319.575L102.15 319.088L101.625 318.713L101.175 318.263L100.838 317.738L100.538 317.063L101.213 316.725L101.888 316.763L103.35 317.063L103.2 315.525L104.85 313.875L104.4 312.338L102.713 310.013L101.663 309.038L100.538 308.663L100.988 310.275L100.575 311.213L99.7502 311.25L98.9252 310.125L99.4502 309.375L97.9502 307.35L97.7252 306.15L98.5877 305.138L99.7877 304.988L100.875 305.513L101.363 306.675L102.113 306.188L102.525 305.363L103.013 303.713L103.425 304.538L103.5 305.213L103.35 306.563L103.05 307.238L103.013 307.65L103.125 308.1L103.613 307.988L103.8 308.1L104.1 309.488L104.325 309.713L105.038 310.125L105.6 310.35L106.613 310.388L107.063 310.65L106.725 311.475L106.8 312.263L107.213 313.013L107.85 313.65L109.35 310.275L109.5 309.113V307.8L109.2 307.35L108.075 307.05L107.625 306.788L107.213 306.413L106.613 304.763L104.663 302.475L104.213 301.463L104.325 301.088L104.888 300.413L105.038 299.738L104.4 299.288L104.1 298.688L104.213 297.713L103.463 298.013L102.675 298.125L100.988 298.163L101.625 297.338L102.713 297.075L103.95 297L105.038 296.738L104.663 296.625L104.288 296.288L103.8 296.213L104.1 295.538L105.225 294.45L105.413 293.888L105.038 292.463L105.225 291.338L105.75 290.213L107.063 288.225L107.4 288.563L108.263 289.688L109.313 290.025L109.838 289.988L109.688 289.463L108.563 288.15L109.8 287.775L115.575 286.163L117.263 286.613L116.925 289.275L116.55 291.225L116.475 293.213L117.938 293.7L119.7 293.25L121.613 292.575L123.6 292.275L124.388 291.675L125.25 291.15L126.263 290.888L127.238 290.4L128.025 289.725L128.513 288.675L128.4 287.925L128.363 287.175L129.113 286.613L129.638 285.788L129.6 284.813V283.8L131.1 282.488L133.088 282.675L134.1 281.513L135.15 281.588L136.2 282L138 283.5L140.813 287.288L142.613 287.25L142.763 286.238L143.138 285.263L143.738 284.7L144.15 283.95L145.913 283.838L147.113 285.675L146.588 287.775L146.925 289.125L148.163 290.513L148.088 292.913L149.513 294.413L151.725 294.75L153.413 293.738L155.213 293.438H156.45L157.463 293.175L158.363 293.888L159.375 294.488L161.588 294.525L163.725 294.225H165.713L167.55 293.963L169.275 292.088L171.45 290.888L175.238 292.275L178.613 295.013ZM138.075 296.588L136.425 297.075L134.888 297.45L132.75 296.888L131.475 298.088L133.088 301.65L136.313 303.6L139.988 304.2L142.313 301.088L141.113 297.75L138.075 296.588Z" fill="#0F2659" stroke="#2A82B6" stroke-linecap="round" stroke-linejoin="round"/>
<path fill-rule="evenodd" clip-rule="evenodd" d="M288.375 271.462L287.888 270.637H287.85L283.163 269.512L277.613 270.487L276.638 270.225L275.888 269.7L275.738 268.725L275.7 267.637L275.175 266.737L273.075 265.837L271.088 265.425L269.025 265.725L266.513 266.625L264.525 268.162L264.825 269.175L265.388 270.112L265.013 270.862H264.113L262.575 271.762L261.15 272.925L261.413 275.812L259.913 278.812L260.813 280.612L264.488 281.175L266.025 282.375L268.575 285.3L271.613 286.987L273 288.037L273.375 290.062L273.54 290.222L274.125 290.062L276.375 291.187L276.786 292.091L278.025 292.125L279.675 290.475L280.838 289.8L282.038 289.387L282.113 288.412L281.738 288L281.25 287.325L282.3 285.525L282.038 284.1L281.963 282.75L281.888 282.225L282.375 281.775L283.05 281.7L283.65 281.475L283.913 280.5L283.838 279.45L283.613 278.55L283.125 277.95L282.338 277.762L282.825 276.337L283.65 276.562L284.4 277.8L284.775 279.487L285.15 280.762L286.05 280.275L287.025 278.962L287.625 277.762L288.038 274.912L288.15 273.037L288.375 271.462Z" fill="#0F2659" stroke="#2A82B6" stroke-linecap="round" stroke-linejoin="round"/>
<path fill-rule="evenodd" clip-rule="evenodd" d="M217.688 341.7H217.425V341.25L215.513 340.237L215.138 340.35L214.875 340.575V340.95L214.688 341.662L215.175 341.887L215.438 342.15L215.475 342.525L215.287 343.012L215.325 343.275L215.7 343.2L216 342.9L216.638 342.6L217.088 342.525L217.65 342.637L218.287 342.412L218.85 341.7L218.963 341.325L218.812 341.175L217.688 341.7ZM224.213 328.125L223.8 327.9L223.125 327.375L222.188 327L221.513 327.187L221.025 327.712L221.138 328.2H221.55L222.225 328.012L223.312 328.35L223.875 328.837L223.763 329.362L223.2 329.812L223.463 330.037L224.25 330.15L224.4 330.637L224.287 331.087L224.775 331.125L225 331.687L225.45 332.25L226.425 332.212L227.025 331.462L227.25 331.05L226.763 330.637L226.275 330.525L226.5 330.225L227.1 330.45L227.362 330L227.138 329.662L227.475 329.1L227.325 328.162L226.725 327.6L225.675 327.637L224.775 327.9L224.213 328.125ZM215.475 329.775L215.662 329.587L215.588 329.062L215.888 328.912H216.525L216.787 328.5L216.45 327.937L215.55 326.962L214.8 326.775L214.013 327.375L213.6 328.05L213.525 328.425L213.9 329.025L214.575 329.475L215.475 329.775ZM202.425 324.787L202.125 324.562L202.05 323.887L202.275 323.1L202.688 321.937L202.388 321.15L201.45 321.375L200.888 322.087L200.362 323.062L199.575 324.112L199.162 325.237L199.688 326.287L200.55 326.812L201.412 326.925L202.875 326.437L205.575 327.15L206.213 327L205.875 326.512L205.275 325.837L204.938 324.637L204.825 323.775L204.225 323.287L204.037 322.8L203.475 322.875L202.763 324L202.425 324.787ZM199.05 329.062L198.338 327.787L197.062 327.375L196.575 327L196.237 326.362L195.975 325.087L195.713 324.6L197.062 323.175L197.588 322.275L197.662 321.337L197.213 320.4L196.425 319.725L195.525 319.425L194.737 319.8L193.763 320.55L193.425 321.037L193.162 322.612L192.787 322.875L192.338 322.95L191.888 323.287L191.175 324.6L191.025 325.837L191.25 327.15L192.9 332.475L193.013 333.412L193.125 334.575L193.5 335.212L194.025 335.587L194.925 335.887L195.75 335.85L196.125 335.212L196.312 333.712L196.838 332.512L197.625 331.95L198.6 332.475L199.275 335.4L199.838 336.787L200.812 336.675L201.9 336.15L202.838 336.562L203.737 337.087L204.638 336.937L204.9 336.187L204.375 334.725L204.862 334.462L205.2 334.087L205.237 333.225L205.088 331.725L205.237 330.787L205.575 330.037L205.763 329.325L205.463 328.5L205.05 328.35L203.025 328.012L201.675 328.275L200.213 328.875L199.05 329.062ZM244.65 319.05L244.275 318.375L244.013 317.55L243.975 317.1L244.35 314.4V313.725L244.088 313.125L243.037 312.712L242.1 313.425L241.763 314.737L242.475 316.087L238.35 318.45L237.562 318.375L237.6 319.5L237.9 320.737L238.537 321.825L239.625 322.575V323.025L238.537 322.95L237.713 322.537L236.963 322.012L235.987 321.6H235.35L233.138 322.05L232.35 322.387L231.45 322.987L230.7 323.737L230.287 324.6L230.475 325.95L231.188 327L232.013 327.937L232.688 328.987L233.625 328.2L235.763 327.262L236.362 326.512L237.188 327L236.888 328.275L236.85 329.4L236.438 330.225L234.938 330.525L234.562 330.9L234.525 331.725L234.787 332.55L235.35 332.925L237.188 331.987L236.888 333.037L236.85 333.9L237.15 334.537L238.013 334.95L235.987 336.412L237.263 336.337L241.575 334.987L242.475 334.2L241.987 333.637L241.013 333.225L240.3 332.7L240.638 331.725L241.688 330.525L241.875 330L242.062 328.987L242.737 329.475L243.825 330.075L244.875 330.412L245.325 330.225L245.175 329.137L244.388 327.487L244.088 326.512L244.875 326.85L245.4 326.362L245.662 325.425L245.737 324.6L245.662 323.362L245.475 323.212L244.912 323.625L243.713 324.037L244.65 321.6L244.875 320.737L244.912 319.762L244.65 319.05ZM250.388 315.637L250.688 315.525L251.062 315L251.325 313.5L251.362 311.662L250.95 310.762L250.35 310.575L249.675 310.65L249.037 310.987L248.888 311.512L249.188 312.112L249.412 312.712L249.338 313.2L249.487 313.575L249.938 314.062L250.237 315.337L250.388 315.637ZM261.412 275.812L261.15 272.925L259.5 273.487L257.737 272.662L255.45 272.1L253.312 272.962L252.638 273.862L251.812 274.575L250.95 274.687L250.125 274.987L248.175 276.525L245.963 276.45L244.125 275.475L242.175 274.875L239.963 275.287L237.787 275.512L235.95 274.35L234.45 272.512L233.963 268.462L232.575 269.55L231.112 271.65L229.5 271.312L226.312 272.925L224.625 272.587L223.125 271.462L221.513 270.675L219.787 270.412L218.025 270.637L214.35 270.487L213.412 267.112L214.125 265.462L214.162 263.737L213.375 262.8L212.475 262.237L212.25 261.6L211.912 260.925L210.6 259.987L209.812 258.487L208.688 257.25L207.15 256.762H205.463L203.775 256.612L202.8 255.975L202.05 255.337L200.25 255.187L199.275 254.812L199.05 254.212L198.975 253.612L197.888 252.75L196.688 252.037L196.2 250.425L194.025 252.75L193.463 254.287L190.5 255.862L189.038 256.312L188.25 256.237L187.65 256.612L186.525 259.012L185.25 260.362L183.9 261.562L183.225 263.475L183.075 265.725L182.325 267.375L181.388 269.1L180.712 271.312L180.188 273.562L179.362 275.287L179.325 277.125L180.825 277.762L181.05 278.55L181.163 279.487L181.837 281.212L181.725 283.05L182.325 284.437L183.188 285L182.812 287.025L180.337 289.987L179.962 291.937L179.85 293.737L178.612 295.012L178.312 296.587L179.513 298.012L180.112 299.887L180.375 303.75L181.163 305.212L182.625 306.262L183.938 307.65L184.462 309.187L185.1 310.537L188.812 314.55L189.6 316.537V317.887L189.75 318.187L190.35 318.375L191.25 319.087L191.625 318.75L192.075 318.712L193.275 319.087L194.85 318.937L196.088 317.85L196.725 315.975L196.912 313.65L197.588 314.175L197.963 314.887L198.562 316.612L200.1 315.637L201.713 315.675L202.463 315.187L201.375 312.6L202.8 312.487L203.737 311.512L204.487 310.237L205.425 309.112L205.35 310.012L205.088 310.687L204.638 311.625L204.525 312.487L204.638 317.85L204.375 318.9L204.338 319.462L204.638 320.062L205.125 320.325L206.513 320.437L207.375 320.625L208.013 320.512L208.312 320.587L208.35 320.85L208.388 321.937L208.5 322.312L209.588 322.912L212.362 322.8L213.6 323.025L213.562 321.937L213.713 320.812L214.013 319.95L214.612 319.575L215.963 319.725L216.638 320.137L217.875 321.825L219.263 321.75L220.237 319.875L221.213 318.9L222.562 321.6L221.175 322.162L220.575 322.537L220.688 323.137L221.55 324.3L222.3 324.6L226.013 325.05L225.713 325.5L225.225 325.612H224.062L224.025 326.737L225.825 326.85L227.138 326.437L228.638 324.487L229.463 323.025L228.675 322.05L228.487 322.762L228.075 323.362L227.55 323.512L227.025 323.025L227.438 320.062L227.513 318.525L227.438 317.625L227.062 316.987L226.5 316.687L226.237 316.35L226.65 315.637L227.4 315.937L228.562 316.012L229.725 315.825L230.475 315.375L230.963 314.437L230.85 313.575L230.475 312.637L230.287 311.362L229.275 311.437L223.35 314.587V314.1L223.987 313.462L224.1 312.45L224.4 311.55L226.725 310.912L228.787 309.862L229.875 309.637L229.2 308.662L229.162 308.175L229.688 307.912L231.638 307.537L232.537 307.575L235.763 308.7L236.175 309.037L236.737 309.637L236.925 310.125L236.963 310.612L237.15 310.987L237.75 311.137H238.987L239.475 310.987L240 310.65L238.875 310.2L238.388 310.125L238.688 309.187L238.537 308.512L237.525 307.162L237.037 306.3L236.775 305.625L236.362 303.712L235.612 302.137V301.35L236.362 300.187L237.037 299.55L237.375 299.775L237.975 301.65L237.75 302.212L238.237 303.675L237.975 304.687L239.175 304.2L240 304.875L240.713 305.925L241.65 306.675L241.688 305.55L242.138 304.875L242.625 304.687L242.888 304.95V308.1L243.787 307.425L244.5 307.5L245.138 308.7L246.525 309.337L247.125 309.037L247.65 307.012L248.062 307.725L248.287 309.075L252.188 309L253.65 309.187L254.1 307.425L254.588 306.3L255 306.337L254.925 307.725L255 309.187L255.825 309.15L257.625 305.962L258.15 305.137L258.45 305.4L258.938 304.5V304.5L259.838 303.375V303.375L260.7 302.1V302.1L261.3 297.787V297.787L262.162 296.737L263.287 295.912L264.525 295.312H266.25L266.438 294L267.975 293.25L269.138 293.062L270 291.187L273.539 290.222L273.375 290.062L273 288.037L271.612 286.987L268.575 285.3L266.025 282.375L264.487 281.175L260.812 280.612L259.912 278.812L261.412 275.812Z" fill="#0F2659" stroke="#2A82B6" stroke-linecap="round" stroke-linejoin="round"/>
<path d="M266.4 310.837L265.913 311.437L265.538 311.137L265.125 310.612L264 309.975L263.438 309.337L263.475 308.437L263.925 307.987L264.525 308.025L265.088 308.812L265.613 309.375L266.025 309.6L265.65 309.9L265.575 310.425L266.4 310.837ZM272.475 303.225L272.175 303.787L270.6 303.75L269.775 303.9L269.138 303.862L268.5 304.162L267.788 304.237L267.75 305.25L268.2 305.962L268.275 306.825L267.975 307.762L266.663 308.4L264.938 306.9L264.45 306.337L262.875 307.987L262.163 309.337L261.938 310.725L261.488 311.062L261.188 310.35L260.475 309.6L260.663 311.737H260.213L260.025 311.25L259.763 311.137L258.6 311.925L258.188 311.437L257.7 309.787L257.925 308.325L258.375 306.45L258.45 305.4L258.938 304.5L259.838 303.375L260.7 302.1L261.3 297.787L262.163 296.737L263.288 295.912L264.525 295.312H266.25L266.438 294L267.975 293.25L269.138 293.062L270 291.188L274.125 290.062L276.375 291.188L277.313 293.25L276.75 297.375L273.938 302.1L272.475 303.225Z" fill="#0F2659" stroke="#2A82B6" stroke-linecap="round" stroke-linejoin="round"/>
<path d="M131.513 418.65L132.188 419.7L133.088 420.375L135.938 421.537L136.8 422.4L137.4 424.537L137.963 425.362L138.638 424.725L138.788 424.425L139.238 425.362L138.938 425.662L138.375 425.85L137.963 426.338L138 426.75L138.375 427.425V427.8L138.188 428.175L137.55 429.037L136.5 430.312L134.475 431.925L133.838 433.238L132.975 434.812L132.9 435.45L132.525 436.387L131.063 436.537L130.5 436.838L128.925 436.725L126.675 438.525L120.675 439.613L118.65 441.338L116.213 441.863L113.55 441.6L110.55 442.162L108.075 441.412L102.413 441.488L100.65 442.312L99.6379 444.188L98.6629 444.375L97.7254 443.925L96.3754 441.713L94.5754 441.113L92.8129 439.275L92.2129 437.062L93.2629 434.137L94.2754 432.375L94.8754 431.738L96.9379 430.5L98.7004 427.425L100.313 427.013L101.063 425.4L103.838 424.425L109.913 422.7L111.413 421.388L117.188 420.787L121.125 419.062L122.1 419.325L126.863 418.575L129.675 418.312L131.513 418.65Z" fill="#0F2659" stroke="#2A82B6" stroke-linecap="round" stroke-linejoin="round"/>
<path d="M156.6 194.513L155.438 197.025L155.55 198.263L154.8 200.4L154.538 202.688L158.925 201.788L163.425 202.088L163.388 202.875L163.088 203.588L162.975 204.15L163.163 204.6L163.275 205.35L163.163 206.138L162.9 206.85L161.55 206.738L154.988 208.538L150.938 209.663L145.538 208.575L146.063 207.038L146.963 206.175L146.775 194.963L148.163 191.138L156.6 194.513Z" fill="#0F2659" stroke="#2A82B6" stroke-linecap="round" stroke-linejoin="round"/>
<path fill-rule="evenodd" clip-rule="evenodd" d="M286.05 199.725L285.75 196.688L285.15 196.65L283.163 196.2L281.25 197.063L277.163 195.525L277.8 193.763L277.613 192.113L277.088 190.275L276.938 188.213L277.725 186.225L278.363 184.388L277.913 183.825L277.388 183.338L277.65 181.65L273.3 181.313L272.025 180.6L270.638 180L270.075 178.65L269.663 177.075L267.713 176.138L266.475 174.3L266.213 171.863L266.625 170.025L267.638 169.275L268.763 168.863L270.488 169.538L271.913 168.488L271.313 166.763L269.475 165.638L267.45 165.188L265.838 166.013L264.263 166.425L262.088 165.413L259.763 165.038L258.975 165.338L258.338 165.263L257.813 164.588L257.1 164.288L255.413 165.6L253.65 166.313L253.5 165L253.65 163.725L252.6 163.2L251.475 162.938L250.65 161.475L249 161.325L247.388 162.113L246.338 163.425L246.713 165.263L246.525 166.95L246.188 168.525L244.65 168.413L242.888 168L241.425 167.4L239.888 166.575L239.175 167.4L238.388 167.888L237.675 167.625L237.113 167.963L235.725 169.425L234.225 170.7L233.213 171.638L232.013 172.05L231.263 172.65L230.738 173.588L228.9 174.9L227.625 176.775L226.988 178.163L226.238 179.55L226.65 180.3L227.438 181.013L226.575 183.938L221.588 186L219.488 185.325L218.588 183.525L217.2 182.325L216.188 181.613L215.438 180.75L214.65 181.5L214.05 182.475L213.75 183.638L213.338 184.875L211.613 184.725L209.775 184.088L208.838 183.45L207.825 184.125L206.85 185.438L205.65 185.513L204.713 184.913L204 186.113L203.25 187.725L202.838 189.263L204 190.725L204.863 192.375L200.625 191.738L198.375 190.725L197.1 192.675L195 193.65L193.163 194.888L193.013 195.788L193.05 196.463L192.713 197.213L191.4 199.013L190.538 199.95L189.675 200.1L188.775 200.513L189.45 202.2L191.775 202.613L194.663 206.85L193.613 207.9L193.013 209.588L192.788 213.6L192.413 215.363L192.788 216.638L193.463 217.8L192.6 219.488L191.288 220.65L191.625 224.138L194.025 223.575L195.45 224.063L197.138 225.45L198.3 226.013L201.338 225.263L202.65 226.275L203.325 230.1L202.088 230.025L200.663 229.763L199.2 231L199.538 232.988L199.575 233.963L199.425 235.2L198.863 235.875L198.413 236.7L197.888 238.575L196.988 240.375L195.488 240.9L194.063 241.575L196.5 245.738L196.2 250.425L196.688 252.038L197.888 252.75L198.975 253.613L199.05 254.213L199.275 254.813L200.25 255.188L202.05 255.338L202.8 255.975L203.775 256.613L205.463 256.763H207.15L208.688 257.25L209.813 258.488L210.6 259.988L211.913 260.925L212.25 261.6L212.475 262.238L213.375 262.8L214.163 263.738L214.125 265.463L213.413 267.113L214.35 270.488L218.025 270.638L219.788 270.413L221.513 270.675L223.125 271.463L224.625 272.588L225.64 272.791L227.625 268.688V267.563L226.125 267.188L224.25 264.563L225.375 262.875L227.625 264.188L229.125 263.625L228.938 261.75L226.5 260.625L225.375 258.938L227.25 258.188L228 257.063L228.938 256.313L231.675 255.975L230.813 255.113L229.875 254.775L229.538 253.425L227.625 252.938L226.125 252.263L226.688 250.688L227.625 249.75L228.188 248.063L230.813 246.188L231.225 249.188L232.088 248.963L232.088 248.963L233.138 247.838L232.763 244.5L232.763 244.5L235.538 242.175L239.325 241.65L240.938 239.625L245.288 239.813L247.5 243.563L246.413 245.588L246.525 246.375L246.75 247.313L247.5 248.063L248.063 249.188L247.875 250.688L246.75 251.4L246.225 252.263L246.225 252.263L245.288 253.238L245.288 253.238H244.875V253.613L245.063 254.438V255.113V255.975L244.5 256.763L243.525 256.875L242.813 258.675L243.938 260.063L243.75 261.188L240.75 263.438L238.875 260.813L237.375 261.938L235.538 261.75L234.75 262.5L234.188 263.438V265.688L233.828 268.569L233.963 268.463L234.45 272.513L235.95 274.35L237.788 275.513L239.963 275.288L242.175 274.875L244.125 275.475L245.963 276.45L248.175 276.525L250.125 274.988L250.95 274.688L251.813 274.575L252.638 273.863L253.313 272.963L255.45 272.1L257.738 272.663L259.5 273.488L261.15 272.925L262.575 271.763L264.113 270.863H265.013L265.388 270.113L264.825 269.175L264.525 268.163L266.513 266.625L269.025 265.725L271.088 265.425L273.075 265.838L275.175 266.738L275.7 267.638L275.738 268.725L275.888 269.7L276.638 270.225L277.613 270.488L283.163 269.513L287.85 270.638H287.888L287.438 270.075L286.95 268.8L287.438 267.638L288.6 265.35L290.175 260.625L290.1 257.888L291.638 253.538L292.275 248.513L292.425 246.6L294.563 242.363L295.5 240.9L295.2 239.438L294.788 238.125L294.563 236.85L293.588 236.063L292.838 237.3L289.088 241.425L287.55 242.625L286.35 242.438L285.413 241.275L284.513 240.263L283.238 239.1L283.313 238.088L284.288 237.263L284.888 237.075L285.488 236.775L285.975 236.138L286.2 234.975L285.9 234.563L285.413 234.225L284.963 232.313L284.625 229.8L284.288 229.425L283.913 229.163L283.538 228.488L283.35 227.288L283.613 218.4L283.913 216.938L284.625 215.7L286.463 213.45L286.838 212.1L287.175 205.8L286.875 202.763L286.05 199.725Z" fill="#0F2659" stroke="#2A82B6" stroke-linecap="round" stroke-linejoin="round"/>
<path fill-rule="evenodd" clip-rule="evenodd" d="M233.827 268.569L232.575 269.55L231.113 271.65L229.5 271.313L226.313 272.925L225.64 272.791L227.625 268.688V267.562L226.125 267.188L224.25 264.562L225.375 262.875L227.625 264.188L229.125 263.625L228.938 261.75L226.5 260.625L225.375 258.938L227.25 258.188L228 257.062L228.938 256.312L231.675 255.975L230.812 255.113L229.875 254.775L229.537 253.425L227.625 252.938L226.125 252.263L226.688 250.688L227.625 249.75L228.188 248.062L230.812 246.188L231.225 249.188L232.088 248.963L233.138 247.838L232.763 244.5L235.537 242.175L239.325 241.65L240.938 239.625L245.287 239.812L247.5 243.562L246.412 245.588L246.525 246.375L246.75 247.312L247.5 248.062L248.062 249.188L247.875 250.688L246.75 251.4L246.225 252.263L245.287 253.238H244.875V253.613L245.062 254.438V255.113V255.975L244.5 256.763L243.525 256.875L242.812 258.675L243.938 260.062L243.75 261.188L240.75 263.438L238.875 260.812L237.375 261.938L235.537 261.75L234.75 262.5L234.188 263.438V265.688L233.827 268.569Z" fill="#0F2659" stroke="#2A82B6" stroke-linecap="round" stroke-linejoin="round"/>
</svg>
