<svg version="1.0" xmlns="http://www.w3.org/2000/svg"
     width="668px" style="transform:scale(1,1.001);" height="375.75px" viewBox="0 0 320.000000 180.000000"
     preserveAspectRatio="xMidYMid meet">
    <g transform="translate(0.000000,180.000000) scale(0.100000,-0.100000)"
       fill="#000000" stroke="none">
        <path d="M0 905 l0 -895 1600 0 1600 0 0 895 0 895 -1600 0 -1600 0 0 -895z m646 703
c35 -31 48 -56 36 -71 -5 -7 -12 -37 -16 -68 -6 -54 -4 -59 30 -104 l37 -47
-2 -112 c-1 -101 5 -183 25 -318 6 -40 4 -48 -9 -48 -16 0 -22 -16 -44 -115
-6 -27 -5 -68 5 -125 7 -47 11 -106 7 -132 -3 -27 -2 -48 2 -48 13 0 12 -164
-1 -172 -6 -4 -64 -8 -128 -8 -111 0 -118 1 -118 20 0 13 7 20 18 20 11 0 27
9 37 20 22 24 45 86 36 95 -3 3 -4 57 -2 118 2 108 -12 233 -31 270 -5 9 -16
17 -24 17 -14 0 -16 24 -12 213 5 203 6 215 33 281 l27 68 -20 37 c-21 37 -42
137 -42 199 l0 32 65 0 c53 0 70 -4 91 -22z m1608 -98 c-1 -30 -5 -76 -9 -101
-7 -44 -6 -47 23 -64 17 -10 35 -28 40 -39 17 -36 35 -166 38 -276 2 -58 6
-122 10 -142 6 -39 6 -39 -35 -42 -20 -1 -38 -78 -51 -219 -16 -173 1 -243 66
-267 14 -6 24 -18 24 -29 0 -15 -9 -22 -37 -26 -21 -3 -46 -11 -56 -16 -26
-14 -57 -1 -68 29 -6 15 -13 104 -16 200 -3 95 -9 175 -13 177 -14 9 -31 -247
-19 -270 3 -6 5 -41 5 -80 l-1 -70 -42 -3 -43 -3 1 53 c2 88 -12 491 -17 528
-3 19 -13 51 -22 70 -14 29 -17 68 -17 216 0 203 0 204 71 236 50 22 54 29 44
93 -4 28 -3 61 2 78 10 27 13 28 67 25 l56 -3 -1 -55z m-748 -16 c4 -14 4 -46
0 -72 -5 -43 -3 -51 30 -92 l36 -45 -4 -155 c-3 -103 0 -180 8 -230 8 -41 14
-79 14 -83 0 -4 -16 -15 -36 -23 l-35 -15 8 -67 c12 -98 9 -293 -6 -320 -10
-19 -20 -22 -76 -22 -58 0 -65 2 -65 20 0 15 -7 20 -29 20 -59 0 -82 23 -33
33 44 9 52 41 42 174 -5 64 -7 120 -4 125 3 5 3 27 -1 48 -5 30 -11 40 -26 40
-34 0 -30 85 12 248 16 62 29 126 29 141 0 15 12 50 26 79 25 51 26 52 9 102
-11 32 -15 64 -11 86 7 33 8 34 56 34 45 0 50 -2 56 -26z m-426 -89 c7 -9 14
-39 14 -66 1 -45 5 -53 29 -65 25 -13 27 -20 27 -72 0 -50 -6 -89 -40 -257
-13 -63 -11 -344 2 -398 10 -41 10 -50 -2 -57 -26 -17 -57 -11 -63 10 -4 15
-14 20 -36 20 -34 0 -37 6 -16 34 17 22 20 62 6 70 -8 6 -19 55 -42 206 -6 41
-16 86 -22 100 -13 34 -9 130 8 156 9 14 13 42 11 78 -3 45 0 61 17 82 18 23
19 30 9 58 -15 41 -15 59 0 91 9 20 18 25 48 25 22 0 43 -7 50 -15z m764 -57
c19 -27 20 -58 5 -92 -9 -19 -9 -29 -1 -39 14 -17 32 -202 32 -334 0 -84 -3
-103 -15 -103 -23 0 -45 -54 -45 -112 1 -55 11 -77 45 -96 23 -12 16 -16 -47
-27 -27 -4 -36 -10 -31 -20 7 -19 -52 -21 -64 -3 -4 7 -8 99 -9 205 -1 170 -3
195 -20 220 -14 22 -18 46 -18 108 0 97 16 148 55 176 24 17 29 28 29 60 0 22
5 49 10 60 14 26 55 24 74 -3z"/>
    </g>
</svg>
